<svg width="245" height="245" viewBox="0 0 245 245" fill="none" xmlns="http://www.w3.org/2000/svg">
<path d="M75.5568 88.9594C74.0174 87.7109 71.7578 87.9464 70.5089 89.4862C69.059 91.274 67.1368 92.2583 65.0954 92.2583C63.0541 92.2583 61.1318 91.2735 59.6819 89.4862C58.4335 87.9468 56.173 87.7114 54.634 88.9594C53.0946 90.2078 52.8587 92.4679 54.1072 94.0073C56.9051 97.4574 60.9103 99.4361 65.0954 99.4361C69.2805 99.4361 73.2853 97.4574 76.0836 94.0073C77.3321 92.4679 77.0962 90.2078 75.5568 88.9594Z" fill="#858EA1"/>
<path d="M48.6939 67.6558C46.7118 67.6558 45.105 69.2626 45.105 71.2446V75.3451C45.105 77.3271 46.7118 78.934 48.6939 78.934C50.6759 78.934 52.2828 77.3271 52.2828 75.3451V71.2446C52.2828 69.2626 50.6759 67.6558 48.6939 67.6558Z" fill="#858EA1"/>
<path d="M81.4971 67.6558C79.5151 67.6558 77.9082 69.2626 77.9082 71.2446V75.3451C77.9082 77.3271 79.5146 78.934 81.4971 78.934C83.4791 78.934 85.086 77.3271 85.086 75.3451V71.2446C85.086 69.2626 83.4791 67.6558 81.4971 67.6558Z" fill="#858EA1"/>
<path d="M194.469 109.461C192.929 108.212 190.669 108.448 189.421 109.988C187.971 111.775 186.048 112.76 184.007 112.76C181.966 112.76 180.044 111.775 178.594 109.988C177.346 108.448 175.085 108.212 173.546 109.461C172.006 110.709 171.771 112.969 173.019 114.509C175.817 117.959 179.822 119.938 184.007 119.938C188.192 119.938 192.197 117.959 194.995 114.509C196.243 112.969 196.008 110.709 194.469 109.461Z" fill="#858EA1"/>
<path d="M167.605 88.1582C165.623 88.1582 164.017 89.7651 164.017 91.7471V95.8475C164.017 97.8295 165.623 99.4364 167.605 99.4364C169.588 99.4364 171.194 97.8295 171.194 95.8475V91.7471C171.194 89.7651 169.588 88.1582 167.605 88.1582Z" fill="#858EA1"/>
<path d="M200.409 88.1582C198.427 88.1582 196.82 89.7651 196.82 91.7471V95.8475C196.82 97.8295 198.426 99.4364 200.409 99.4364C202.391 99.4364 203.998 97.8295 203.998 95.8475V91.7471C203.998 89.7651 202.391 88.1582 200.409 88.1582Z" fill="#858EA1"/>
<path d="M235.013 159.129L206.897 147.882C206.744 147.822 206.604 147.744 206.461 147.669C225.881 143.251 235.078 135.862 235.486 135.527C236.457 134.731 236.942 133.486 236.764 132.243C236.724 131.959 232.7 103.468 232.7 75.3457C232.7 48.4961 210.856 26.6522 184.006 26.6522C157.156 26.6522 135.313 48.4956 135.313 75.3457C135.313 82.7025 134.979 91.7005 134.435 100.219L126.601 104.136L103.603 92.638C103.537 92.6049 103.468 92.581 103.4 92.5523C104.494 89.3639 105.209 86.0019 105.472 82.513C110.283 81.0267 113.788 76.5377 113.788 71.2453C113.788 67.6808 112.195 64.4834 109.687 62.3195V38.4414C109.687 31.8451 106.355 25.6731 100.889 21.9646C99.037 15.0835 92.8546 10.25 85.5964 10.25H52.793C34.9874 10.25 20.5012 24.7362 20.5012 42.5419V62.319C17.9932 64.4824 16.4007 67.6803 16.4007 71.2448C16.4007 76.5372 19.9059 81.0262 24.7164 82.5125C25.6227 94.5611 31.832 105.147 41.0033 111.961V121.88L11.3237 130.784C4.55071 132.816 0 138.932 0 146.004V186.056C0 188.038 1.60686 189.645 3.58889 189.645H4.10042V231.161C4.10042 233.143 5.70729 234.75 7.68931 234.75C9.67134 234.75 11.2782 233.143 11.2782 231.161V189.645H24.6025V231.161C24.6025 233.143 26.2094 234.75 28.1914 234.75C30.1735 234.75 31.7803 233.143 31.7803 231.161V169.279C31.7803 166.131 30.8573 163.083 29.1116 160.465L22.977 151.263C21.8774 149.613 19.6489 149.168 18.0004 150.267C16.351 151.366 15.9055 153.594 17.0051 155.244L23.1397 164.446C24.0968 165.882 24.603 167.553 24.603 169.279V182.467H7.68931H7.17778V146.004C7.17778 142.126 9.67277 138.773 13.387 137.659L25.7074 133.963C29.9978 151.927 46.2919 165.043 65.0953 165.043C71.8505 165.043 78.411 163.377 84.2858 160.207C86.4329 163.136 89.8959 165.043 93.7977 165.043H94.3093V165.554C94.3093 177.585 100.928 188.094 110.711 193.649V199.503C110.711 199.723 110.57 199.918 110.361 199.988L96.9737 204.45C90.4749 206.617 86.1084 212.675 86.1084 219.525V231.161C86.1084 233.143 87.7153 234.75 89.6973 234.75C91.6793 234.75 93.2862 233.143 93.2862 231.161V219.525C93.2862 215.769 95.6802 212.447 99.2433 211.26L103.18 209.948C108.388 217.715 117.148 222.449 126.601 222.449C136.064 222.449 144.815 217.718 150.022 209.948L153.958 211.26C157.521 212.448 159.915 215.769 159.915 219.525V231.161C159.915 233.143 161.522 234.75 163.504 234.75C165.486 234.75 167.093 233.143 167.093 231.161V219.525C167.093 212.675 162.726 206.617 156.228 204.451L142.84 199.988C142.631 199.918 142.49 199.724 142.49 199.503V193.649C149.815 189.49 155.359 182.553 157.685 174.278C164.467 181.375 173.939 185.546 184.006 185.546C199.898 185.546 213.843 175.272 218.646 160.314L232.346 165.794C235.673 167.125 237.822 170.3 237.822 173.883V190.669H237.311H224.498V186.057C224.498 184.075 222.891 182.468 220.909 182.468C218.927 182.468 217.32 184.075 217.32 186.057V231.161C217.32 233.143 218.927 234.75 220.909 234.75C222.891 234.75 224.498 233.143 224.498 231.161V197.846H233.722V231.161C233.722 233.143 235.329 234.75 237.311 234.75C239.293 234.75 240.9 233.143 240.9 231.161V197.846H241.411C242.363 197.846 243.275 197.468 243.949 196.796C244.622 196.122 245 195.21 245 194.258V173.883C245.001 167.347 241.081 161.556 235.013 159.129ZM142.491 75.3453C142.491 52.4534 161.115 33.8295 184.007 33.8295C206.899 33.8295 225.522 52.4534 225.522 75.3453C225.522 99.4449 228.425 123.807 229.368 131.083C226.152 133.187 217.917 137.821 203.998 140.866V135.155C205.904 134.074 207.729 132.841 209.445 131.454C216.507 125.746 221.498 117.752 223.496 108.944C224.162 106.009 224.5 102.983 224.5 99.9483C224.5 79.6634 209.83 76.7511 195.643 73.9346C186.615 72.1425 177.281 70.2892 169.848 64.3427C168.771 63.4809 167.295 63.3129 166.051 63.9106C164.807 64.5083 164.017 65.7653 164.017 67.1454C164.017 67.2406 163.861 76.6837 150.334 80.0654C148.411 80.5463 147.242 82.4948 147.722 84.418C148.203 86.3411 150.152 87.5092 152.075 87.0292C163.396 84.1988 168.015 77.8474 169.898 73.0756C177.681 77.6876 186.399 79.4179 194.245 80.9755C209.409 83.9859 217.322 86.1971 217.322 99.9488C217.322 102.449 217.044 104.942 216.496 107.356C214.852 114.598 210.746 121.174 204.933 125.873C198.951 130.708 191.715 133.263 184.007 133.263C176.981 133.263 170.293 131.108 164.618 127.035C162.539 121.361 159.199 116.169 154.793 111.891V95.8483C154.793 94.6042 154.148 93.449 153.09 92.7954C152.032 92.1417 150.712 92.0819 149.599 92.6384L141.85 96.5125C142.275 89.0385 142.491 81.9325 142.491 75.3453ZM147.615 101.654V114.643L134.626 108.149L147.615 101.654ZM105.587 101.654L118.576 108.149L105.587 114.643V101.654ZM86.1084 140.952V144.36C83.5388 146.579 82.008 149.826 82.008 153.252C76.8965 156.272 71.0897 157.865 65.0948 157.865C49.4836 157.865 35.9774 146.879 32.5986 131.896L41.4651 129.236C43.6524 140.284 53.4146 148.641 65.0953 148.641C74.3704 148.641 82.4324 143.369 86.4568 135.667C86.2266 137.41 86.1084 139.175 86.1084 140.952ZM48.182 124.544V116.231C53.3318 118.609 59.0607 119.938 65.0953 119.938C71.1294 119.938 76.8587 118.609 82.0085 116.231V124.549C82.0085 133.875 74.4216 141.463 65.0953 141.463C55.7847 141.463 48.2083 133.9 48.183 124.595C48.183 124.578 48.182 124.561 48.182 124.544ZM65.0953 112.76C46.7249 112.76 31.7803 97.8155 31.7803 79.4457C31.7803 77.4637 30.1735 75.8568 28.1914 75.8568C25.6486 75.8568 23.5795 73.7877 23.5795 71.2448C23.5795 68.702 25.6481 66.6329 28.1914 66.6329H36.3923C37.9369 66.6329 39.3084 65.6447 39.7969 64.179L43.0911 54.2967C51.3383 54.1105 76.9051 52.9511 91.3023 45.7522C93.0752 44.8655 93.7939 42.7103 92.9072 40.9374C92.021 39.1645 89.8658 38.4457 88.0924 39.3324C72.6453 47.0557 40.8114 47.1543 40.4918 47.1543C38.9471 47.1548 37.5757 48.1429 37.0876 49.6086L33.8054 59.4556H28.1914C28.0201 59.4556 27.8498 59.4613 27.6799 59.4685V42.5419C27.6799 28.694 38.9461 17.4278 52.794 17.4278H85.5974C89.883 17.4278 93.4834 20.5166 94.1595 24.7716C94.3313 25.853 94.9873 26.7967 95.941 27.3345C99.9931 29.6199 102.511 33.8754 102.511 38.441V59.4675C102.341 59.4599 102.171 59.4546 101.999 59.4546H97.8987C95.9166 59.4546 94.3098 61.0615 94.3098 63.0435C94.3098 65.0255 95.9166 66.6324 97.8987 66.6324H101.999C104.542 66.6324 106.611 68.701 106.611 71.2444C106.611 73.7877 104.542 75.8563 101.999 75.8563C100.017 75.8563 98.4102 77.4632 98.4102 79.4452C98.4102 97.815 83.4656 112.76 65.0953 112.76ZM89.1858 124.55V111.961C92.756 109.308 95.8764 106.086 98.4097 102.425V111.89C94.3906 115.792 91.2578 120.453 89.1604 125.549C89.1743 125.217 89.1858 124.885 89.1858 124.55ZM142.861 207.56C138.91 212.387 132.974 215.271 126.601 215.271C120.236 215.271 114.297 212.385 110.344 207.56L112.631 206.798C115.776 205.75 117.889 202.818 117.889 199.503V196.642C120.663 197.421 123.583 197.846 126.602 197.846C129.621 197.846 132.541 197.421 135.314 196.642V199.503C135.314 202.817 137.426 205.749 140.571 206.797L142.861 207.56ZM155.305 157.865C153.323 157.865 151.716 159.472 151.716 161.454V165.022C151.716 165.053 151.715 165.084 151.716 165.115V165.554C151.715 179.402 140.449 190.668 126.601 190.668C112.753 190.668 101.488 179.402 101.488 165.554V161.454C101.488 159.472 99.8807 157.865 97.8987 157.865H93.7982C91.2554 157.865 89.1863 155.796 89.1863 153.253C89.1863 151.616 90.0524 150.135 91.5028 149.291C91.8267 149.103 92.1086 148.864 92.3526 148.594C101.224 148.337 129.983 146.667 148.884 135.867C150.605 134.883 151.203 132.691 150.219 130.97C149.236 129.249 147.043 128.651 145.323 129.635C128.765 139.096 102.747 140.99 93.2867 141.369V140.952C93.2867 134.277 95.3079 127.812 98.9705 122.363C99.2572 122.817 99.6405 123.211 100.112 123.502C100.689 123.858 101.343 124.038 101.999 124.038C102.547 124.038 103.097 123.912 103.604 123.659L126.602 112.161L149.599 123.659C150.106 123.912 150.656 124.038 151.204 124.038C151.861 124.038 152.515 123.858 153.091 123.502C153.562 123.211 153.946 122.816 154.232 122.363C157.895 127.812 159.916 134.277 159.916 140.952V146.189C159.916 147.467 160.595 148.649 161.7 149.291C163.151 150.136 164.017 151.616 164.017 153.253C164.017 155.796 161.948 157.865 159.405 157.865H155.305ZM184.007 178.367C174.071 178.367 164.853 173.308 159.487 165.041C165.95 164.996 171.194 159.726 171.194 153.253C171.194 149.827 169.663 146.579 167.094 144.361V140.952C167.094 139.507 167.016 138.071 166.863 136.648C172.185 139.143 177.995 140.44 184.007 140.44C188.383 140.44 192.711 139.715 196.82 138.345V143.6C196.82 148.449 199.729 152.746 204.231 154.547L211.97 157.642C208.261 169.906 196.934 178.367 184.007 178.367Z" fill="#858EA1"/>
<path d="M137.063 170.967C135.524 169.719 133.264 169.954 132.015 171.494C130.565 173.282 128.643 174.266 126.602 174.266C124.561 174.266 122.638 173.282 121.188 171.494C119.94 169.955 117.679 169.719 116.14 170.967C114.601 172.216 114.365 174.476 115.614 176.015C118.412 179.465 122.417 181.444 126.602 181.444C130.787 181.444 134.792 179.465 137.59 176.016C138.838 174.476 138.602 172.216 137.063 170.967Z" fill="#858EA1"/>
<path d="M114.366 160.958C116.348 160.958 117.955 159.351 117.955 157.369C117.955 155.387 116.348 153.78 114.366 153.78C112.384 153.78 110.777 155.387 110.777 157.369C110.777 159.351 112.384 160.958 114.366 160.958Z" fill="#858EA1"/>
<path d="M138.771 160.958C140.753 160.958 142.359 159.351 142.359 157.369C142.359 155.387 140.753 153.78 138.771 153.78C136.788 153.78 135.182 155.387 135.182 157.369C135.182 159.351 136.788 160.958 138.771 160.958Z" fill="#858EA1"/>
</svg>
