<svg width="245" height="246" viewBox="0 0 245 246" fill="none" xmlns="http://www.w3.org/2000/svg">
<path d="M244.377 72.0446C243.803 59.0243 241.698 50.073 238.682 42.3165C235.57 34.0832 230.783 26.7119 224.511 20.5842C218.383 14.3611 210.964 9.52542 202.826 6.46248C195.024 3.44628 186.12 1.34074 173.099 0.766671C159.982 0.143984 155.817 0 122.548 0C89.2779 0 85.1136 0.143984 72.0446 0.718053C59.0243 1.29212 50.073 3.39953 42.3184 6.41386C34.0832 9.52542 26.7119 14.3124 20.5842 20.5842C14.3611 26.7119 9.52729 34.1318 6.46248 42.2698C3.44628 50.073 1.34074 58.9757 0.766671 71.996C0.143984 85.1136 0 89.2779 0 122.548C0 155.817 0.143984 159.982 0.718053 173.051C1.29212 186.071 3.39953 195.022 6.41573 202.779C9.52729 211.012 14.3611 218.383 20.5842 224.511C26.7119 230.734 34.1318 235.57 42.2698 238.633C50.073 241.649 58.9757 243.755 71.9979 244.329C85.0649 244.905 89.2312 245.047 122.501 245.047C155.771 245.047 159.935 244.905 173.004 244.329C186.024 243.755 194.976 241.649 202.73 238.633C219.199 232.266 232.219 219.245 238.586 202.779C241.6 194.976 243.708 186.071 244.282 173.051C244.856 159.982 245 155.817 245 122.548C245 89.2779 244.951 85.1136 244.377 72.0446ZM222.31 172.093C221.783 184.061 219.773 190.523 218.097 194.832C213.98 205.507 205.507 213.98 194.832 218.097C190.523 219.773 184.014 221.783 172.093 222.308C159.168 222.884 155.292 223.026 122.596 223.026C89.9006 223.026 85.9756 222.884 73.0974 222.308C61.1299 221.783 54.6674 219.773 50.3591 218.097C45.0466 216.134 40.211 213.022 36.286 208.953C32.217 204.98 29.1054 200.193 27.142 194.88C25.4666 190.572 23.4564 184.061 22.9309 172.142C22.355 159.217 22.2129 155.339 22.2129 122.643C22.2129 89.9473 22.355 86.0224 22.9309 73.146C23.4564 61.1785 25.4666 54.716 27.142 50.4077C29.1054 45.0933 32.217 40.2596 36.3346 36.3327C40.3063 32.2638 45.0933 29.1522 50.4077 27.1906C54.716 25.5152 61.2271 23.505 73.146 22.9777C86.071 22.4036 89.9492 22.2596 122.643 22.2596C155.387 22.2596 159.264 22.4036 172.142 22.9777C184.109 23.505 190.572 25.5152 194.88 27.1906C200.193 29.1522 205.028 32.2638 208.953 36.3327C213.022 40.3063 216.134 45.0933 218.097 50.4077C219.773 54.716 221.783 61.2252 222.31 73.146C222.884 86.071 223.028 89.9473 223.028 122.643C223.028 155.339 222.884 159.168 222.31 172.093Z" fill="#858EA1"/>
<path d="M122.547 59.5981C87.7948 59.5981 59.5981 87.7929 59.5981 122.547C59.5981 157.302 87.7948 185.497 122.547 185.497C157.302 185.497 185.497 157.302 185.497 122.547C185.497 87.7929 157.302 59.5981 122.547 59.5981ZM122.547 163.381C100.002 163.381 81.7138 145.095 81.7138 122.547C81.7138 99.9998 100.002 81.7138 122.547 81.7138C145.095 81.7138 163.381 99.9998 163.381 122.547C163.381 145.095 145.095 163.381 122.547 163.381Z" fill="#858EA1"/>
<path d="M202.683 57.1093C202.683 65.2248 196.103 71.8051 187.986 71.8051C179.87 71.8051 173.29 65.2248 173.29 57.1093C173.29 48.992 179.87 42.4136 187.986 42.4136C196.103 42.4136 202.683 48.992 202.683 57.1093Z" fill="#858EA1"/>
</svg>
