<svg width="245" height="245" viewBox="0 0 245 245" fill="none" xmlns="http://www.w3.org/2000/svg">
<path d="M235.43 112.93H9.57031C4.28463 112.93 0 117.214 0 122.5C0 127.786 4.28463 132.07 9.57031 132.07H235.43C240.715 132.07 245 127.786 245 122.5C245 117.214 240.715 112.93 235.43 112.93Z" fill="#5F687B"/>
<path d="M235.43 36.3672H9.57031C4.28463 36.3672 0 40.6518 0 45.9375C0 51.2232 4.28463 55.5078 9.57031 55.5078H235.43C240.715 55.5078 245 51.2232 245 45.9375C245 40.6518 240.715 36.3672 235.43 36.3672Z" fill="#5F687B"/>
<path d="M235.43 189.492H9.57031C4.28463 189.492 0 193.777 0 199.062C0 204.348 4.28463 208.633 9.57031 208.633H235.43C240.715 208.633 245 204.348 245 199.062C245 193.777 240.715 189.492 235.43 189.492Z" fill="#5F687B"/>
</svg>
