<svg width="245" height="246" viewBox="0 0 245 246" fill="none" xmlns="http://www.w3.org/2000/svg">
<path fill-rule="evenodd" clip-rule="evenodd" d="M209.304 35.7499C186.273 12.7084 155.643 0.0135132 123.012 0C55.7732 0 1.05028 54.6819 1.02324 121.89C1.01422 143.375 6.63076 164.347 17.3064 182.833L0 246L64.6683 229.048C82.4871 238.761 102.548 243.88 122.963 243.886H123.014C190.246 243.886 244.974 189.2 245 121.988C245.014 89.4152 232.337 58.7899 209.304 35.7499ZM123.012 223.299H122.97C104.777 223.292 86.9346 218.406 71.3652 209.177L67.6644 206.98L29.2892 217.04L39.5321 179.652L37.1205 175.819C26.9708 159.687 21.6112 141.042 21.6202 121.898C21.6412 66.0359 67.1265 20.5881 123.053 20.5881C150.135 20.5971 175.593 31.1494 194.735 50.3006C213.878 69.4518 224.414 94.9076 224.405 121.981C224.38 177.847 178.898 223.299 123.012 223.299ZM178.628 147.417C175.581 145.891 160.594 138.525 157.799 137.507C155.008 136.491 152.973 135.985 150.943 139.033C148.91 142.081 143.07 148.942 141.291 150.974C139.512 153.007 137.736 153.262 134.687 151.737C131.639 150.213 121.818 146.995 110.175 136.618C101.114 128.542 94.9973 118.568 93.2183 115.52C91.4423 112.469 93.2033 110.979 94.5555 109.304C97.8552 105.209 101.159 100.916 102.175 98.885C103.192 96.852 102.683 95.0728 101.92 93.5488C101.159 92.0248 95.0634 77.0327 92.5241 70.9322C90.0479 64.9954 87.5371 65.7972 85.665 65.7041C83.8889 65.6155 81.856 65.5975 79.823 65.5975C77.7916 65.5975 74.489 66.3587 71.6942 69.4097C68.901 72.4592 61.0276 79.8269 61.0276 94.819C61.0276 109.811 71.9497 124.294 73.4733 126.327C74.9968 128.36 94.9672 159.125 125.543 172.317C132.815 175.458 138.492 177.331 142.92 178.734C150.222 181.053 156.865 180.725 162.118 179.942C167.975 179.066 180.15 172.572 182.692 165.458C185.232 158.343 185.232 152.246 184.468 150.974C183.708 149.704 181.675 148.942 178.628 147.417Z" fill="#858EA1"/>
</svg>
