<svg width="136" height="137" viewBox="0 0 136 137" fill="none" xmlns="http://www.w3.org/2000/svg">
<path d="M59.531 132.62C58.865 135.68 56.549 136.48 55.485 134.701C54.115 132.424 55.9379 127.795 58.1249 128.007C59.6729 128.457 59.878 131.019 59.531 132.62" fill="#0083A9"/>
<path d="M68.5707 133.187C68.3957 136.333 66.1457 137.477 64.7417 135.887C63.1007 134.023 63.8837 129.003 66.3537 128.868C68.0257 129.068 68.6687 131.559 68.5707 133.19" fill="#0083A9"/>
<path d="M77.5221 132.361C77.7881 135.499 75.7731 136.936 74.2101 135.555C72.3671 133.934 72.4101 128.855 74.7641 128.383C76.4041 128.35 77.3751 130.737 77.5221 132.361Z" fill="#0083A9"/>
<path d="M86.3327 130.468C87.0327 133.521 85.2778 135.23 83.5578 134.068C81.3478 132.591 81.0277 127.626 83.0977 126.888C84.6897 126.636 85.9657 128.867 86.3327 130.463" fill="#0083A9"/>
<path d="M85.5317 9.84426H85.5226C85.1811 9.84291 84.8483 9.95215 84.5739 10.1557C84.2996 10.3592 84.0985 10.646 84.0007 10.9733L83.9927 10.9923C83.9536 11.1306 83.9328 11.2735 83.9307 11.4173C83.9306 11.8361 84.0948 12.2383 84.3879 12.5375C84.6811 12.8366 85.0799 13.0089 85.4987 13.0173H85.5057C85.8419 13.0204 86.1705 12.9165 86.4437 12.7206C86.717 12.5246 86.9208 12.2468 87.0256 11.9273L87.0306 11.9123L87.0356 11.9013L87.0447 11.8693C87.0839 11.7313 87.1044 11.5887 87.1057 11.4453C87.1094 11.0987 86.999 10.7606 86.7915 10.483C86.584 10.2055 86.291 10.0038 85.9576 9.90926C85.9498 9.90554 85.9413 9.90318 85.9327 9.90226C85.8025 9.86513 85.668 9.8453 85.5327 9.84326L85.5317 9.84426Z" fill="#FFC657"/>
<path d="M49.2701 7.05911C48.9343 7.147 48.6366 7.34256 48.4226 7.61584C48.2086 7.88911 48.09 8.22502 48.0851 8.57211C48.0831 8.71568 48.0999 8.85891 48.1351 8.99811C48.2234 9.33481 48.4199 9.63316 48.6944 9.84727C48.9688 10.0614 49.306 10.1794 49.6541 10.1831C49.7961 10.1854 49.9378 10.1682 50.0751 10.1321C50.2804 10.0828 50.4737 9.99311 50.6439 9.86823C50.8141 9.74334 50.9576 9.58578 51.0662 9.40475C51.1748 9.22373 51.2461 9.02289 51.2762 8.81396C51.3062 8.60502 51.2943 8.3922 51.2411 8.18793C51.188 7.98366 51.0946 7.79203 50.9665 7.62427C50.8384 7.4565 50.6781 7.31596 50.495 7.21086C50.312 7.10576 50.1098 7.0382 49.9004 7.01215C49.6909 6.98609 49.4784 7.00205 49.2751 7.05911" fill="#FFC657"/>
<path d="M57.137 5.31302C56.7326 5.33188 56.3507 5.50469 56.0696 5.79603C55.7885 6.08737 55.6294 6.47518 55.625 6.88001C55.625 6.91101 55.625 6.94102 55.625 6.97202C55.6429 7.37687 55.8152 7.7595 56.1064 8.04128C56.3977 8.32305 56.7858 8.48255 57.191 8.48701C57.222 8.48701 57.252 8.48701 57.284 8.48701C57.6885 8.46793 58.0705 8.29512 58.3519 8.00388C58.6333 7.71264 58.7929 7.32495 58.798 6.92001C58.798 6.89001 58.798 6.85902 58.798 6.82802C58.779 6.42348 58.6063 6.04142 58.3154 5.75974C58.0244 5.47805 57.6369 5.31793 57.232 5.31201H57.137" fill="#FFC657"/>
<path d="M79.369 6.16801C78.966 6.16679 78.5777 6.31881 78.2826 6.59325C77.9876 6.86769 77.8079 7.24403 77.78 7.64602C77.78 7.67702 77.775 7.70701 77.775 7.73801C77.7709 8.1427 77.9216 8.53366 78.1961 8.83103C78.4706 9.1284 78.8483 9.30974 79.252 9.33801C79.285 9.33801 79.3169 9.33801 79.3519 9.33801H79.363C79.7492 9.3401 80.123 9.20116 80.4141 8.94727C80.7052 8.69337 80.8936 8.34197 80.944 7.95901C80.9447 7.94127 80.9463 7.92357 80.949 7.90601V7.86301C80.949 7.83301 80.949 7.80202 80.954 7.77202C80.9591 7.36628 80.8089 6.97394 80.5341 6.67536C80.2593 6.37679 79.8807 6.19457 79.476 6.16602C79.445 6.16602 79.413 6.16602 79.383 6.16602L79.369 6.16801Z" fill="#FFC657"/>
<path d="M75.1148 0.439995H75.1088C74.0848 0.431995 72.9289 1.32599 72.3579 3.09999C72.3564 3.10715 72.3544 3.11417 72.3518 3.12099C72.3408 3.15299 72.3308 3.185 72.3228 3.221C72.159 3.78636 72.0729 4.3714 72.0668 4.96C72.0518 6.248 72.4238 7.55999 73.4998 7.94799H73.5189C73.6098 7.96322 73.7017 7.97157 73.7938 7.973H73.7988C76.0528 7.993 77.7558 3.643 76.7048 1.529L76.6989 1.51599C76.6943 1.50528 76.689 1.49492 76.6829 1.485C76.6719 1.464 76.6618 1.445 76.6498 1.424C76.508 1.13657 76.2905 0.893205 76.0208 0.720024C75.751 0.546843 75.4392 0.450384 75.1188 0.440998L75.1148 0.439995Z" fill="#FFC657"/>
<path d="M61.9777 3.84011C61.7627 0.701109 63.7947 -0.71189 65.3397 0.69911C67.1397 2.35311 67.0227 7.42811 64.6647 7.86311C63.0237 7.86311 62.0957 5.46311 61.9777 3.84011Z" fill="#FFC657"/>
<path d="M68.9811 5.4522C68.9002 5.4508 68.8193 5.45582 68.7391 5.4672H68.7151C68.344 5.52456 68.0053 5.71189 67.7595 5.9958C67.5137 6.2797 67.3768 6.64169 67.3732 7.0172C67.3721 7.10458 67.3785 7.19189 67.3921 7.2782V7.29819V7.3282C67.4601 7.68719 67.6496 8.01181 67.9288 8.24748C68.208 8.48315 68.5599 8.61548 68.9252 8.6222H68.9351C69.0157 8.62313 69.0963 8.61811 69.1761 8.6072C69.1834 8.60817 69.1908 8.60817 69.1981 8.6072C69.5674 8.54839 69.9043 8.36161 70.1498 8.07954C70.3953 7.79748 70.5338 7.43808 70.5411 7.0642C70.5419 6.97314 70.5352 6.88217 70.5211 6.7922V6.7832C70.5201 6.77196 70.5177 6.76089 70.5141 6.7502V6.7422C70.4467 6.38407 70.2579 6.06012 69.9796 5.82481C69.7013 5.58951 69.3505 5.45722 68.9861 5.4502L68.9811 5.4522Z" fill="#FFC657"/>
<path d="M42.3121 5.19001H42.3071C40.7901 5.17701 39.9771 7.09001 41.2071 9.42801L41.2191 9.449C41.2301 9.469 41.2401 9.48901 41.2521 9.51001L41.2681 9.53901C41.9291 10.739 43.3381 12.201 44.6451 12.227H44.6601C44.9053 12.232 45.1482 12.1803 45.3701 12.076C45.6252 11.8736 45.8276 11.6124 45.9599 11.3148C46.0923 11.0172 46.1507 10.692 46.1301 10.367C46.1521 8.467 44.6241 5.85501 42.9471 5.30201C42.9381 5.30201 42.9311 5.297 42.9231 5.294C42.7261 5.23132 42.5209 5.19764 42.3141 5.19401L42.3121 5.19001Z" fill="#FFC657"/>
<path d="M30.6218 13.1211C28.8688 13.1031 28.2628 15.2541 30.0518 17.4731L30.0668 17.4911L30.1378 17.5761L30.1489 17.5901L30.1619 17.6051L30.1998 17.6491L30.2138 17.6651C30.219 17.6728 30.225 17.6798 30.2318 17.6861V17.6861C31.0784 18.717 32.2762 19.3986 33.5949 19.6001H33.6118C33.9611 19.612 34.305 19.5114 34.5928 19.3131L34.6068 19.3031L34.6179 19.2951C34.9151 18.964 35.0746 18.5319 35.0638 18.0871C35.0868 16.1471 32.8248 13.3871 30.9008 13.1401C30.81 13.1282 30.7185 13.1215 30.6268 13.1201L30.6218 13.1211Z" fill="#FFC657"/>
<path d="M11.2676 35.6573C11.0491 35.6541 10.8308 35.6746 10.6166 35.7183H10.5947C10.2122 35.7621 9.85861 35.9431 9.5995 36.2278C9.34038 36.5124 9.19335 36.8814 9.18568 37.2663C9.17468 38.1663 9.86166 39.2883 11.3427 40.1553L11.3906 40.1843L11.4257 40.2033C12.3109 40.7069 13.3024 40.9947 14.3196 41.0433H14.3326C14.6685 41.0776 15.0076 41.0285 15.32 40.9005C15.6324 40.7725 15.9084 40.5694 16.1237 40.3093L16.1406 40.2853C16.1476 40.2683 16.1547 40.2533 16.1607 40.2363C16.165 40.2274 16.1684 40.218 16.1707 40.2083C16.8397 38.4133 13.7706 35.7083 11.2966 35.6533L11.2676 35.6573Z" fill="#BDB790"/>
<path d="M15.6261 28.2771H15.6141C15.4028 28.2721 15.1926 28.3096 14.9961 28.3873C14.7995 28.465 14.6205 28.5813 14.4697 28.7293C14.3188 28.8774 14.1992 29.0542 14.1178 29.2492C14.0365 29.4443 13.9951 29.6537 13.9961 29.8651C14.0578 30.4501 14.2492 31.0141 14.5564 31.5158C14.8637 32.0175 15.279 32.4443 15.7721 32.7651C15.7827 32.7716 15.7927 32.779 15.8021 32.7871C16.7437 33.5323 17.8836 33.9844 19.0801 34.0871V34.0871C19.3419 34.1058 19.6046 34.0675 19.8501 33.9748C20.0956 33.8821 20.3181 33.7372 20.5021 33.5501L20.5321 33.4991V33.4901C21.5801 31.6031 18.3261 28.4241 15.9601 28.2731C15.9121 28.2731 15.8651 28.2731 15.8171 28.2671C15.7511 28.2671 15.6851 28.2671 15.6171 28.2671" fill="#E4BF75"/>
<path d="M5.51598 51.8291C4.93008 51.8037 4.3468 51.9207 3.81603 52.1701L3.80199 52.1751C3.79588 52.1791 3.78955 52.1828 3.78301 52.1861C3.499 52.3142 3.25639 52.519 3.08238 52.7774C2.90838 53.0359 2.80989 53.3378 2.79802 53.6491C2.78302 54.6751 3.75903 55.8441 5.67003 56.3621C6.19975 56.4986 6.74401 56.5704 7.291 56.5761V56.5761C8.609 56.5911 9.96199 56.2261 10.336 55.1671L10.342 55.1491V55.1231C10.575 53.3231 7.79698 51.8681 5.54198 51.8291H5.51598Z" fill="url(#paint0_linear)"/>
<path d="M40.5398 70.2423C39.9382 70.3415 39.3823 70.6251 38.949 71.054C38.5156 71.4829 38.2262 72.0358 38.1208 72.6363C38.1185 72.7756 38.1354 72.9146 38.1708 73.0493C38.3562 73.5032 38.6835 73.8849 39.1039 74.1373C39.5243 74.3896 40.015 74.4991 40.5028 74.4493C40.8806 74.4528 41.2571 74.4043 41.6218 74.3053C42.2233 74.2063 42.7791 73.9229 43.2125 73.4942C43.6458 73.0655 43.9353 72.5127 44.0408 71.9123C44.0432 71.7733 44.0264 71.6347 43.9908 71.5003C43.8053 71.046 43.4777 70.6641 43.0569 70.4117C42.6361 70.1593 42.1449 70.0501 41.6568 70.1003C41.2797 70.0974 40.9039 70.1459 40.5398 70.2443" fill="#EA4738"/>
<path d="M38.695 22.3592C38.5011 22.5035 38.3459 22.6935 38.2432 22.9122C38.1404 23.131 38.0933 23.3718 38.106 23.6132C38.1165 24.2265 38.3094 24.8228 38.6601 25.3262C38.8741 25.687 39.1694 25.993 39.5225 26.2195C39.8756 26.4461 40.2768 26.587 40.6941 26.6312C40.9492 26.6397 41.2008 26.5699 41.4151 26.4312C41.6091 26.2865 41.7644 26.0962 41.8671 25.8771C41.9699 25.6579 42.0169 25.4168 42.004 25.1752C41.9933 24.5622 41.8004 23.9662 41.45 23.4632C41.2359 23.1031 40.9405 22.798 40.5875 22.5723C40.2346 22.3466 39.8337 22.2065 39.417 22.1632C39.161 22.1555 38.9088 22.2271 38.695 22.3682" fill="#FFC557"/>
<path d="M96.2591 23.1966C96.453 23.3409 96.6082 23.5309 96.7109 23.7496C96.8137 23.9684 96.8608 24.2092 96.8481 24.4506C96.8376 25.0639 96.6447 25.6602 96.294 26.1636C96.08 26.5244 95.7848 26.8304 95.4316 27.0569C95.0785 27.2835 94.6773 27.4244 94.2601 27.4686C94.0049 27.4771 93.7533 27.4073 93.539 27.2686C93.345 27.1239 93.1897 26.9336 93.087 26.7145C92.9842 26.4953 92.9372 26.2542 92.9501 26.0126C92.9608 25.3996 93.1537 24.8036 93.5041 24.3006C93.7182 23.9405 94.0136 23.6354 94.3666 23.4097C94.7195 23.184 95.1204 23.0439 95.5371 23.0006C95.7931 22.9929 96.0453 23.0645 96.2591 23.2056" fill="#FFC557"/>
<path d="M38.1139 98.8723C37.7335 99.3896 37.5162 100.009 37.4899 100.65C37.4707 100.897 37.5126 101.145 37.6118 101.371C37.7111 101.598 37.8646 101.797 38.0589 101.95C38.2726 102.097 38.5264 102.175 38.7859 102.173C39.2222 102.136 39.6438 101.998 40.017 101.769C40.3902 101.54 40.7045 101.227 40.9349 100.854C41.315 100.337 41.5323 99.7178 41.5589 99.0763C41.5789 98.8296 41.5374 98.5817 41.4383 98.3549C41.3392 98.1281 41.1855 97.9293 40.9909 97.7763C40.7775 97.6282 40.5237 97.5493 40.2639 97.5503C39.8276 97.5883 39.4061 97.7275 39.0329 97.9568C38.6597 98.1861 38.345 98.4992 38.1139 98.8713" fill="#E71625"/>
<path d="M83.5829 95.425C83.574 95.4971 83.569 95.5695 83.5679 95.642C83.5646 96.104 83.731 96.5512 84.0355 96.8987C84.34 97.2461 84.7615 97.4697 85.22 97.527C85.2902 97.5373 85.361 97.5426 85.4319 97.543C85.8945 97.5474 86.3425 97.3816 86.6908 97.0772C87.0391 96.7728 87.2634 96.351 87.321 95.892C87.3303 95.8204 87.3353 95.7483 87.3359 95.676C87.3409 95.2136 87.1755 94.7655 86.8711 94.4172C86.5668 94.069 86.1449 93.845 85.686 93.788C85.6156 93.7792 85.5448 93.7742 85.4739 93.773C85.011 93.7687 84.5627 93.9345 84.214 94.2391C83.8654 94.5437 83.6408 94.9657 83.5829 95.425" fill="#E71F27"/>
<path d="M82.3037 57.954C82.2931 58.0335 82.2875 58.1137 82.2867 58.194C82.2814 58.7102 82.4663 59.2102 82.8063 59.5987C83.1462 59.9872 83.6173 60.2368 84.1297 60.3C84.2076 60.3107 84.2861 60.316 84.3647 60.316C84.8812 60.3221 85.3819 60.1381 85.7715 59.799C86.1611 59.4599 86.4125 58.9893 86.4777 58.477C86.4867 58.396 86.4927 58.315 86.4937 58.235C86.4978 57.719 86.3124 57.2195 85.9727 56.8312C85.633 56.4428 85.1626 56.1926 84.6507 56.128C84.5697 56.119 84.4897 56.112 84.4107 56.111C83.8943 56.1054 83.394 56.2902 83.0054 56.6302C82.6167 56.9702 82.3669 57.4415 82.3037 57.954" fill="#F16A4B"/>
<path d="M81.717 85.4771C81.6777 85.4751 81.6383 85.4751 81.5989 85.4771C81.3413 85.5024 81.102 85.6217 80.9268 85.8122C80.7515 86.0028 80.6527 86.2512 80.649 86.5101C80.6485 86.5508 80.6505 86.5916 80.655 86.6321C80.6811 86.8891 80.8006 87.1277 80.9907 87.3026C81.1809 87.4774 81.4286 87.5765 81.687 87.5811H81.694C81.729 87.5811 81.765 87.5811 81.802 87.5811H81.8099C82.0671 87.5549 82.3058 87.435 82.4804 87.2444C82.655 87.0537 82.7534 86.8056 82.757 86.5471C82.7594 86.5071 82.7594 86.467 82.757 86.4271C82.757 86.4221 82.757 86.4181 82.757 86.4121C82.7557 86.3959 82.7533 86.3799 82.75 86.3641C82.7111 86.1203 82.5876 85.8979 82.401 85.7362C82.2144 85.5745 81.9769 85.4838 81.73 85.4801L81.717 85.4771Z" fill="#E92D2C"/>
<path d="M95.5269 54.8423C95.4889 54.8403 95.4509 54.8403 95.4129 54.8423C95.1552 54.8688 94.9162 54.9891 94.7414 55.1803C94.5666 55.3715 94.4682 55.6203 94.4649 55.8793C94.4645 55.92 94.4664 55.9608 94.4709 56.0013C94.4967 56.259 94.6167 56.4981 94.8079 56.6728C94.999 56.8476 95.2479 56.9456 95.5069 56.9483C95.5402 56.9503 95.5736 56.9503 95.6069 56.9483H95.6249C95.8838 56.9217 96.1239 56.8007 96.2991 56.6083C96.4744 56.4158 96.5726 56.1656 96.5749 55.9053C96.5752 55.8672 96.5736 55.8292 96.5699 55.7913C96.5435 55.5343 96.4238 55.2958 96.2334 55.1211C96.043 54.9464 95.7953 54.8476 95.5369 54.8433L95.5269 54.8423Z" fill="#F16D4C"/>
<path d="M47.3948 17.4529C47.3898 17.4939 47.3868 17.5329 47.3858 17.5729C47.3833 17.8319 47.4762 18.0828 47.6468 18.2777C47.8174 18.4726 48.0537 18.598 48.3108 18.6299C48.3508 18.6349 48.3917 18.6379 48.4317 18.6389C48.6906 18.6406 48.9411 18.5473 49.1358 18.3766C49.3304 18.206 49.4557 17.9698 49.4878 17.7129C49.4929 17.6731 49.4955 17.633 49.4958 17.5929C49.4989 17.3341 49.4062 17.0832 49.2357 16.8885C49.0652 16.6938 48.8287 16.5689 48.5718 16.5379C48.5317 16.5321 48.4913 16.5288 48.4508 16.5279C48.1918 16.5252 47.9409 16.6181 47.7461 16.7887C47.5513 16.9594 47.4262 17.1958 47.3948 17.4529Z" fill="#FFC657"/>
<path d="M91.8948 38.1999C91.8886 38.2396 91.8853 38.2797 91.8848 38.3199C91.8827 38.5792 91.9759 38.8302 92.1466 39.0254C92.3172 39.2206 92.5536 39.3464 92.8108 39.3789C92.8498 39.3789 92.8908 39.3849 92.9298 39.3859C93.1885 39.388 93.4391 39.295 93.6339 39.1247C93.8287 38.9544 93.9542 38.7186 93.9868 38.4619C93.9919 38.4225 93.9946 38.3827 93.9948 38.3429C93.9978 38.084 93.9056 37.833 93.7356 37.6378C93.5656 37.4425 93.3296 37.3165 93.0728 37.2839C93.0328 37.2839 92.9908 37.2779 92.9518 37.2769C92.693 37.2742 92.4423 37.3667 92.2473 37.5369C92.0524 37.7072 91.927 37.9431 91.8948 38.1999" fill="#FB9D5C"/>
<path d="M28.8948 58.478C28.8882 58.5247 28.8845 58.5718 28.8838 58.619C28.8778 59.503 30.0168 60.367 31.5268 60.591C31.744 60.6242 31.9632 60.6419 32.1828 60.644C33.4828 60.66 34.5358 60.129 34.6538 59.325C34.6604 59.2816 34.6642 59.2379 34.6648 59.194C34.6808 58.307 33.5398 57.434 32.0238 57.21C31.8072 57.1785 31.5887 57.1615 31.3698 57.159C30.0698 57.144 29.0138 57.673 28.8948 58.478Z" fill="#ED6548"/>
<path d="M56.6178 55.462C56.578 55.4615 56.5383 55.4635 56.4988 55.468C56.2417 55.4942 56.0031 55.6138 55.8284 55.8042C55.6536 55.9946 55.5548 56.2426 55.5508 56.501C55.5508 56.542 55.5508 56.583 55.5508 56.624C55.5772 56.8811 55.6968 57.1197 55.8871 57.2945C56.0775 57.4694 56.3254 57.5685 56.5838 57.573H56.5898C56.6228 57.573 56.6558 57.573 56.6898 57.573H56.7088C56.9675 57.5462 57.2073 57.425 57.3824 57.2326C57.5574 57.0402 57.6555 56.7901 57.6578 56.53C57.6578 56.493 57.6578 56.454 57.6578 56.416C57.6578 56.396 57.6528 56.375 57.6488 56.355C57.6092 56.1115 57.4858 55.8895 57.2999 55.7274C57.114 55.5652 56.8774 55.4731 56.6308 55.467L56.6178 55.462Z" fill="#F16B4B"/>
<path d="M105.989 75.0922C105.955 75.193 105.937 75.2987 105.937 75.4052C105.93 76.2402 106.903 77.2052 108.299 77.6722C108.776 77.8364 109.275 77.9251 109.779 77.9352C110.736 77.9472 111.494 77.6162 111.696 77.0132C111.73 76.9126 111.748 76.8073 111.749 76.7012C111.756 75.8662 110.786 74.9062 109.388 74.4332C108.911 74.2698 108.411 74.1811 107.907 74.1702C106.951 74.1592 106.194 74.4892 105.989 75.0922" fill="#EA4437"/>
<path d="M107.284 54.9393C106.78 54.9715 106.302 55.175 105.93 55.5161C105.558 55.8571 105.314 56.3152 105.238 56.8143C105.237 56.8887 105.243 56.963 105.255 57.0363C105.383 57.4694 105.658 57.8443 106.032 58.0967C106.407 58.3491 106.857 58.4632 107.307 58.4193C107.487 58.4217 107.668 58.4083 107.846 58.3793C108.35 58.3466 108.829 58.1424 109.201 57.8007C109.574 57.459 109.819 57.0002 109.895 56.5003C109.895 56.4256 109.889 56.351 109.877 56.2773C109.749 55.8445 109.475 55.4697 109.1 55.2174C108.726 54.965 108.276 54.8508 107.827 54.8943C107.645 54.8927 107.464 54.9068 107.285 54.9363" fill="#F16A4A"/>
<path d="M53.0697 84.6851C53.0317 84.6851 52.9967 84.6851 52.9597 84.6851H52.9517C52.6941 84.7115 52.4551 84.8316 52.2801 85.0226C52.1052 85.2135 52.0065 85.4621 52.0027 85.7211C52.0017 85.7611 52.0038 85.8013 52.0087 85.8411C52.0342 86.0983 52.1533 86.3372 52.3434 86.5123C52.5335 86.6875 52.7813 86.7867 53.0397 86.7911H53.0467C53.0847 86.7911 53.1247 86.7911 53.1637 86.7911C53.4207 86.7642 53.6591 86.6443 53.8337 86.4538C54.0084 86.2633 54.1072 86.0155 54.1117 85.7571C54.113 85.7163 54.1114 85.6755 54.1067 85.6351C54.1055 85.6163 54.1032 85.5976 54.0997 85.5791C54.0616 85.3346 53.939 85.1112 53.7532 84.9478C53.5673 84.7845 53.33 84.6915 53.0827 84.6851H53.0697Z" fill="#E92E2D"/>
<path d="M45.5396 59.8151C45.5279 59.9076 45.5215 60.0008 45.5206 60.0941C45.5153 60.6946 45.7309 61.2762 46.1264 61.7281C46.5219 62.18 47.0697 62.4708 47.6656 62.5451C47.7571 62.5577 47.8493 62.5643 47.9416 62.5651C48.5427 62.5711 49.125 62.3557 49.5774 61.9599C50.0298 61.5641 50.3207 61.0156 50.3946 60.4191C50.4065 60.3259 50.4128 60.2321 50.4136 60.1381C50.4185 59.5136 50.1845 58.9108 49.7595 58.4531C49.3345 57.9954 48.7507 57.7175 48.1275 57.6763C47.5043 57.635 46.8889 57.8335 46.4073 58.2311C45.9256 58.6287 45.6142 59.1954 45.5367 59.8151" fill="#F06447"/>
<path d="M27.546 81.669C27.514 81.669 27.48 81.669 27.446 81.669C27.44 81.669 27.434 81.669 27.428 81.669C27.1709 81.6956 26.9324 81.8155 26.7577 82.006C26.583 82.1966 26.4843 82.4445 26.48 82.703C26.4797 82.743 26.4814 82.7831 26.485 82.823C26.5109 83.0797 26.6298 83.3181 26.8194 83.4931C27.009 83.6681 27.2561 83.7677 27.514 83.773H27.522C27.5613 83.7754 27.6007 83.7754 27.64 83.773C27.8971 83.7477 28.1359 83.6286 28.3108 83.4384C28.4856 83.2482 28.5843 83.0003 28.588 82.742C28.5888 82.7012 28.5871 82.6605 28.583 82.62V82.603C28.583 82.591 28.583 82.581 28.583 82.568C28.5465 82.3219 28.4242 82.0966 28.2378 81.9319C28.0513 81.7673 27.8127 81.6738 27.564 81.668L27.546 81.669Z" fill="#E8322F"/>
<path d="M31.846 96.047C31.8074 96.0445 31.7687 96.0445 31.73 96.047C31.4727 96.0731 31.2339 96.1927 31.0588 96.3831C30.8837 96.5734 30.7846 96.8214 30.78 97.08C30.7791 97.1207 30.7808 97.1615 30.785 97.202C30.7856 97.207 30.7856 97.212 30.785 97.217L30.791 97.258C30.8293 97.5035 30.9528 97.7276 31.1399 97.8911C31.327 98.0546 31.5656 98.1469 31.814 98.152H31.821C31.8608 98.1525 31.9005 98.1505 31.94 98.146C32.1975 98.12 32.4365 98.0001 32.6113 97.8092C32.7861 97.6184 32.8846 97.3698 32.888 97.111C32.8893 97.0709 32.8876 97.0308 32.883 96.991C32.8816 96.9745 32.8793 96.9582 32.876 96.942V96.942C32.8388 96.6939 32.7145 96.4672 32.5254 96.3023C32.3364 96.1374 32.0948 96.0451 31.844 96.042L31.846 96.047Z" fill="#E71C27"/>
<path d="M100.533 48.4771H100.528C100.3 48.4761 100.078 48.5489 99.8946 48.6847C99.7115 48.8204 99.5772 49.0117 99.5118 49.2301C99.5118 49.2451 99.5048 49.2581 99.4998 49.2721V49.2871C99.4806 49.3626 99.4705 49.4401 99.4698 49.5181C99.4671 49.7577 99.5458 49.9911 99.6932 50.1801C99.8405 50.369 100.048 50.5023 100.281 50.5581C100.357 50.5767 100.435 50.5861 100.513 50.5861H100.521C100.759 50.5879 100.99 50.5088 101.177 50.3618C101.365 50.2149 101.496 50.0087 101.551 49.7771C101.569 49.7013 101.579 49.6239 101.58 49.5461C101.582 49.3066 101.504 49.0733 101.356 48.8845C101.209 48.6957 101.002 48.5626 100.769 48.5071C100.764 48.506 100.759 48.506 100.754 48.5071H100.745C100.676 48.4911 100.606 48.483 100.536 48.4831L100.533 48.4771Z" fill="#F17C52"/>
<path d="M37.4159 33.562C37.1874 33.5603 36.9645 33.6327 36.7808 33.7685C36.597 33.9043 36.4623 34.0961 36.3969 34.315C36.3969 34.322 36.3919 34.329 36.3899 34.337V34.353V34.371C36.3716 34.4471 36.3615 34.5249 36.3599 34.603C36.357 34.8826 36.4648 35.152 36.6598 35.3523C36.8549 35.5526 37.1213 35.6676 37.4009 35.672H37.4129C37.6442 35.6722 37.8691 35.5963 38.053 35.4561C38.237 35.3159 38.3697 35.1191 38.4309 34.8961C38.4343 34.8849 38.437 34.8735 38.4389 34.862C38.4581 34.7842 38.4682 34.7043 38.4689 34.624C38.4705 34.3857 38.3915 34.1538 38.2446 33.9661C38.0977 33.7783 37.8917 33.6458 37.6599 33.59H37.6449C37.5739 33.5744 37.5016 33.566 37.4289 33.565L37.4159 33.562Z" fill="#FEA85D"/>
<path d="M108.344 101.779C108.213 101.983 108.144 102.22 108.144 102.462C108.19 102.918 108.346 103.356 108.597 103.739C108.849 104.122 109.189 104.439 109.589 104.662C110.113 105.014 110.725 105.212 111.355 105.236C111.618 105.259 111.882 105.215 112.123 105.107C112.364 104.999 112.573 104.831 112.731 104.619C112.858 104.415 112.925 104.18 112.925 103.939C112.879 103.483 112.724 103.044 112.472 102.66C112.221 102.276 111.881 101.959 111.481 101.734C110.957 101.383 110.346 101.184 109.716 101.16C109.453 101.137 109.189 101.182 108.948 101.29C108.708 101.398 108.499 101.566 108.342 101.778" fill="#E51325"/>
<path d="M115.895 68.662C115.888 68.7164 115.885 68.7712 115.884 68.826C115.877 69.94 117.184 70.98 118.913 71.195C119.102 71.2187 119.293 71.2317 119.484 71.234C121.047 71.253 122.33 70.534 122.462 69.486C122.469 69.436 122.473 69.3855 122.473 69.335C122.49 68.215 121.178 67.163 119.441 66.95C119.251 66.9266 119.06 66.9139 118.869 66.912C117.306 66.893 116.025 67.612 115.895 68.662" fill="#EB503D"/>
<path d="M61.9141 122.133C61.8947 122.286 61.884 122.441 61.8821 122.595C61.8661 123.995 62.5941 125.164 63.6321 125.295C63.6901 125.301 63.7481 125.304 63.8041 125.305C64.8891 125.318 65.8871 124.173 66.0781 122.653C66.0967 122.5 66.1071 122.345 66.1091 122.19C66.1241 120.79 65.3951 119.621 64.3581 119.49C64.3008 119.482 64.243 119.477 64.1851 119.476C63.0991 119.463 62.1021 120.609 61.9141 122.13" fill="#E50021"/>
<path d="M16.711 82.1209C16.053 82.2588 15.4523 82.5929 14.9881 83.0792C14.5239 83.5655 14.2181 84.1812 14.111 84.8449C14.1086 85.0204 14.1336 85.1951 14.185 85.3629C14.3942 85.8421 14.7498 86.2427 15.2007 86.5075C15.6515 86.7723 16.1746 86.8876 16.695 86.8369C17.1696 86.84 17.6418 86.7699 18.095 86.6289C18.753 86.4909 19.3536 86.1567 19.8178 85.6704C20.2819 85.1841 20.5878 84.5686 20.695 83.9049C20.6979 83.729 20.6726 83.5538 20.62 83.3859C20.4106 82.9068 20.0552 82.5061 19.6043 82.2411C19.1535 81.9762 18.6305 81.8606 18.11 81.9109C17.6354 81.9091 17.1632 81.9799 16.71 82.1209" fill="#E92E2D"/>
<path d="M13.1108 56.43C13.102 56.4946 13.0976 56.5598 13.0978 56.625C13.0931 57.0429 13.2426 57.4479 13.5176 57.7626C13.7927 58.0773 14.174 58.2796 14.5887 58.331C14.6525 58.3384 14.7166 58.3424 14.7807 58.343C15.1993 58.3483 15.6052 58.1991 15.9205 57.9238C16.2359 57.6485 16.4385 57.2665 16.4897 56.851C16.4976 56.7863 16.5019 56.7212 16.5027 56.656C16.5059 56.2389 16.3556 55.8353 16.0805 55.5218C15.8054 55.2084 15.4247 55.007 15.0108 54.956C14.9469 54.9467 14.8823 54.9423 14.8177 54.943C14.3996 54.9381 13.9945 55.0875 13.6795 55.3625C13.3646 55.6376 13.1621 56.019 13.1108 56.434" fill="#F16A4B"/>
<path d="M43.562 30.6C43.5532 30.6643 43.5489 30.7291 43.549 30.794C43.5438 31.2124 43.6932 31.618 43.9685 31.9331C44.2438 32.2482 44.6257 32.4508 45.041 32.502C45.1049 32.5104 45.1694 32.5144 45.234 32.514C45.6517 32.5186 46.0566 32.3693 46.3713 32.0945C46.686 31.8196 46.8884 31.4386 46.9399 31.024C46.9487 30.9576 46.9534 30.8908 46.954 30.824C46.9571 30.4068 46.8066 30.003 46.5313 29.6895C46.256 29.376 45.875 29.1747 45.4609 29.124C45.3947 29.114 45.3279 29.1087 45.261 29.108C44.8441 29.1048 44.4406 29.2549 44.1271 29.5298C43.8137 29.8047 43.6122 30.1852 43.561 30.599" fill="#FFB45B"/>
<path d="M91.3921 31.4374C91.4009 31.5017 91.4052 31.5665 91.4051 31.6314C91.4103 32.0498 91.2609 32.4554 90.9856 32.7705C90.7103 33.0857 90.3284 33.2882 89.9131 33.3394C89.8492 33.3478 89.7847 33.3518 89.7201 33.3514C89.3024 33.356 88.8975 33.2067 88.5828 32.9319C88.2681 32.657 88.0657 32.276 88.0142 31.8614C88.0054 31.795 88.0007 31.7282 88.0001 31.6614C87.997 31.2442 88.1475 30.8404 88.4228 30.5269C88.6981 30.2134 89.0791 30.0121 89.4932 29.9614C89.5594 29.9514 89.6262 29.9461 89.6931 29.9454C90.11 29.9422 90.5135 30.0923 90.827 30.3672C91.1404 30.6421 91.3419 31.0226 91.3931 31.4364" fill="#FFB45B"/>
<path d="M83.7999 36.5201C83.761 36.5176 83.7219 36.5176 83.6829 36.5201C83.4257 36.5467 83.1871 36.6666 83.0123 36.8571C82.8374 37.0476 82.7384 37.2956 82.7339 37.5541C82.7339 37.5941 82.7339 37.6341 82.7389 37.6751C82.7649 37.9316 82.8838 38.1697 83.0731 38.3447C83.2624 38.5196 83.5092 38.6194 83.7669 38.6251H83.7749C83.8147 38.6256 83.8544 38.6236 83.8939 38.6191C84.1514 38.594 84.3905 38.4749 84.5656 38.2845C84.7407 38.0941 84.8394 37.8458 84.8429 37.5871C84.8454 37.5465 84.8454 37.5057 84.8429 37.4651C84.8429 37.4551 84.8429 37.4441 84.8429 37.4331V37.4031C84.8036 37.16 84.6805 36.9383 84.4949 36.7763C84.3094 36.6143 84.0731 36.5223 83.8269 36.5161L83.7999 36.5201Z" fill="#FB9E5C"/>
<path d="M105.555 26.7871C105.515 26.7845 105.476 26.7845 105.436 26.7871C105.179 26.813 104.94 26.9328 104.765 27.1234C104.59 27.3141 104.492 27.5624 104.488 27.821C104.487 27.8618 104.489 27.9025 104.493 27.943C104.493 27.95 104.493 27.954 104.493 27.959C104.493 27.964 104.493 27.991 104.501 28.006C104.54 28.2494 104.663 28.4714 104.849 28.6329C105.035 28.7944 105.273 28.8851 105.519 28.889H105.525C105.565 28.8915 105.606 28.8915 105.646 28.889C105.903 28.8639 106.143 28.7446 106.318 28.554C106.493 28.3633 106.591 28.1148 106.594 27.8561C106.594 27.8161 106.594 27.776 106.594 27.734C106.568 27.4775 106.449 27.2395 106.259 27.065C106.069 26.8905 105.822 26.7916 105.564 26.7871H105.555Z" fill="#FFBF57"/>
<path d="M99.5887 112.434C99.3878 112.84 99.3565 113.309 99.5016 113.738C99.6466 114.168 99.9562 114.521 100.362 114.722C100.768 114.923 101.238 114.955 101.667 114.81C102.096 114.665 102.45 114.355 102.651 113.949C102.851 113.542 102.882 113.073 102.737 112.644C102.591 112.214 102.282 111.86 101.876 111.659C101.47 111.459 101.001 111.428 100.572 111.573C100.143 111.719 99.7895 112.028 99.5887 112.434" fill="#E50021"/>
<path d="M22.9691 103.144C22.9624 103.197 22.9588 103.25 22.9581 103.303C22.9548 103.644 23.0774 103.975 23.3024 104.232C23.5274 104.489 23.8391 104.654 24.1781 104.696C24.2311 104.702 24.2851 104.706 24.3371 104.707C24.6785 104.71 25.0093 104.588 25.2665 104.364C25.5238 104.139 25.6894 103.828 25.7321 103.489V103.476V103.19C25.7034 102.874 25.5673 102.577 25.3464 102.349C25.1256 102.121 24.8332 101.975 24.5181 101.936C24.4657 101.929 24.413 101.925 24.3601 101.924C24.0175 101.919 23.6853 102.041 23.4269 102.266C23.1686 102.491 23.0024 102.804 22.9601 103.144" fill="#E71625"/>
<path d="M33.7749 109.966C33.2951 110.672 33.0146 111.495 32.9629 112.347C32.9365 112.578 32.9697 112.811 33.0591 113.025C33.1486 113.239 33.2913 113.427 33.4739 113.57C33.6324 113.67 33.8166 113.722 34.0039 113.719C34.5588 113.618 35.083 113.392 35.5364 113.056C35.9898 112.721 36.3601 112.286 36.6189 111.785C37.099 111.078 37.3796 110.255 37.4309 109.402C37.4569 109.172 37.4234 108.939 37.3338 108.725C37.2442 108.511 37.1014 108.323 36.9189 108.18C36.7597 108.083 36.5765 108.032 36.3899 108.033C35.8351 108.134 35.3108 108.36 34.8574 108.695C34.404 109.03 34.0337 109.465 33.7749 109.966" fill="#E71625"/>
<path d="M12.1699 72.273C12.1608 72.3373 12.156 72.4021 12.1558 72.467C12.1519 72.8809 12.3004 73.2817 12.573 73.5932C12.8455 73.9047 13.2231 74.105 13.6339 74.156C13.6968 74.1652 13.7603 74.1698 13.8239 74.17C14.2387 74.1744 14.6407 74.026 14.9531 73.7531C15.2655 73.4801 15.4665 73.1017 15.5178 72.69C15.5261 72.626 15.5305 72.5616 15.5308 72.497C15.5345 72.0832 15.386 71.6825 15.1135 71.3711C14.841 71.0597 14.4635 70.8593 14.0529 70.808C13.9895 70.7999 13.9257 70.7953 13.8618 70.794C13.4474 70.7897 13.0458 70.938 12.7337 71.2108C12.4216 71.4836 12.221 71.8617 12.1699 72.273" fill="#EA4839"/>
<path d="M27.5331 30.4801C27.5249 30.5444 27.5205 30.6092 27.5201 30.6741C27.5159 31.0882 27.6642 31.4895 27.9368 31.8013C28.2094 32.1131 28.5872 32.3138 28.9981 32.3651C29.0615 32.3729 29.1253 32.3772 29.1891 32.3781C29.6038 32.383 30.0057 32.2348 30.3181 31.9619C30.6304 31.6891 30.8312 31.3107 30.8821 30.8991C30.8899 30.835 30.8943 30.7706 30.8951 30.7061C30.8995 30.292 30.7512 29.8908 30.4785 29.5791C30.2059 29.2674 29.8281 29.0669 29.4171 29.0161C29.3535 29.0068 29.2894 29.0014 29.2251 29.0001C28.811 28.9957 28.4096 29.1437 28.0976 29.4161C27.7855 29.6885 27.5846 30.0661 27.5331 30.4771" fill="#FFB05E"/>
<path d="M73.6047 120.607C72.7737 120.679 72.1727 121.713 72.1547 122.999C72.1526 123.154 72.1589 123.308 72.1737 123.462C72.3037 124.898 73.1076 126.005 73.9946 126.016C74.0306 126.016 74.0677 126.016 74.1047 126.016C74.9357 125.939 75.5387 124.899 75.5537 123.604C75.5537 123.457 75.5476 123.304 75.5336 123.156C75.4026 121.725 74.6017 120.615 73.7177 120.604C73.6799 120.604 73.6422 120.606 73.6047 120.611" fill="#E50021"/>
<path d="M121.374 76.2003C121.365 76.2643 121.361 76.3287 121.36 76.3933C121.356 76.8075 121.505 77.2087 121.777 77.5205C122.05 77.8324 122.428 78.033 122.839 78.0843C122.902 78.0925 122.965 78.0969 123.028 78.0973C123.443 78.1017 123.844 77.9534 124.157 77.6807C124.469 77.4079 124.67 77.0298 124.722 76.6183C124.73 76.5543 124.734 76.4898 124.735 76.4253C124.738 76.0114 124.59 75.6107 124.317 75.2992C124.045 74.9876 123.668 74.787 123.257 74.7353C123.194 74.7275 123.13 74.7232 123.067 74.7223C122.652 74.7174 122.251 74.8654 121.938 75.1381C121.626 75.4107 121.425 75.7889 121.374 76.2003" fill="#EB4135"/>
<path d="M114.437 41.5183C113.872 41.7055 113.372 42.0473 112.992 42.5048C112.613 42.9623 112.369 43.5172 112.289 44.1063C112.285 44.3278 112.327 44.5477 112.412 44.7523C112.611 45.1317 112.917 45.4444 113.291 45.6517C113.666 45.8589 114.094 45.9516 114.521 45.9183C115.075 45.9194 115.624 45.8078 116.134 45.5903C116.699 45.4037 117.2 45.0618 117.579 44.6037C117.959 44.1457 118.202 43.59 118.281 43.0003C118.284 42.7791 118.242 42.5597 118.157 42.3553C117.958 41.9758 117.653 41.663 117.278 41.4557C116.903 41.2484 116.476 41.1558 116.049 41.1893C115.495 41.188 114.947 41.2989 114.437 41.5153" fill="#F8915A"/>
<path d="M115.9 89.88C115.858 89.9825 115.837 90.0922 115.837 90.203C115.829 90.91 116.616 91.765 117.778 92.244C118.259 92.4485 118.775 92.5611 119.298 92.576C119.585 92.6201 119.878 92.5787 120.141 92.4568C120.405 92.335 120.626 92.1381 120.778 91.891C120.821 91.7883 120.842 91.6781 120.842 91.567C120.848 90.858 120.063 90.007 118.9 89.525C118.418 89.321 117.903 89.2091 117.38 89.195C117.093 89.1507 116.8 89.1921 116.536 89.314C116.273 89.4358 116.052 89.6327 115.9 89.88" fill="#E6262A"/>
<path d="M97.6671 32.4923C97.2714 32.8124 96.9456 33.2102 96.7098 33.6612C96.474 34.1122 96.3332 34.6067 96.2961 35.1143C96.2799 35.5615 96.4303 35.9987 96.7181 36.3413C96.9008 36.5378 97.1233 36.6929 97.3708 36.7964C97.6182 36.8999 97.885 36.9493 98.1531 36.9413C99.0851 36.9113 99.9749 36.5459 100.659 35.9123C101.055 35.5924 101.381 35.1944 101.616 34.7431C101.852 34.2919 101.992 33.797 102.028 33.2893C102.046 32.8425 101.896 32.4051 101.606 32.0643C101.424 31.8675 101.201 31.7121 100.954 31.6086C100.706 31.5051 100.439 31.4559 100.171 31.4643C99.2409 31.4951 98.3531 31.8609 97.6711 32.4943" fill="#FFAD5D"/>
<path d="M15.0481 50.009C15.0431 50.054 15.0411 50.098 15.0401 50.141C15.0374 50.4227 15.1383 50.6956 15.3235 50.9078C15.5088 51.12 15.7656 51.2567 16.0451 51.292C16.0891 51.292 16.1331 51.301 16.1761 51.302C16.4579 51.3045 16.7307 51.2034 16.9429 51.0179C17.1551 50.8325 17.2918 50.5756 17.3271 50.296C17.333 50.2522 17.336 50.2081 17.3361 50.164C17.3387 49.8819 17.2376 49.6086 17.0519 49.3962C16.8663 49.1838 16.609 49.0471 16.3291 49.012C16.2866 49.0065 16.2439 49.0035 16.2011 49.003C15.919 49 15.6456 49.1009 15.433 49.2864C15.2204 49.4719 15.0834 49.7291 15.0481 50.009" fill="#F47B53"/>
<path d="M92.0111 117.624C92.0046 117.679 92.0008 117.734 92.0001 117.789C91.9964 118.141 92.1222 118.481 92.3534 118.746C92.5847 119.011 92.9053 119.182 93.2541 119.225C93.3092 119.232 93.3647 119.235 93.4201 119.235C93.7722 119.239 94.1132 119.113 94.3783 118.882C94.6434 118.65 94.8138 118.329 94.8571 117.979C94.8621 117.929 94.8671 117.879 94.8681 117.824C94.8729 117.471 94.7473 117.128 94.5154 116.862C94.2835 116.595 93.9616 116.423 93.6111 116.379C93.5561 116.373 93.5021 116.369 93.4491 116.368C93.097 116.365 92.7559 116.491 92.4907 116.722C92.2255 116.954 92.0548 117.275 92.0111 117.624" fill="#E50021"/>
<path d="M95.254 67.9273C95.2136 67.9267 95.1731 67.9291 95.133 67.9343C94.8752 67.9595 94.6358 68.0789 94.4606 68.2697C94.2855 68.4606 94.187 68.7093 94.184 68.9683C94.1827 69.0084 94.1844 69.0485 94.189 69.0883C94.2145 69.3435 94.3321 69.5807 94.5198 69.7554C94.7076 69.9301 94.9527 70.0303 95.209 70.0373H95.222C95.262 70.0373 95.302 70.0373 95.343 70.0323C95.6007 70.0073 95.8403 69.8883 96.0158 69.6979C96.1914 69.5076 96.2908 69.2593 96.295 69.0003C96.2958 68.9596 96.2942 68.9189 96.29 68.8783C96.2649 68.6219 96.1465 68.3835 95.9574 68.2085C95.7684 68.0334 95.5217 67.9337 95.264 67.9283L95.254 67.9273Z" fill="#EB503D"/>
<path d="M86.0891 76.1831C86 76.342 85.9529 76.521 85.9521 76.7031C86.0434 77.2365 86.2634 77.7395 86.5931 78.1685C86.9228 78.5976 87.3522 78.9397 87.8441 79.1651C88.4739 79.5434 89.1882 79.7586 89.9221 79.7911C90.1852 79.8231 90.452 79.7844 90.6951 79.6789C90.9382 79.5735 91.1488 79.4051 91.3051 79.1911C91.3947 79.032 91.4422 78.8527 91.4431 78.6701C91.3521 78.1364 91.1321 77.6331 90.8022 77.2038C90.4723 76.7746 90.0425 76.4324 89.5502 76.2071C88.9198 75.8292 88.2054 75.6138 87.4711 75.5801C87.2076 75.549 86.9405 75.5888 86.6975 75.6955C86.4545 75.8022 86.2445 75.972 86.0891 76.1871" fill="#E93C33"/>
<path d="M117.023 60.5152C117.015 60.5793 117.011 60.6437 117.01 60.7082C117.006 61.1226 117.155 61.524 117.428 61.8357C117.701 62.1474 118.08 62.3476 118.491 62.3982C118.555 62.4068 118.619 62.4115 118.683 62.4122C119.096 62.4162 119.497 62.2682 119.808 61.9963C120.12 61.7244 120.321 61.3475 120.373 60.9372C120.381 60.8725 120.386 60.8074 120.387 60.7422C120.39 60.3279 120.241 59.9268 119.968 59.6149C119.696 59.303 119.318 59.1021 118.907 59.0502C118.844 59.0419 118.78 59.0376 118.717 59.0372C118.302 59.0327 117.901 59.1809 117.588 59.4534C117.276 59.726 117.075 60.1039 117.023 60.5152" fill="#F06548"/>
<path d="M99.0098 87.9213C98.9708 87.9188 98.9317 87.9188 98.8928 87.9213C98.6341 87.9472 98.3942 88.0679 98.2192 88.2601C98.0442 88.4523 97.9464 88.7024 97.9448 88.9623C97.9435 89.0007 97.9451 89.0392 97.9498 89.0773C97.9753 89.3348 98.0948 89.5738 98.2853 89.7489C98.4758 89.9239 98.7241 90.0227 98.9828 90.0263H98.9878C99.0198 90.0263 99.0538 90.0263 99.0878 90.0263H99.1058C99.3632 90.0001 99.6021 89.8802 99.7769 89.6893C99.9517 89.4985 100.05 89.2501 100.054 88.9913C100.054 88.9503 100.054 88.9113 100.049 88.8693C100.049 88.8603 100.049 88.8493 100.049 88.8383V88.8063C100.009 88.5632 99.8859 88.3416 99.7001 88.1798C99.5144 88.018 99.278 87.9262 99.0318 87.9203L99.0098 87.9213Z" fill="#E8282B"/>
<path d="M94.5157 98.4192C94.2423 98.7457 94.0951 99.1594 94.1007 99.5852C94.1292 100.104 94.2672 100.611 94.5056 101.073C94.744 101.534 95.0773 101.94 95.4837 102.264C96.1534 102.874 97.014 103.233 97.9187 103.28C98.1992 103.297 98.4799 103.251 98.7406 103.146C99.0013 103.041 99.2356 102.88 99.4267 102.674C99.7002 102.347 99.8471 101.932 99.8407 101.505C99.812 100.987 99.6741 100.48 99.4359 100.018C99.1978 99.557 98.8648 99.151 98.4588 98.8272C97.7889 98.2174 96.9284 97.8587 96.0238 97.8122C95.7432 97.7962 95.4626 97.8423 95.2019 97.9472C94.9413 98.0522 94.707 98.2133 94.5157 98.4192" fill="#E71425"/>
<path d="M64.2951 17.5303C64.2124 17.5297 64.1299 17.535 64.048 17.5463H64.03C63.6585 17.6044 63.3196 17.7924 63.0739 18.077C62.8281 18.3617 62.6914 18.7243 62.6881 19.1003C62.6872 19.1881 62.6942 19.2758 62.7091 19.3623V19.3953V19.4033C62.7753 19.7638 62.9642 20.0903 63.2438 20.3273C63.5235 20.5642 63.8766 20.6971 64.2431 20.7033H64.249C64.3253 20.7043 64.4015 20.6993 64.477 20.6883H64.49L64.515 20.6833C64.8861 20.6254 65.2245 20.4377 65.4702 20.1537C65.7159 19.8697 65.853 19.5078 65.857 19.1323C65.8579 19.0447 65.8519 18.957 65.839 18.8703V18.8473L65.8341 18.8203C65.7659 18.4618 65.5764 18.1376 65.2974 17.9024C65.0184 17.6671 64.6669 17.535 64.302 17.5283L64.2951 17.5303Z" fill="#FFC657"/>
<path d="M85.395 21.8121C85.0615 21.8093 84.7356 21.9115 84.4635 22.1043C84.1914 22.2971 83.9869 22.5706 83.879 22.8861C83.8713 22.9064 83.8646 22.9271 83.859 22.9481V22.9591C83.8193 23.0977 83.7985 23.241 83.797 23.3851C83.7932 23.7322 83.9036 24.0708 84.1112 24.3489C84.3189 24.6271 84.6122 24.8292 84.946 24.9241H84.961C85.0913 24.96 85.2258 24.9792 85.361 24.9811H85.367C85.7077 24.985 86.0406 24.8788 86.3161 24.6783C86.5916 24.4777 86.795 24.1936 86.896 23.8681L86.904 23.8461V23.8341C86.9427 23.6957 86.9632 23.5528 86.965 23.4091C86.9682 23.0621 86.8576 22.7236 86.6501 22.4455C86.4425 22.1673 86.1496 21.9649 85.816 21.8691C85.6802 21.8295 85.5395 21.8086 85.398 21.8071L85.395 21.8121Z" fill="#FFC657"/>
<path d="M76.061 11.709C75.6737 11.7065 75.2988 11.8458 75.007 12.1005C74.7153 12.3553 74.5267 12.7079 74.4769 13.092C74.4769 13.119 74.4769 13.146 74.4689 13.175V13.186C74.4653 13.2165 74.4636 13.2473 74.4639 13.278C74.4603 13.6824 74.611 14.073 74.8852 14.3702C75.1594 14.6674 75.5366 14.849 75.9399 14.878C75.9699 14.878 75.9999 14.883 76.0289 14.883H76.036C76.4272 14.8863 76.8059 14.7454 77.0997 14.4871C77.3936 14.2289 77.582 13.8714 77.629 13.483L77.636 13.403C77.636 13.373 77.636 13.342 77.636 13.312C77.6393 12.9074 77.4883 12.5167 77.2137 12.2194C76.9391 11.9222 76.5616 11.7407 76.158 11.712C76.127 11.712 76.097 11.712 76.064 11.712L76.061 11.709Z" fill="#FFC657"/>
<path d="M57.0151 30.7373C56.6446 30.8353 56.3221 31.064 56.1072 31.3813C55.8922 31.6986 55.7993 32.0829 55.8456 32.4633C55.8919 32.8437 56.0743 33.1945 56.3591 33.4509C56.6439 33.7073 57.0119 33.852 57.3951 33.8583C57.537 33.8591 57.6786 33.8416 57.8161 33.8063C58.1522 33.7184 58.4501 33.5227 58.6643 33.2492C58.8786 32.9758 58.9972 32.6396 59.0021 32.2923C59.0036 32.1485 58.9858 32.0052 58.9491 31.8663C58.8975 31.6641 58.8062 31.4742 58.6805 31.3076C58.5548 31.1411 58.3973 31.0012 58.217 30.8961C58.0368 30.7911 57.8373 30.7229 57.6305 30.6956C57.4236 30.6684 57.2134 30.6825 57.0121 30.7373" fill="#FFB05C"/>
<path d="M50.6949 20.7582C50.3237 20.8556 50.0004 21.0842 49.7849 21.4017C49.5694 21.7193 49.4764 22.1042 49.523 22.4851C49.5696 22.866 49.7528 23.2171 50.0386 23.4733C50.3243 23.7294 50.6932 23.8733 51.0769 23.8782C51.2195 23.8803 51.3617 23.8635 51.4999 23.8282C51.8357 23.7407 52.1335 23.5453 52.3476 23.2722C52.5616 22.9991 52.6802 22.6632 52.6849 22.3162C52.6862 22.1726 52.6687 22.0294 52.6329 21.8902C52.5451 21.5542 52.3495 21.2562 52.076 21.0422C51.8025 20.8281 51.4662 20.7097 51.1189 20.7052C50.9758 20.7032 50.8331 20.7211 50.6949 20.7582" fill="#FFC657"/>
<path d="M54.5999 13.9302C54.2277 14.0269 53.9032 14.2554 53.6868 14.5732C53.4704 14.8911 53.3767 15.2768 53.4233 15.6585C53.4699 16.0403 53.6535 16.3921 53.94 16.6486C54.2265 16.9052 54.5964 17.049 54.9809 17.0532C55.124 17.0552 55.2667 17.0373 55.4049 17.0002C55.6095 16.9506 55.8021 16.8607 55.9716 16.7358C56.141 16.6109 56.2839 16.4535 56.3919 16.2728C56.4999 16.0921 56.5709 15.8917 56.6007 15.6833C56.6304 15.4749 56.6184 15.2627 56.5653 15.059C56.5122 14.8553 56.4191 14.6642 56.2914 14.4968C56.1637 14.3295 56.004 14.1893 55.8215 14.0843C55.639 13.9793 55.4375 13.9117 55.2286 13.8854C55.0197 13.8592 54.8077 13.8747 54.6049 13.9312" fill="#FFC657"/>
<path d="M62.9299 26.566C62.527 26.5845 62.1463 26.756 61.8654 27.0455C61.5844 27.3349 61.4244 27.7206 61.418 28.124C61.418 28.157 61.418 28.193 61.418 28.224C61.4368 28.6282 61.6095 29.01 61.9006 29.2911C62.1918 29.5722 62.5793 29.7313 62.9839 29.736H63.077C63.4819 29.7183 63.8646 29.5459 64.1461 29.2543C64.4276 28.9628 64.5865 28.5743 64.59 28.169C64.59 28.138 64.59 28.108 64.59 28.078C64.5707 27.674 64.3983 27.2924 64.1077 27.011C63.8172 26.7296 63.4304 26.5694 63.0259 26.563H62.926" fill="#FFC458"/>
<path d="M58.1947 21.6153C57.7898 21.6339 57.4073 21.8066 57.1256 22.0982C56.8439 22.3897 56.6844 22.7779 56.6797 23.1833C56.6797 23.2143 56.6797 23.2443 56.6797 23.2743C56.6985 23.6783 56.8711 24.0599 57.162 24.341C57.4529 24.6221 57.8402 24.7813 58.2447 24.7863C58.2757 24.7863 58.3067 24.7863 58.3377 24.7863C58.7426 24.7686 59.1253 24.5966 59.4073 24.3056C59.6892 24.0145 59.849 23.6265 59.8537 23.2213C59.8537 23.1913 59.8537 23.1603 59.8537 23.1293C59.8354 22.7251 59.6634 22.3432 59.3729 22.0616C59.0823 21.78 58.6953 21.62 58.2907 21.6143C58.2587 21.6143 58.2257 21.6143 58.1907 21.6143" fill="#FFC657"/>
<path d="M62.2708 11.3472C61.8663 11.3655 61.4841 11.5378 61.2025 11.8287C60.9208 12.1197 60.7611 12.5073 60.7559 12.9122C60.7559 12.9432 60.7559 12.9732 60.7559 13.0032C60.7737 13.4084 60.946 13.7914 61.2374 14.0735C61.5288 14.3556 61.9172 14.5155 62.3228 14.5202H62.4138C62.8185 14.5008 63.2005 14.3276 63.4818 14.036C63.763 13.7444 63.9222 13.3563 63.9268 12.9512C63.9268 12.9212 63.9268 12.8902 63.9268 12.8602C63.909 12.4568 63.7379 12.0754 63.4483 11.794C63.1587 11.5126 62.7726 11.3524 62.3688 11.3462C62.3358 11.3462 62.3029 11.3462 62.2689 11.3462" fill="#FFC657"/>
<path d="M71.0441 15.358C70.9543 15.3571 70.8646 15.3641 70.7761 15.379C70.4047 15.4363 70.0658 15.6238 69.8198 15.9079C69.5738 16.192 69.4368 16.5542 69.4331 16.93C69.4329 17.0174 69.4396 17.1046 69.4531 17.191C69.5111 17.5594 69.6967 17.8957 69.9775 18.1411C70.2582 18.3866 70.6162 18.5256 70.9891 18.534H71.0001C71.079 18.5351 71.158 18.5297 71.2361 18.518C71.2461 18.519 71.2561 18.519 71.2661 18.518C71.6362 18.4611 71.9744 18.2751 72.2205 17.9929C72.4667 17.7107 72.605 17.3504 72.6111 16.976C72.6118 16.8853 72.605 16.7946 72.5911 16.705V16.694V16.663C72.5244 16.3031 72.3356 15.9772 72.0565 15.7403C71.7774 15.5035 71.4251 15.3702 71.0591 15.363L71.0441 15.358Z" fill="#FFC657"/>
<path d="M68.9749 22.8302C68.8957 22.8298 68.8165 22.8348 68.7379 22.8452H68.7229H68.7069C68.3353 22.9034 67.9964 23.0917 67.7506 23.3765C67.5048 23.6613 67.3681 24.024 67.3649 24.4002C67.3637 24.4873 67.3704 24.5743 67.3849 24.6602C67.4425 25.0287 67.6282 25.3651 67.9093 25.6102C68.1904 25.8552 68.549 25.9934 68.9219 26.0002H68.9319C69.0169 26.0011 69.1019 25.9951 69.1859 25.9822H69.1969C69.5666 25.9249 69.9041 25.7386 70.1497 25.4564C70.3953 25.1742 70.5331 24.8142 70.5389 24.4402C70.5411 24.3491 70.5344 24.258 70.5189 24.1682V24.1592C70.461 23.7927 70.2759 23.4583 69.9962 23.2146C69.7164 22.9709 69.3598 22.8334 68.9889 22.8262L68.9749 22.8302Z" fill="#FFC657"/>
<path d="M73.8521 26.1622C73.4472 26.1582 73.0562 26.3089 72.7588 26.5836C72.4614 26.8583 72.2801 27.2363 72.2521 27.6402C72.2521 27.6722 72.2471 27.7092 72.2471 27.7402C72.2441 28.1433 72.3951 28.5324 72.6692 28.8281C72.9433 29.1238 73.3199 29.3037 73.7222 29.3312C73.7542 29.3312 73.7861 29.3312 73.8161 29.3312H73.8271C74.2301 29.3334 74.6189 29.182 74.9142 28.9078C75.2096 28.6337 75.3894 28.2573 75.4171 27.8552C75.4171 27.8242 75.4221 27.7942 75.4221 27.7632C75.4259 27.3587 75.2754 26.968 75.0011 26.6707C74.7269 26.3734 74.3496 26.1919 73.9461 26.1632H73.8521V26.1622Z" fill="#FFC45A"/>
<path d="M79.5478 25.938H79.5328C79.1969 25.9383 78.8698 26.0449 78.5982 26.2425C78.3266 26.4401 78.1244 26.7185 78.0208 27.038V27.048L78.0088 27.084C77.9511 27.2845 77.9334 27.4945 77.9568 27.7019C77.9802 27.9092 78.0443 28.1099 78.1454 28.2925C78.2464 28.4751 78.3824 28.636 78.5457 28.766C78.7089 28.8959 78.8962 28.9925 79.0968 29.05H79.1118C79.2421 29.0861 79.3766 29.1053 79.5118 29.107H79.5178C79.8596 29.1102 80.1933 29.0026 80.4689 28.8003C80.7445 28.5981 80.9472 28.3121 81.0468 27.985V27.969V27.958C81.1634 27.5556 81.1154 27.1233 80.9135 26.7561C80.7115 26.389 80.3722 26.117 79.9698 26C79.833 25.96 79.6913 25.9388 79.5488 25.937L79.5478 25.938Z" fill="#FFC157"/>
<path d="M77.095 18.859C76.6916 18.8567 76.3025 19.0082 76.0068 19.2825C75.7111 19.5569 75.5309 19.9336 75.503 20.336C75.503 20.37 75.503 20.405 75.503 20.436C75.5005 20.8396 75.6521 21.2289 75.9267 21.5247C76.2013 21.8205 76.5783 22.0005 76.981 22.028C77.011 22.028 77.04 22.028 77.071 22.028H77.081C77.4844 22.0302 77.8737 21.8788 78.1696 21.6045C78.4655 21.3302 78.6458 20.9535 78.674 20.551C78.674 20.521 78.674 20.491 78.674 20.46C78.6783 20.0547 78.528 19.663 78.2535 19.3648C77.9791 19.0666 77.6012 18.8842 77.197 18.855H77.097L77.095 18.859Z" fill="#FFC657"/>
<path d="M83.0952 14.9903H83.0831C82.7521 14.9906 82.4295 15.0946 82.1605 15.2876C81.8915 15.4805 81.6896 15.7528 81.5831 16.0663V16.0663C81.5761 16.0903 81.5671 16.1133 81.5621 16.1383C81.522 16.2727 81.5011 16.412 81.5001 16.5523C81.4958 16.8999 81.6053 17.2395 81.8121 17.519C82.0188 17.7985 82.3114 18.0027 82.6451 18.1003C82.783 18.1385 82.9251 18.159 83.0681 18.1613H83.0762C83.418 18.1637 83.7514 18.0558 84.027 17.8537C84.3026 17.6516 84.5057 17.366 84.6061 17.0393V17.0233V17.0123C84.6469 16.8746 84.6674 16.7318 84.6671 16.5883C84.6693 16.1681 84.5052 15.7641 84.2108 15.4644C83.9163 15.1647 83.5153 14.9936 83.0952 14.9883V14.9903Z" fill="#FFC657"/>
<path d="M90.5952 17.002H90.5831C90.2521 17.0024 89.9295 17.1063 89.6605 17.2993C89.3915 17.4922 89.1896 17.7645 89.0831 18.078V18.078C89.0761 18.102 89.0671 18.125 89.0621 18.15C89.022 18.2844 89.0011 18.4238 89.0001 18.564C88.9958 18.9117 89.1053 19.2512 89.3121 19.5307C89.5188 19.8102 89.8114 20.0144 90.1451 20.112C90.283 20.1502 90.4251 20.1707 90.5681 20.173H90.5762C90.918 20.1754 91.2514 20.0675 91.527 19.8654C91.8026 19.6633 92.0057 19.3777 92.1061 19.051V19.035V19.024C92.1469 18.8864 92.1674 18.7435 92.1671 18.6C92.1693 18.1798 92.0052 17.7759 91.7108 17.4761C91.4163 17.1764 91.0153 17.0053 90.5952 17V17.002Z" fill="#FFC657"/>
<path d="M21.4297 21.6061C19.5567 21.5871 19.0297 23.8161 21.0077 25.9551L21.0177 25.9641C21.0327 25.9821 21.0497 25.9991 21.0667 26.0171L21.0767 26.0291L21.0968 26.0491L21.1208 26.0731C21.1358 26.0901 21.1537 26.1061 21.1687 26.1241L21.1947 26.1511C22.0899 27.0874 23.2797 27.6876 24.5647 27.8511H24.5727C24.9803 27.8695 25.3807 27.7394 25.6997 27.4851L25.7107 27.4771C25.9457 27.1773 26.0722 26.8069 26.0697 26.4261C26.0977 24.4831 23.5488 21.7331 21.5578 21.6101C21.5158 21.6101 21.4728 21.6101 21.4308 21.6101L21.4297 21.6061Z" fill="#FFC657"/>
<path d="M125.801 47.836H125.795C125.229 47.8361 124.666 47.9228 124.126 48.093H124.119C124.105 48.0954 124.092 48.0994 124.079 48.105C122.646 48.547 120.724 49.792 120.709 51.205C120.708 51.3301 120.722 51.455 120.75 51.577L120.755 51.588L120.762 51.601V51.606C121.008 51.9984 121.359 52.3135 121.776 52.5152C122.193 52.7168 122.658 52.7968 123.118 52.746H123.143C124.911 52.761 127.081 51.882 127.848 50.603L127.857 50.589C127.857 50.579 127.866 50.572 127.87 50.564C128.691 49.156 127.726 47.859 125.801 47.834V47.836Z" fill="#9AADA3"/>
<path d="M126.887 38.5211C126.159 38.531 125.443 38.6996 124.787 39.0151L124.742 39.0361C123.449 39.6361 121.809 41.0091 121.795 42.3311C121.793 42.5224 121.827 42.7125 121.895 42.8911C122.108 43.1849 122.393 43.4189 122.723 43.5704C123.052 43.722 123.415 43.7859 123.777 43.7561H123.816C125.644 43.7561 128.058 42.5341 128.77 41.0451C128.785 41.0121 128.799 40.9811 128.812 40.9451L128.818 40.9311C129.375 39.6021 128.481 38.5371 126.899 38.5161L126.887 38.5211Z" fill="#BFB790"/>
<path d="M121.781 29.9912C121.034 30.0024 120.298 30.1808 119.629 30.5132C118.329 31.1132 116.689 32.4922 116.674 33.8132C116.673 34.0041 116.707 34.1936 116.774 34.3722C116.985 34.6612 117.266 34.8913 117.591 35.0403C117.916 35.1893 118.274 35.2523 118.631 35.2232H118.676C120.509 35.2232 122.942 33.9832 123.648 32.4962C123.656 32.4802 123.662 32.4642 123.67 32.4472L123.676 32.4322L123.686 32.4102L123.691 32.3962C123.697 32.3843 123.703 32.3719 123.707 32.3592L123.712 32.3442C124.219 31.0442 123.335 30.0142 121.787 29.9932L121.781 29.9912Z" fill="#E4BF75"/>
<path d="M116.127 22.833C115.535 22.836 114.947 22.9346 114.386 23.125L114.365 23.132C112.951 23.605 111.065 24.874 111.05 26.251C111.048 26.3828 111.064 26.5143 111.097 26.642L111.105 26.659C111.341 27.0273 111.675 27.3225 112.069 27.5112C112.464 27.6999 112.903 27.7746 113.338 27.727H113.351C115.151 27.744 117.434 26.789 118.182 25.464L118.187 25.456C118.191 25.447 118.196 25.4383 118.201 25.43C118.207 25.417 118.215 25.404 118.221 25.392C118.921 24.054 117.951 22.858 116.133 22.834L116.127 22.833Z" fill="#FFC557"/>
<path d="M104.956 13.328H104.95C104.027 13.3634 103.137 13.6829 102.403 14.243C102.395 14.2495 102.386 14.2552 102.377 14.26C101.303 15.014 100.061 16.468 100.043 17.718C100.035 18.0208 100.113 18.3196 100.268 18.58L100.278 18.591C100.458 18.7773 100.675 18.9235 100.915 19.0202C101.155 19.1168 101.413 19.1618 101.672 19.152H101.719C103.6 19.144 106.211 17.317 106.694 15.552C106.702 15.526 106.708 15.5 106.715 15.472V15.453V15.437L106.723 15.403C106.726 15.3938 106.728 15.3845 106.729 15.375V15.356C106.791 15.0993 106.791 14.8313 106.727 14.5748C106.664 14.3184 106.54 14.081 106.365 13.8828C106.19 13.6846 105.97 13.5315 105.724 13.4365C105.477 13.3415 105.212 13.3074 104.949 13.337L104.956 13.328Z" fill="#FFC657"/>
<path d="M95.8321 6.10499H95.8171C95.2296 6.16713 94.665 6.36728 94.1695 6.68914C93.6741 7.01099 93.2617 7.44543 92.9661 7.95699L92.9371 7.99799C92.9291 8.00799 92.9221 8.01899 92.9151 8.02899C92.2742 8.96108 91.8988 10.0499 91.8291 11.179C91.8034 11.4881 91.8502 11.7989 91.9661 12.0866C92.0819 12.3743 92.2634 12.631 92.4961 12.836C92.5039 12.8388 92.5112 12.8425 92.5181 12.847C92.7443 12.9598 92.9934 13.0193 93.2461 13.021H93.2701C95.2761 13.021 97.7431 9.75499 97.4551 7.64199L97.4501 7.60899C97.4501 7.59299 97.4451 7.57499 97.4421 7.56099C97.4044 7.16164 97.2188 6.79084 96.9216 6.52142C96.6244 6.252 96.2372 6.10347 95.8361 6.10499H95.8321Z" fill="#FFC657"/>
<path d="M132.082 63.4C135.233 63.306 136.567 65.416 135.095 66.919C133.374 68.68 128.308 68.346 127.957 65.95C128.018 64.291 130.457 63.45 132.082 63.4" fill="#629CB1"/>
<path d="M130.705 54.7649C133.805 54.2379 135.41 56.1099 134.158 57.7759C132.685 59.7269 127.621 60.0939 126.953 57.8039C126.794 56.1919 129.098 55.0389 130.705 54.7649" fill="#7EA4AB"/>
<path d="M132.112 74.166C135.179 74.594 136.161 76.938 134.493 78.149C132.5 79.583 127.562 78.407 127.619 75.993C127.952 74.358 130.496 73.933 132.112 74.166Z" fill="#4A94B0"/>
<path d="M98.7231 120.831C98.4956 120.827 98.27 120.874 98.0631 120.968C97.8132 121.167 97.615 121.423 97.4856 121.715C97.3562 122.007 97.2994 122.326 97.32 122.644C97.298 124.544 98.815 127.176 100.466 127.75C100.674 127.824 100.892 127.864 101.112 127.868H101.118C102.602 127.884 103.377 125.979 102.118 123.624C102.11 123.605 102.101 123.587 102.09 123.569L102.079 123.548C102.065 123.522 102.052 123.499 102.036 123.473C102.034 123.467 102.03 123.46 102.026 123.454C102.018 123.442 102.011 123.429 102.005 123.415L101.999 123.406C101.306 122.221 99.9661 120.856 98.7361 120.831H98.7231Z" fill="#0084AA"/>
<path d="M111.682 111C111.292 110.983 110.908 111.105 110.6 111.345L110.584 111.356C110.341 111.661 110.211 112.041 110.217 112.431C110.193 114.374 112.702 117.121 114.687 117.264C114.734 117.269 114.781 117.271 114.828 117.271H114.834C116.677 117.288 117.211 115.071 115.259 112.934C115.224 112.895 115.187 112.856 115.15 112.818C114.25 111.831 113.033 111.188 111.71 111.001L111.682 111Z" fill="#0085AB"/>
<path d="M117.14 104.933C116.886 104.916 116.632 104.953 116.394 105.042C116.156 105.13 115.939 105.268 115.758 105.446L115.747 105.455C115.741 105.464 115.737 105.473 115.733 105.482L115.725 105.494C115.713 105.513 115.702 105.532 115.693 105.551C114.68 107.451 117.965 110.699 120.321 110.791H120.394C120.454 110.791 120.516 110.791 120.577 110.784C120.79 110.793 121.002 110.759 121.201 110.683C121.401 110.608 121.583 110.492 121.736 110.345C121.89 110.197 122.012 110.019 122.094 109.823C122.177 109.626 122.22 109.415 122.219 109.202C122.159 108.62 121.972 108.059 121.671 107.557C121.369 107.056 120.961 106.627 120.475 106.302C120.463 106.291 120.449 106.282 120.438 106.272C120.428 106.265 120.418 106.258 120.409 106.25L120.401 106.244C119.471 105.499 118.344 105.045 117.158 104.937L117.14 104.933Z" fill="#0C87AC"/>
<path d="M118.728 95.55C118.404 95.5185 118.078 95.5657 117.776 95.6876C117.475 95.8095 117.207 96.0024 116.997 96.25C116.994 96.2565 116.99 96.2626 116.985 96.268C116.979 96.283 116.973 96.298 116.966 96.313L116.958 96.33C116.163 98.256 119.497 100.908 121.858 100.98H121.915C122.096 100.984 122.277 100.968 122.456 100.934C122.838 100.893 123.191 100.713 123.449 100.428C123.707 100.144 123.852 99.7742 123.856 99.39C123.783 98.7701 123.554 98.1787 123.191 97.6715C122.827 97.1642 122.341 96.7577 121.777 96.49L121.754 96.475C121.748 96.4731 121.743 96.4704 121.739 96.467L121.724 96.458C121.708 96.449 121.695 96.441 121.68 96.434L121.667 96.426L121.652 96.417H121.647C120.762 95.9031 119.768 95.6054 118.747 95.548L118.728 95.55Z" fill="#1F89AC"/>
<path d="M125.774 90.9739C125.35 90.919 124.919 90.9787 124.526 91.1468C124.133 91.315 123.792 91.5854 123.539 91.9299L123.532 91.9419C123.527 91.9499 123.525 91.9569 123.52 91.9639L123.512 91.9759V91.9859C122.982 93.7639 125.983 96.0029 128.419 96.0489H128.448C128.816 96.0572 129.184 96.0034 129.535 95.8899L129.555 95.8819C129.897 95.7959 130.203 95.6009 130.425 95.3262C130.648 95.0516 130.775 94.7121 130.788 94.3589C130.799 93.4109 129.988 92.2769 128.307 91.5309L128.276 91.5179C127.487 91.181 126.641 90.9964 125.784 90.9739H125.774Z" fill="#238AAE"/>
<path d="M129.073 82.826H129.065C127.805 82.813 126.533 83.157 126.132 84.144C126.128 84.148 126.125 84.1528 126.124 84.158C126.122 84.1646 126.119 84.171 126.116 84.177C126.113 84.1873 126.109 84.1973 126.105 84.207C125.805 86.041 128.661 87.566 130.947 87.598H130.963C131.533 87.6209 132.099 87.5078 132.617 87.268C132.907 87.1426 133.155 86.9376 133.334 86.6768C133.512 86.4159 133.613 86.1099 133.625 85.794C133.638 84.776 132.68 83.611 130.801 83.07H130.787C130.762 83.063 130.738 83.057 130.715 83.049C130.179 82.9106 129.628 82.8367 129.074 82.829L129.073 82.826Z" fill="#348EB0"/>
<path d="M4.9219 69.2411H4.91592C3.74221 69.169 2.58208 69.5242 1.64993 70.2411V70.2411C1.63893 70.2531 1.62795 70.2631 1.61795 70.2731L1.60092 70.2901L1.59091 70.2991L1.57492 70.3141C1.55392 70.3341 1.53691 70.3541 1.51791 70.3751C0.181911 71.8291 1.40895 73.8391 4.37295 73.8751H4.3779C4.4229 73.8751 4.46691 73.8751 4.51291 73.8751H4.54092C6.16892 73.8581 8.62591 73.0591 8.70791 71.4011L8.70291 71.3661C8.50291 69.9781 6.72794 69.2571 4.93094 69.2351L4.9219 69.2411Z" fill="#5297B0"/>
<path d="M6.52886 78.1219H6.5219C5.77632 78.0814 5.03028 78.1927 4.32897 78.4489C3.62766 78.7052 2.98566 79.1012 2.44188 79.6129L2.41789 79.6429L2.41289 79.6499L2.39586 79.6709C2.38675 79.6813 2.37843 79.6923 2.3709 79.7039C1.2799 81.1419 2.37586 82.7649 4.77086 82.7949H4.7769C5.09511 82.7979 5.41305 82.7761 5.72789 82.7299C5.7352 82.729 5.74256 82.729 5.74986 82.7299C5.75586 82.7299 5.76191 82.7299 5.76891 82.7299H5.79387C7.35487 82.4939 9.57886 81.4359 9.59386 79.9059C9.5953 79.8532 9.59331 79.8004 9.58788 79.7479C9.28788 78.6539 7.97788 78.1479 6.52788 78.1329L6.52886 78.1219Z" fill="#3D91B1"/>
<path d="M9.17174 86.5H9.16179C7.41379 86.483 5.28273 87.324 4.48973 88.565C4.47673 88.588 4.46178 88.61 4.44878 88.632L4.41075 88.696V88.702L4.40373 88.716C3.66673 90.088 4.68874 91.377 6.61174 91.402H6.61876C7.1533 91.4016 7.68492 91.3231 8.19676 91.169C8.20676 91.169 8.21774 91.162 8.22874 91.16C9.67874 90.728 11.6108 89.488 11.6288 88.06C11.6306 87.937 11.6182 87.8142 11.5918 87.694C11.5872 87.686 11.5832 87.6776 11.5798 87.669V87.66L11.5677 87.638C11.3154 87.2445 10.9581 86.9292 10.5362 86.7278C10.1143 86.5264 9.64445 86.4468 9.17973 86.498L9.17174 86.5Z" fill="#2D8DAF"/>
<path d="M19.502 91.7693H19.485C17.614 91.7553 15.1189 93.0283 14.4689 94.5573C14.464 94.5706 14.4584 94.5836 14.452 94.5963L14.447 94.6123C14.442 94.6223 14.437 94.6373 14.431 94.6513C13.941 95.9513 14.843 96.9823 16.413 97.0043H16.421C17.1323 96.9936 17.8335 96.8335 18.4789 96.5343C18.4988 96.5245 18.5192 96.5158 18.54 96.5083C19.84 95.9153 21.4849 94.5493 21.4999 93.2133C21.5021 93.02 21.4682 92.8281 21.4 92.6473C21.3955 92.6409 21.3915 92.6342 21.3879 92.6273C21.1731 92.3356 20.8874 92.1035 20.558 91.9528C20.2285 91.8022 19.8661 91.738 19.5049 91.7663L19.502 91.7693Z" fill="#238AAE"/>
<path d="M17.079 101.535H17.069C15.193 101.521 12.569 103.191 12.009 104.906L12.004 104.922V104.928L11.997 104.953V104.963V104.971V104.982C11.9953 104.991 11.993 105 11.9899 105.008C11.9849 105.029 11.98 105.05 11.974 105.07C11.665 106.298 12.466 107.164 13.774 107.181H13.783C14.6415 107.154 15.4757 106.89 16.1929 106.417C16.2079 106.408 16.224 106.398 16.239 106.387L16.268 106.37C17.41 105.65 18.768 104.211 18.783 102.94C18.7885 102.672 18.7255 102.407 18.6 102.169L18.586 102.152C18.3985 101.947 18.1679 101.785 17.9107 101.679C17.6534 101.573 17.3759 101.525 17.098 101.538L17.079 101.535Z" fill="#1186AC"/>
<path d="M22.2332 108.072H22.1742C20.2742 108.094 17.6252 110.243 17.2872 112.116V112.126C17.2822 112.153 17.2772 112.182 17.2732 112.211C17.2738 112.218 17.2738 112.225 17.2732 112.231C17.2215 112.474 17.2273 112.725 17.2899 112.964C17.3526 113.204 17.4704 113.426 17.634 113.612C17.7976 113.798 18.0024 113.944 18.2321 114.037C18.4619 114.129 18.7102 114.167 18.9572 114.147H18.9702C19.9833 114.09 20.9449 113.682 21.6892 112.992C22.7878 112.131 23.5195 110.886 23.7371 109.507C23.7475 109.155 23.6422 108.808 23.4372 108.521C23.1098 108.223 22.6799 108.063 22.2371 108.073L22.2332 108.072Z" fill="#0A86AB"/>
<path d="M28.1218 113.865H28.1109C26.1579 113.852 23.4829 116.587 23.4589 118.621V118.645C23.4362 118.867 23.4608 119.091 23.5313 119.303C23.6018 119.515 23.7166 119.709 23.8679 119.873C24.0192 120.037 24.2036 120.167 24.409 120.254C24.6143 120.341 24.8358 120.384 25.0589 120.379H25.0728C25.6104 120.335 26.1335 120.182 26.611 119.931C27.0884 119.68 27.5104 119.335 27.8518 118.917C27.8748 118.894 27.8968 118.87 27.9188 118.847C27.925 118.84 27.9317 118.832 27.9389 118.825C28.8274 117.891 29.3847 116.692 29.5249 115.41C29.5496 114.955 29.3927 114.509 29.0888 114.169L29.0808 114.164L29.0669 114.153C28.7881 113.964 28.4588 113.863 28.1218 113.864V113.865Z" fill="#0085AB"/>
<path d="M41.9048 122.9H41.8948C39.8548 122.891 37.6508 126.584 38.1818 128.73C38.1818 128.742 38.1878 128.754 38.1908 128.768L38.2008 128.8V128.813C38.2058 128.832 38.2118 128.851 38.2168 128.87V128.875V128.882C38.2956 129.229 38.4875 129.539 38.7624 129.765C39.0373 129.99 39.3794 130.118 39.7348 130.127H39.7408C40.6408 130.136 41.7218 129.435 42.5208 127.951C42.5288 127.935 42.5368 127.922 42.5448 127.908L42.5788 127.842L42.5968 127.805C43.0367 126.938 43.2826 125.986 43.3177 125.015C43.3635 124.632 43.3071 124.245 43.1541 123.891C43.001 123.538 42.757 123.231 42.4468 123.003C42.2721 122.938 42.0872 122.904 41.9008 122.903L41.9048 122.9Z" fill="#0084AA"/>
<path d="M51.328 123.537H51.309C49.315 123.537 47.27 127.459 48.155 129.781L48.164 129.804C48.177 129.836 48.189 129.866 48.204 129.897C48.3142 130.21 48.5164 130.483 48.784 130.679C49.0516 130.875 49.3723 130.986 49.704 130.997H49.721C50.696 130.997 51.83 130.134 52.458 128.391C52.466 128.37 52.474 128.348 52.481 128.326C52.7125 127.652 52.8356 126.946 52.846 126.233C52.9258 125.719 52.8532 125.193 52.6373 124.719C52.4214 124.246 52.0716 123.846 51.631 123.569C51.5327 123.546 51.432 123.534 51.331 123.534L51.328 123.537Z" fill="#0084AA"/>
<path d="M49.3601 114.415C49.423 113.91 49.6696 113.446 50.0528 113.111C50.4361 112.776 50.9292 112.594 51.4381 112.6C51.5163 112.601 51.5944 112.606 51.672 112.616C52.1764 112.679 52.6401 112.926 52.9748 113.308C53.3096 113.691 53.4923 114.183 53.4881 114.691C53.4869 114.77 53.4809 114.849 53.4701 114.928C53.407 115.432 53.1608 115.896 52.7782 116.231C52.3956 116.565 51.9033 116.748 51.3951 116.743C51.3165 116.742 51.2381 116.736 51.1601 116.727C50.6556 116.664 50.1919 116.418 49.8572 116.035C49.5225 115.653 49.3402 115.16 49.3451 114.652C49.3451 114.573 49.3501 114.494 49.3601 114.415V114.415ZM55.1391 106.445C55.13 106.508 55.1253 106.571 55.125 106.634C55.1216 107.041 55.2675 107.434 55.5352 107.741C55.8028 108.047 56.1736 108.244 56.5771 108.295C56.6391 108.303 56.7016 108.307 56.7641 108.307C57.1708 108.311 57.565 108.166 57.8716 107.899C58.1782 107.631 58.3758 107.261 58.427 106.857C58.434 106.793 58.4381 106.729 58.4391 106.667C58.4429 106.26 58.2971 105.866 58.0294 105.56C57.7617 105.254 57.3907 105.057 56.987 105.006C56.9244 104.998 56.8613 104.994 56.7981 104.994C56.3914 104.989 55.9973 105.135 55.6912 105.402C55.3851 105.67 55.1885 106.041 55.1391 106.445V106.445ZM51.7771 105.418C51.7708 105.457 51.7674 105.497 51.7671 105.537C51.7644 105.796 51.8571 106.047 52.0277 106.242C52.1984 106.438 52.4348 106.563 52.6921 106.595C52.7311 106.601 52.7706 106.603 52.81 106.603C53.0693 106.606 53.3206 106.513 53.5159 106.342C53.7112 106.172 53.8369 105.935 53.8691 105.678C53.8741 105.637 53.8761 105.598 53.8771 105.557C53.8795 105.298 53.7867 105.047 53.6164 104.853C53.446 104.658 53.2099 104.532 52.953 104.5C52.915 104.494 52.8765 104.492 52.8381 104.492C52.5782 104.489 52.3262 104.581 52.1304 104.752C51.9346 104.923 51.8088 105.16 51.7771 105.418V105.418ZM54.789 95.8661C54.7482 96.2224 54.8488 96.5806 55.0693 96.8635C55.2898 97.1465 55.6125 97.3316 55.9681 97.3791C56.0201 97.3851 56.0681 97.3891 56.1241 97.3901C56.4681 97.3901 56.7992 97.2593 57.0505 97.0243C57.3017 96.7892 57.4541 96.4675 57.477 96.1243C57.4999 95.781 57.3915 95.4419 57.1737 95.1756C56.9559 94.9093 56.645 94.7357 56.3041 94.6901C56.2523 94.6835 56.2002 94.6798 56.148 94.6791C55.8152 94.6762 55.4928 94.7958 55.2423 95.015C54.9917 95.2342 54.8305 95.5377 54.789 95.868V95.8661ZM52.589 101.099C52.577 101.194 52.5704 101.289 52.5691 101.385C52.5641 101.993 52.7826 102.582 53.1831 103.04C53.5837 103.498 54.1384 103.793 54.742 103.869C54.8346 103.88 54.9278 103.887 55.021 103.888C55.6299 103.895 56.2201 103.677 56.6789 103.277C57.1378 102.876 57.4332 102.321 57.5091 101.717C57.5207 101.622 57.5274 101.527 57.529 101.432C57.5345 100.823 57.3162 100.234 56.9156 99.7759C56.5149 99.3178 55.9599 99.0228 55.3561 98.9471C55.2635 98.9356 55.1703 98.9296 55.0771 98.9291C54.4683 98.9223 53.8783 99.1397 53.4195 99.5399C52.9607 99.9401 52.6651 100.495 52.589 101.099V101.099ZM57.5141 97.9291C57.5063 97.9934 57.5019 98.0582 57.5011 98.1231C57.4971 98.542 57.6471 98.9477 57.9228 99.2632C58.1984 99.5787 58.5804 99.7818 58.9961 99.8341C59.0597 99.8426 59.1239 99.8473 59.1881 99.8481C59.608 99.8524 60.0147 99.7018 60.3305 99.4251C60.6464 99.1483 60.8492 98.7649 60.9001 98.3481C60.9088 98.2817 60.9135 98.2149 60.914 98.148C60.9178 97.7294 60.7676 97.324 60.4919 97.0089C60.2163 96.6938 59.8344 96.491 59.419 96.439C59.355 96.4316 59.2906 96.4276 59.2261 96.4271C58.8069 96.4224 58.4006 96.5722 58.0848 96.8479C57.769 97.1237 57.5659 97.506 57.5141 97.9221V97.9291ZM55.5141 91.4171C55.5051 91.4981 55.4991 91.5811 55.4981 91.6611C55.4931 92.1827 55.6802 92.688 56.0238 93.0806C56.3673 93.4733 56.8433 93.7258 57.3611 93.7901C57.4423 93.8006 57.5241 93.8063 57.6061 93.8071C58.1276 93.8123 58.6329 93.6256 59.0257 93.2824C59.4185 92.9392 59.6713 92.4636 59.7361 91.9461C59.7466 91.8655 59.7522 91.7843 59.753 91.7031C59.7579 91.1811 59.5708 90.6756 59.2273 90.2825C58.8839 89.8894 58.4079 89.6363 57.8901 89.5711C57.8088 89.5605 57.727 89.5548 57.6451 89.5541C57.1231 89.5488 56.6175 89.7358 56.2245 90.0794C55.8315 90.4229 55.5786 90.8991 55.5141 91.4171V91.4171ZM50.0381 109.3C50.0281 109.379 50.0231 109.458 50.023 109.537C50.0177 110.045 50.1997 110.538 50.5343 110.92C50.8689 111.303 51.3327 111.549 51.8371 111.611C51.9157 111.621 51.9948 111.627 52.0741 111.627C52.5821 111.632 53.0743 111.451 53.4569 111.117C53.8396 110.782 54.086 110.319 54.1491 109.815C54.1587 109.736 54.164 109.657 54.1651 109.578C54.1685 109.05 53.9704 108.541 53.6112 108.154C53.2521 107.768 52.7589 107.533 52.2323 107.497C51.7058 107.462 51.1856 107.629 50.7778 107.964C50.37 108.299 50.1054 108.777 50.0381 109.3V109.3ZM59.203 94.5801C59.198 94.6199 59.1953 94.6599 59.195 94.7001C59.1922 94.959 59.2848 95.21 59.4549 95.4053C59.6251 95.6006 59.8611 95.7264 60.1181 95.7591C60.1591 95.7591 60.1991 95.7671 60.2391 95.7671C60.4979 95.77 60.7487 95.6775 60.9437 95.5073C61.1387 95.337 61.2641 95.1009 61.2961 94.8441C61.3011 94.8031 61.3031 94.7611 61.3041 94.7221C61.3065 94.4632 61.2138 94.2124 61.0434 94.0175C60.873 93.8226 60.6369 93.6972 60.38 93.6651C60.34 93.6651 60.299 93.6601 60.26 93.6591C60.0015 93.656 59.7509 93.7482 59.556 93.9181C59.3611 94.0879 59.2354 94.3236 59.203 94.5801V94.5801ZM54.9261 110.859C54.9261 110.9 54.919 110.94 54.919 110.981C54.9164 111.24 55.0093 111.491 55.1799 111.686C55.3506 111.881 55.587 112.006 55.844 112.037C55.8842 112.042 55.9246 112.045 55.9651 112.046C56.2238 112.048 56.4744 111.955 56.669 111.784C56.8637 111.614 56.9889 111.378 57.021 111.121C57.0264 111.08 57.0294 111.04 57.0301 111.001C57.0323 110.742 56.9394 110.491 56.7688 110.296C56.5983 110.101 56.3621 109.975 56.1051 109.943C56.0662 109.939 56.0272 109.936 55.9881 109.936C55.7286 109.933 55.477 110.025 55.2812 110.195C55.0853 110.365 54.9589 110.602 54.9261 110.859V110.859ZM59.763 87.9591C59.754 88.0411 59.748 88.1201 59.747 88.2001C59.7432 88.7152 59.9288 89.2138 60.2687 89.601C60.6085 89.9882 61.0788 90.237 61.5901 90.3001C61.6693 90.3107 61.7491 90.3164 61.8291 90.3171C62.3453 90.323 62.8456 90.1385 63.2345 89.7989C63.6233 89.4593 63.8734 88.9884 63.937 88.4761C63.9476 88.3965 63.9533 88.3163 63.9541 88.236C63.9579 87.7209 63.7723 87.2223 63.4325 86.8351C63.0927 86.4479 62.6224 86.1991 62.1111 86.1361C62.0308 86.1255 61.95 86.1198 61.8691 86.1191C61.3532 86.1137 60.8534 86.2983 60.4649 86.6379C60.0765 86.9774 59.8266 87.4481 59.763 87.9601V87.9591ZM60.7121 79.0141C60.7003 79.1086 60.694 79.2038 60.693 79.2991C60.6874 79.9074 60.9058 80.4965 61.3066 80.9542C61.7073 81.4119 62.2624 81.7062 62.8661 81.7811C62.9596 81.7929 63.0538 81.7992 63.148 81.8001C63.7563 81.8072 64.3459 81.5899 64.8041 81.1898C65.2623 80.7897 65.5571 80.2347 65.6321 79.6311C65.6446 79.5366 65.6513 79.4414 65.6521 79.3461C65.6577 78.7379 65.4395 78.1489 65.039 77.6912C64.6385 77.2335 64.0836 76.9391 63.4801 76.8641C63.3862 76.8522 63.2917 76.8452 63.1971 76.8431C62.5887 76.8371 61.9993 77.055 61.5411 77.4553C61.0829 77.8556 60.7879 78.4104 60.7121 79.0141ZM57.9761 83.1881C57.9671 83.2577 57.9621 83.3278 57.961 83.3981C57.9566 83.8465 58.1171 84.281 58.4121 84.6188C58.7072 84.9566 59.1161 85.1741 59.5611 85.2301C59.6274 85.2383 59.6942 85.2426 59.7611 85.2431C60.2105 85.2488 60.6463 85.0888 60.9853 84.7937C61.3243 84.4986 61.5428 84.089 61.599 83.6431C61.608 83.5731 61.613 83.5026 61.6141 83.4321C61.618 82.9841 61.4572 82.5502 61.1622 82.213C60.8672 81.8758 60.4586 81.6587 60.0141 81.6031C59.9454 81.5942 59.8763 81.5892 59.807 81.5881C59.3584 81.5829 58.9236 81.7432 58.5857 82.0384C58.2477 82.3335 58.0304 82.7428 57.9751 83.1881H57.9761ZM60.8921 72.4111C60.8848 72.9764 61.0454 73.5312 61.3534 74.0052C61.6615 74.4793 62.1032 74.8513 62.6228 75.0742C63.1423 75.2972 63.7163 75.361 64.2722 75.2577C64.828 75.1544 65.3407 74.8885 65.7455 74.4937C66.1502 74.0989 66.4287 73.593 66.5458 73.0399C66.6629 72.4868 66.6134 71.9114 66.4034 71.3864C66.1935 70.8615 65.8325 70.4106 65.3662 70.0909C64.9 69.7711 64.3494 69.5968 63.784 69.5901C63.0265 69.5807 62.2962 69.8727 61.7539 70.4017C61.2115 70.9307 60.9016 71.6535 60.8921 72.4111V72.4111ZM68.2461 62.1371C68.2368 62.9174 68.4592 63.6829 68.8849 64.3369C69.3106 64.9909 69.9205 65.5041 70.6378 65.8115C71.355 66.1189 72.1474 66.2068 72.9146 66.0641C73.6818 65.9214 74.3894 65.5545 74.9482 65.0097C75.5069 64.465 75.8916 63.7668 76.0537 63.0035C76.2158 62.2401 76.148 61.4459 75.8588 60.7211C75.5696 59.9963 75.0721 59.3734 74.4291 58.9313C73.786 58.4892 73.0264 58.2476 72.2461 58.2371C71.7272 58.2301 71.2121 58.3254 70.7301 58.5177C70.2482 58.71 69.8089 58.9954 69.4374 59.3576C69.0658 59.7199 68.7694 60.1518 68.565 60.6287C68.3606 61.1057 68.2522 61.6182 68.2461 62.1371V62.1371ZM61.0041 51.3541C60.9935 52.3148 61.3626 53.241 62.031 53.9312C62.6994 54.6215 63.6132 55.02 64.5738 55.0403C65.5345 55.0606 66.4643 54.701 67.1613 54.0396C67.8583 53.3782 68.266 52.4684 68.2961 51.5081V51.3761C68.2975 50.8971 68.2046 50.4226 68.0227 49.9796C67.8407 49.5365 67.5733 49.1337 67.2356 48.794C66.898 48.4543 66.4968 48.1845 66.0548 47.9999C65.6129 47.8153 65.139 47.7195 64.6601 47.7181C63.6928 47.7151 62.764 48.0966 62.078 48.7785C61.392 49.4603 61.005 50.3868 61.0021 51.3541H61.0041ZM68.232 54.8611C68.2257 55.3712 68.3709 55.8718 68.6491 56.2994C68.9274 56.727 69.3262 57.0625 69.7952 57.2635C70.2642 57.4644 70.7822 57.5217 71.2837 57.4282C71.7853 57.3346 72.2478 57.0944 72.6128 56.738C72.9778 56.3815 73.2289 55.9248 73.3343 55.4256C73.4396 54.9264 73.3946 54.4072 73.2048 53.9336C73.015 53.46 72.689 53.0534 72.2681 52.7651C71.8472 52.4768 71.3502 52.3198 70.8401 52.3141C70.1565 52.3061 69.4977 52.5699 69.0086 53.0475C68.5196 53.5252 68.2402 54.1775 68.232 54.8611V54.8611ZM60.706 58.4081C60.6999 58.9181 60.8453 59.4185 61.1236 59.846C61.4019 60.2735 61.8008 60.6089 62.2697 60.8097C62.7386 61.0105 63.2565 61.0677 63.758 60.9741C64.2594 60.8805 64.7219 60.6404 65.0868 60.284C65.4518 59.9275 65.7028 59.4709 65.8082 58.9718C65.9136 58.4727 65.8686 57.9536 65.679 57.48C65.4893 57.0065 65.1636 56.5998 64.7428 56.3115C64.322 56.0231 63.8251 55.866 63.315 55.8601C62.9764 55.856 62.6403 55.9186 62.3259 56.0445C62.0115 56.1703 61.7249 56.3569 61.4826 56.5935C61.2404 56.8301 61.047 57.1122 60.9138 57.4235C60.7805 57.7349 60.7099 58.0694 60.706 58.4081V58.4081ZM71.016 69.3461C71.0099 69.8561 71.1552 70.3566 71.4336 70.784C71.7119 71.2115 72.1108 71.5469 72.5797 71.7477C73.0486 71.9485 73.5665 72.0057 74.068 71.9121C74.5694 71.8185 75.0319 71.5784 75.3968 71.222C75.7618 70.8655 76.0128 70.4089 76.1182 69.9098C76.2236 69.4107 76.1786 68.8916 75.989 68.418C75.7993 67.9445 75.4736 67.5378 75.0528 67.2495C74.632 66.9611 74.1351 66.804 73.625 66.7981C73.2864 66.7938 72.9502 66.8564 72.6357 66.9822C72.3212 67.108 72.0346 67.2946 71.7923 67.5312C71.55 67.7679 71.3568 68.05 71.2235 68.3614C71.0903 68.6728 71.0198 69.0074 71.016 69.3461V69.3461ZM68.724 74.4721C68.7199 74.8605 68.831 75.2414 69.0433 75.5668C69.2556 75.8921 69.5596 76.1472 69.9168 76.2998C70.274 76.4525 70.6684 76.4958 71.0503 76.4244C71.4321 76.353 71.7842 76.17 72.062 75.8985C72.3399 75.6271 72.5312 75.2793 72.6115 74.8993C72.6918 74.5192 72.6577 74.1239 72.5134 73.7632C72.3692 73.4025 72.1213 73.0927 71.801 72.8728C71.4807 72.653 71.1025 72.533 70.714 72.5281C70.4556 72.5246 70.1991 72.5722 69.9591 72.6681C69.7191 72.764 69.5004 72.9064 69.3155 73.087C69.1307 73.2676 68.9832 73.4829 68.8818 73.7206C68.7803 73.9583 68.7266 74.2136 68.724 74.4721V74.4721ZM73.714 51.2091C73.7083 51.6982 73.8479 52.1781 74.1149 52.5879C74.382 52.9978 74.7646 53.3192 75.2143 53.5116C75.6641 53.704 76.1608 53.7587 76.6416 53.6687C77.1225 53.5788 77.5658 53.3482 77.9156 53.0063C78.2654 52.6643 78.506 52.2263 78.6068 51.7476C78.7076 51.2689 78.6642 50.7711 78.482 50.3171C78.2999 49.8631 77.9872 49.4733 77.5835 49.197C77.1798 48.9208 76.7032 48.7704 76.214 48.7651C75.5586 48.7581 74.9271 49.0116 74.4584 49.4698C73.9897 49.9281 73.7219 50.5536 73.714 51.2091V51.2091ZM68.927 49.1621C68.9213 49.6603 69.1064 50.1419 69.4446 50.5079C69.7827 50.8739 70.2481 51.0966 70.7452 51.1303C71.2424 51.1639 71.7335 51.006 72.1179 50.6889C72.5023 50.3718 72.7506 49.9195 72.812 49.4251L72.8171 48.9921C72.7671 48.4966 72.5295 48.0389 72.1529 47.7131C71.7763 47.3872 71.2893 47.2177 70.7917 47.2395C70.2942 47.2612 69.8239 47.4725 69.4771 47.83C69.1304 48.1875 68.9336 48.6641 68.927 49.1621V49.1621ZM61.8731 64.7361C61.8672 65.2895 62.0254 65.8322 62.3278 66.2957C62.6302 66.7592 63.0632 67.1227 63.5721 67.3403C64.0809 67.5579 64.6428 67.6198 65.1869 67.5182C65.7309 67.4166 66.2326 67.1561 66.6286 66.7696C67.0247 66.383 67.2973 65.8877 67.412 65.3463C67.5268 64.8049 67.4785 64.2417 67.2734 63.7277C67.0682 63.2137 66.7152 62.772 66.2592 62.4585C65.8031 62.145 65.2644 61.9736 64.711 61.9661C64.3427 61.961 63.977 62.0288 63.6348 62.1654C63.2927 62.3019 62.9808 62.5047 62.7171 62.762C62.4535 63.0194 62.2432 63.3262 62.0984 63.6649C61.9535 64.0037 61.877 64.3677 61.8731 64.7361V64.7361ZM78.424 48.0971C78.4176 48.6095 78.5632 49.1124 78.8426 49.5421C79.1219 49.9718 79.5224 50.309 79.9934 50.511C80.4645 50.7131 80.9848 50.7709 81.4887 50.6772C81.9926 50.5834 82.4573 50.3424 82.8242 49.9845C83.1911 49.6266 83.4435 49.1679 83.5497 48.6665C83.6558 48.1651 83.6109 47.6435 83.4205 47.1676C83.2302 46.6917 82.903 46.283 82.4803 45.9931C82.0577 45.7033 81.5585 45.5452 81.0461 45.5391C80.3593 45.531 79.6974 45.7959 79.2058 46.2756C78.7142 46.7552 78.433 47.4103 78.424 48.0971ZM66.995 68.6461C66.9909 68.9835 67.0869 69.3146 67.271 69.5975C67.4551 69.8804 67.719 70.1023 68.0292 70.2351C68.3394 70.368 68.6821 70.4059 69.0139 70.344C69.3457 70.2821 69.6516 70.1232 69.893 69.8873C70.1345 69.6515 70.3005 69.3494 70.3702 69.0192C70.4398 68.6889 70.41 68.3455 70.2845 68.0322C70.1589 67.719 69.9432 67.45 69.6648 67.2593C69.3863 67.0686 69.0575 66.9648 68.7201 66.9611C68.2679 66.956 67.8323 67.1306 67.5088 67.4466C67.1854 67.7625 67.0006 68.1939 66.995 68.6461ZM84.2951 47.3901C84.2902 47.8165 84.4118 48.2349 84.6446 48.5923C84.8774 48.9496 85.211 49.23 85.6031 49.3978C85.9952 49.5657 86.4282 49.6135 86.8475 49.5353C87.2668 49.4571 87.6535 49.2563 87.9587 48.9584C88.2639 48.6604 88.4739 48.2787 88.5622 47.8614C88.6505 47.4442 88.6131 47.0101 88.4548 46.614C88.2964 46.218 88.0242 45.8778 87.6725 45.6365C87.3209 45.3951 86.9055 45.2634 86.479 45.2581C86.1956 45.2546 85.9144 45.307 85.6512 45.4123C85.3881 45.5176 85.1483 45.6737 84.9455 45.8717C84.7427 46.0697 84.5808 46.3057 84.4692 46.5662C84.3576 46.8267 84.2985 47.1067 84.2951 47.3901V47.3901ZM88.6451 44.3161C88.6405 44.6389 88.7319 44.9558 88.9075 45.2267C89.0831 45.4976 89.3351 45.7103 89.6317 45.838C89.9282 45.9656 90.256 46.0024 90.5735 45.9438C90.8909 45.8851 91.1839 45.7336 91.4152 45.5084C91.6465 45.2832 91.8059 44.9944 91.8731 44.6787C91.9404 44.3629 91.9124 44.0343 91.7928 43.7344C91.6732 43.4345 91.4673 43.1768 91.2013 42.994C90.9352 42.8111 90.6209 42.7112 90.2981 42.7071C89.8656 42.7017 89.4487 42.8681 89.1388 43.1698C88.8289 43.4714 88.6514 43.8836 88.6451 44.3161V44.3161ZM92.4811 45.1031C92.4773 45.4255 92.5693 45.7419 92.7454 46.0121C92.9215 46.2822 93.1738 46.4941 93.4704 46.6208C93.7669 46.7476 94.0944 46.7835 94.4114 46.724C94.7284 46.6646 95.0206 46.5125 95.2511 46.2869C95.4816 46.0613 95.64 45.7724 95.7062 45.4568C95.7725 45.1412 95.7435 44.813 95.6232 44.5138C95.5029 44.2146 95.2965 43.9578 95.0302 43.7759C94.7639 43.594 94.4495 43.4952 94.1271 43.4921C93.6952 43.4875 93.2792 43.6547 92.9705 43.9568C92.6618 44.2589 92.4858 44.6712 92.4811 45.1031V45.1031ZM95.781 42.1591C95.7759 42.6022 95.9023 43.0369 96.1443 43.4082C96.3862 43.7795 96.7327 44.0708 97.1402 44.2452C97.5476 44.4195 97.9976 44.4692 98.4333 44.3878C98.8689 44.3065 99.2706 44.0978 99.5877 43.7881C99.9047 43.4785 100.123 43.0818 100.215 42.6482C100.306 42.2146 100.267 41.7636 100.102 41.3521C99.9378 40.9407 99.6548 40.5873 99.2893 40.3367C98.9238 40.0861 98.4922 39.9494 98.049 39.9441C97.4546 39.9371 96.8817 40.1666 96.4564 40.5819C96.0311 40.9973 95.7882 41.5646 95.781 42.1591V42.1591ZM101.255 41.2061C101.249 41.6874 101.385 42.1598 101.647 42.5635C101.909 42.9673 102.285 43.2842 102.727 43.4743C103.17 43.6643 103.658 43.7189 104.132 43.6311C104.605 43.5433 105.041 43.3171 105.386 42.9811C105.731 42.6451 105.968 42.2144 106.068 41.7435C106.168 41.2726 106.126 40.7827 105.947 40.3357C105.768 39.8888 105.461 39.5048 105.064 39.2325C104.667 38.9603 104.198 38.8118 103.717 38.8061C103.073 38.7988 102.452 39.0474 101.99 39.4973C101.529 39.9472 101.264 40.5616 101.255 41.2061ZM54.445 50.1141C54.4384 50.6264 54.5838 51.1292 54.8629 51.5588C55.142 51.9885 55.5423 52.3257 56.0131 52.5278C56.4839 52.7299 57.0041 52.7879 57.5079 52.6943C58.0116 52.6007 58.4763 52.3598 58.8431 52.0021C59.2099 51.6444 59.4624 51.1859 59.5686 50.6847C59.6748 50.1834 59.6299 49.662 59.4397 49.1862C59.2494 48.7105 58.9224 48.3019 58.4999 48.012C58.0773 47.7222 57.5784 47.5642 57.0661 47.5581C56.3797 47.5498 55.718 47.8143 55.2265 48.2936C54.7351 48.7729 54.454 49.4277 54.445 50.1141V50.1141ZM49.8321 46.9801C49.8268 47.4072 49.9482 47.8262 50.1811 48.1843C50.414 48.5423 50.7479 48.8232 51.1405 48.9914C51.5331 49.1596 51.9668 49.2076 52.3867 49.1293C52.8066 49.051 53.1938 48.8499 53.4994 48.5515C53.8049 48.2531 54.0152 47.8707 54.1034 47.4528C54.1916 47.0349 54.1538 46.6002 53.9949 46.2037C53.836 45.8072 53.5631 45.4668 53.2107 45.2255C52.8582 44.9842 52.4422 44.8528 52.0151 44.8481C51.7317 44.8446 51.4504 44.8971 51.1874 45.0024C50.9243 45.1077 50.6845 45.2638 50.4818 45.4617C50.2791 45.6597 50.1174 45.8957 50.0059 46.1563C49.8944 46.4168 49.8353 46.6967 49.8321 46.9801V46.9801ZM46.609 43.8161C46.6049 44.1385 46.6965 44.4549 46.8722 44.7253C47.048 44.9956 47.2999 45.2078 47.5963 45.3349C47.8926 45.4621 48.22 45.4984 48.537 45.4394C48.854 45.3805 49.1465 45.2288 49.3773 45.0036C49.6081 44.7784 49.7669 44.4898 49.8336 44.1743C49.9003 43.8589 49.872 43.5307 49.7522 43.2313C49.6324 42.9319 49.4265 42.6748 49.1606 42.4925C48.8946 42.3102 48.5805 42.2108 48.258 42.2071C47.8261 42.2023 47.41 42.369 47.1009 42.6706C46.7917 42.9722 46.6148 43.3842 46.609 43.8161V43.8161ZM42.7591 44.5161C42.7561 44.839 42.8491 45.1556 43.0263 45.4257C43.2035 45.6958 43.4569 45.9072 43.7543 46.0331C44.0518 46.159 44.3799 46.1937 44.6971 46.1329C45.0143 46.072 45.3064 45.9184 45.5362 45.6914C45.766 45.4644 45.9232 45.1743 45.9879 44.8579C46.0526 44.5414 46.0219 44.2129 45.8997 43.9139C45.7775 43.6149 45.5692 43.3589 45.3014 43.1784C45.0335 42.998 44.7181 42.9011 44.3951 42.9001C44.181 42.8975 43.9685 42.9372 43.7698 43.0168C43.5711 43.0964 43.39 43.2144 43.2369 43.364C43.0837 43.5136 42.9616 43.6919 42.8774 43.8887C42.7931 44.0855 42.7486 44.297 42.7461 44.5111L42.7591 44.5161ZM38.2981 41.4741C38.2928 41.9175 38.4191 42.3526 38.661 42.7243C38.903 43.0959 39.2499 43.3875 39.6576 43.562C40.0653 43.7365 40.5156 43.7862 40.9515 43.7048C41.3875 43.6234 41.7895 43.4145 42.1067 43.1045C42.4239 42.7946 42.6421 42.3975 42.7336 41.9636C42.8251 41.5296 42.7859 41.0783 42.6209 40.6666C42.4559 40.255 42.1724 39.9015 41.8065 39.651C41.4406 39.4004 41.0085 39.264 40.565 39.2591C40.2707 39.2556 39.9787 39.3102 39.7055 39.4197C39.4323 39.5291 39.1833 39.6913 38.9728 39.897C38.7622 40.1027 38.5943 40.3478 38.4786 40.6184C38.3628 40.889 38.3015 41.1798 38.2981 41.4741V41.4741ZM32.4651 40.3871C32.4586 40.8684 32.595 41.3409 32.8572 41.7447C33.1193 42.1484 33.4953 42.4654 33.9376 42.6554C34.3799 42.8454 34.8686 42.8999 35.342 42.812C35.8153 42.7241 36.2518 42.4978 36.5965 42.1617C36.9411 41.8256 37.1783 41.3948 37.2781 40.9239C37.3778 40.4529 37.3356 39.963 37.1567 39.516C36.9779 39.0691 36.6705 38.6852 36.2734 38.4131C35.8763 38.1409 35.4074 37.9926 34.9261 37.9871C34.2816 37.9796 33.6606 38.2281 33.1992 38.6781C32.7378 39.128 32.4738 39.7426 32.4651 40.3871V40.3871ZM61.9831 37.9641C61.9664 39.3257 62.3538 40.6618 63.0964 41.8032C63.839 42.9447 64.9035 43.8403 66.1551 44.3767C67.4068 44.9132 68.7894 45.0665 70.1282 44.8172C71.4669 44.5678 72.7016 43.9271 73.6762 42.976C74.6508 42.0249 75.3215 40.8062 75.6034 39.4739C75.8853 38.1417 75.7658 36.7557 75.26 35.4914C74.7543 34.227 73.8849 33.141 72.7619 32.3708C71.6389 31.6005 70.3128 31.1806 68.9511 31.1641C67.1255 31.1424 65.366 31.8466 64.0594 33.1217C62.7528 34.3968 62.006 36.1385 61.9831 37.9641V37.9641ZM66.5011 58.4711C66.4983 58.6798 66.5575 58.8846 66.6712 59.0597C66.7849 59.2347 66.948 59.3721 67.1398 59.4544C67.3316 59.5368 67.5435 59.5604 67.7488 59.5222C67.954 59.4841 68.1433 59.3859 68.2927 59.2401C68.4421 59.0944 68.5449 58.9075 68.5881 58.7033C68.6313 58.4991 68.613 58.2867 68.5354 58.0929C68.4578 57.8991 68.3245 57.7327 68.1523 57.6147C67.9801 57.4967 67.7768 57.4324 67.568 57.4301C67.2886 57.4269 67.0193 57.5347 66.8193 57.7298C66.6192 57.925 66.5048 58.1916 66.5011 58.4711ZM54.0011 45.2121C53.9987 45.4207 54.0583 45.6254 54.1722 45.8001C54.2862 45.9749 54.4494 46.112 54.6412 46.194C54.8331 46.2761 55.0449 46.2994 55.25 46.261C55.4551 46.2226 55.6442 46.1243 55.7934 45.9784C55.9426 45.8326 56.0453 45.6457 56.0883 45.4416C56.1313 45.2374 56.1128 45.0251 56.0352 44.8314C55.9576 44.6377 55.8242 44.4714 55.6521 44.3535C55.4799 44.2356 55.2767 44.1714 55.068 44.1691C54.9294 44.1673 54.7919 44.193 54.6632 44.2445C54.5346 44.296 54.4173 44.3724 54.3182 44.4693C54.2191 44.5661 54.1401 44.6816 54.0857 44.8091C54.0312 44.9365 54.0025 45.0735 54.0011 45.2121V45.2121ZM46.859 47.2741C46.8565 47.4828 46.9159 47.6876 47.0298 47.8625C47.1436 48.0375 47.3069 48.1747 47.4988 48.2568C47.6906 48.339 47.9026 48.3624 48.1078 48.324C48.313 48.2857 48.5021 48.1873 48.6514 48.0414C48.8007 47.8955 48.9033 47.7086 48.9463 47.5044C48.9893 47.3001 48.9708 47.0877 48.893 46.894C48.8153 46.7002 48.6818 46.534 48.5095 46.4161C48.3372 46.2983 48.1338 46.2343 47.9251 46.2321C47.7866 46.2301 47.649 46.2555 47.5203 46.3069C47.3916 46.3582 47.2744 46.4345 47.1753 46.5314C47.0763 46.6282 46.9973 46.7437 46.943 46.8711C46.8887 46.9986 46.8602 47.1355 46.859 47.2741V47.2741ZM73.4591 57.0291C73.4567 57.2377 73.5163 57.4424 73.6302 57.6171C73.7442 57.7919 73.9074 57.929 74.0992 58.011C74.2911 58.0931 74.503 58.1164 74.708 58.078C74.9131 58.0396 75.1022 57.9413 75.2514 57.7954C75.4007 57.6496 75.5033 57.4627 75.5463 57.2586C75.5893 57.0544 75.5708 56.8421 75.4932 56.6484C75.4156 56.4547 75.2822 56.2884 75.1101 56.1705C74.9379 56.0526 74.7347 55.9884 74.526 55.9861C74.3874 55.9842 74.2498 56.0097 74.1211 56.0612C73.9923 56.1127 73.8751 56.1891 73.7759 56.286C73.6768 56.3829 73.5978 56.4984 73.5434 56.6259C73.4891 56.7534 73.4604 56.8904 73.4591 57.0291ZM73.359 74.7661C73.3563 74.9748 73.4155 75.1796 73.5292 75.3547C73.6429 75.5297 73.806 75.6671 73.9978 75.7494C74.1897 75.8318 74.4016 75.8554 74.6068 75.8172C74.812 75.7791 75.0013 75.6809 75.1507 75.5351C75.3001 75.3894 75.4029 75.2026 75.4461 74.9983C75.4893 74.7941 75.471 74.5817 75.3934 74.3879C75.3158 74.1941 75.1825 74.0277 75.0103 73.9097C74.8381 73.7917 74.6348 73.7275 74.4261 73.7251C74.1467 73.7221 73.8775 73.83 73.6775 74.0251C73.4775 74.2203 73.363 74.4867 73.359 74.7661ZM65.888 75.9181C65.8851 76.1271 65.9442 76.3322 66.058 76.5076C66.1717 76.683 66.3349 76.8206 66.527 76.9032C66.719 76.9857 66.9312 77.0094 67.1367 76.9713C67.3422 76.9331 67.5318 76.8348 67.6814 76.6889C67.831 76.5429 67.9339 76.3558 67.9771 76.1513C68.0204 75.9468 68.0019 75.7341 67.9241 75.5401C67.8463 75.346 67.7128 75.1795 67.5403 75.0615C67.3678 74.9434 67.1641 74.8793 66.9551 74.8771C66.6757 74.8741 66.4065 74.982 66.2065 75.1771C66.0065 75.3723 65.892 75.6387 65.888 75.9181ZM63.9131 83.0421C63.5912 83.0395 63.279 83.1518 63.0325 83.3587C62.786 83.5656 62.6213 83.8537 62.568 84.1711V84.1961C62.5674 84.2085 62.5658 84.2209 62.5631 84.2331C62.5563 84.2848 62.5526 84.3369 62.552 84.3891C62.5493 84.7216 62.669 85.0435 62.8882 85.2936C63.1075 85.5436 63.411 85.7043 63.7411 85.7451H63.7611H63.7671C63.8091 85.7451 63.85 85.7511 63.891 85.7521H63.896C64.2168 85.7539 64.5279 85.6421 64.774 85.4363C65.02 85.2305 65.1852 84.9441 65.24 84.6281C65.2451 84.6067 65.2485 84.585 65.25 84.5631C65.2741 84.3863 65.2626 84.2065 65.2163 84.0342C65.17 83.8619 65.0899 83.7006 64.9804 83.5597C64.871 83.4188 64.7345 83.3011 64.5791 83.2136C64.4236 83.1261 64.2523 83.0705 64.0751 83.0501C64.0234 83.0427 63.9713 83.0387 63.919 83.0381L63.9131 83.0421ZM83.982 113.1C83.912 113.1 83.841 113.1 83.771 113.108H83.7481C83.2426 113.159 82.7735 113.394 82.43 113.768C82.0865 114.143 81.8925 114.63 81.885 115.138C81.8843 115.218 81.8877 115.297 81.8951 115.376V115.391L81.9001 115.438C81.9652 115.929 82.2042 116.381 82.5736 116.711C82.9431 117.041 83.4186 117.228 83.914 117.238H83.9291C84.0066 117.239 84.084 117.235 84.161 117.226C84.6862 117.173 85.1713 116.921 85.5171 116.522C85.863 116.123 86.0435 115.607 86.0219 115.08C86.0004 114.553 85.7783 114.053 85.401 113.684C85.0238 113.315 84.5198 113.103 83.992 113.093L83.982 113.1ZM78.802 105.37C78.749 105.369 78.6959 105.371 78.643 105.376H78.633H78.6141C78.2098 105.417 77.8346 105.605 77.5599 105.904C77.2852 106.204 77.1301 106.594 77.1241 107C77.1241 107.063 77.1241 107.127 77.1321 107.191C77.1733 107.595 77.3612 107.969 77.6601 108.244C77.959 108.519 78.3482 108.674 78.7541 108.681H78.76C78.812 108.681 78.866 108.681 78.919 108.676C78.928 108.676 78.9371 108.676 78.9471 108.676C79.3518 108.636 79.7276 108.448 80.0028 108.148C80.2781 107.849 80.4337 107.459 80.44 107.052C80.441 106.989 80.4381 106.925 80.4311 106.862C80.4311 106.846 80.4311 106.829 80.4251 106.815C80.4191 106.801 80.4251 106.798 80.4251 106.79C80.3681 106.4 80.174 106.043 79.8777 105.783C79.5813 105.523 79.2022 105.378 78.8081 105.372L78.802 105.37ZM82.7821 104.963C82.7411 104.963 82.7011 104.963 82.6601 104.971C82.4029 104.996 82.1638 105.114 81.9889 105.305C81.8139 105.495 81.7153 105.743 81.7121 106.001C81.7111 106.042 81.7128 106.083 81.7171 106.124V106.157C81.7177 106.167 81.7177 106.177 81.7171 106.187C81.7566 106.43 81.8797 106.651 82.065 106.813C82.2503 106.974 82.4862 107.066 82.732 107.072H82.7461C82.7851 107.072 82.8241 107.072 82.8641 107.066C83.1218 107.041 83.3613 106.922 83.5367 106.732C83.712 106.541 83.8108 106.293 83.8141 106.034C83.8143 105.994 83.8117 105.954 83.8061 105.914C83.7811 105.657 83.6627 105.419 83.4734 105.243C83.2841 105.068 83.037 104.968 82.779 104.963H82.7821ZM79.695 95.0701C79.6509 95.0694 79.6069 95.0717 79.5631 95.0771H79.5431C79.199 95.1116 78.881 95.2764 78.6544 95.5376C78.4277 95.7988 78.3095 96.1368 78.3238 96.4824C78.3381 96.8279 78.4839 97.1549 78.7314 97.3965C78.9788 97.6381 79.3093 97.776 79.6551 97.7821H79.6631C79.7142 97.7828 79.7653 97.7802 79.8161 97.7741C80.1469 97.7408 80.4539 97.5871 80.6788 97.3422C80.9037 97.0974 81.0309 96.7785 81.036 96.4461C81.036 96.3951 81.0361 96.346 81.0281 96.29C81.0267 96.2716 81.0244 96.2532 81.021 96.2351C80.9759 95.916 80.8186 95.6234 80.5772 95.4099C80.3358 95.1964 80.0263 95.0759 79.7041 95.0701H79.695ZM80.6661 99.3451C80.5812 99.3447 80.4965 99.3487 80.4121 99.357H80.383C80.0584 99.3878 79.7432 99.4826 79.4555 99.6361C79.1678 99.7896 78.9135 99.9987 78.7073 100.251C78.501 100.504 78.347 100.795 78.2541 101.107C78.1612 101.42 78.1312 101.748 78.1661 102.072L78.172 102.135C78.2476 102.727 78.5343 103.272 78.9794 103.67C79.4245 104.068 79.9982 104.291 80.5951 104.3H80.6031C80.6969 104.302 80.7908 104.298 80.8841 104.288C81.514 104.227 82.0966 103.927 82.5123 103.449C82.928 102.972 83.1454 102.354 83.1198 101.722C83.0942 101.089 82.8276 100.491 82.3747 100.048C81.9218 99.6064 81.3169 99.3543 80.6841 99.344L80.6661 99.3451ZM76.573 96.745C76.5089 96.7442 76.4449 96.7469 76.3811 96.7531C75.9645 96.7958 75.578 96.9898 75.2947 97.2982C75.0115 97.6067 74.8511 98.0083 74.844 98.4271C74.8425 98.4938 74.8452 98.5606 74.852 98.6271C74.8942 99.0437 75.088 99.4303 75.3967 99.7134C75.7054 99.9964 76.1073 100.156 76.526 100.162H76.531C76.5948 100.164 76.6587 100.161 76.7221 100.153C77.139 100.111 77.526 99.9174 77.8094 99.6088C78.0928 99.3001 78.2528 98.898 78.2591 98.4791C78.2591 98.4131 78.259 98.35 78.25 98.284C78.25 98.267 78.25 98.251 78.25 98.234C78.1957 97.8275 77.9973 97.454 77.6908 97.1815C77.3843 96.909 76.9901 96.7555 76.5801 96.749L76.573 96.745ZM78.3091 89.9111C78.2411 89.9111 78.17 89.9111 78.099 89.9191H78.0711C77.552 89.9721 77.0704 90.2138 76.7176 90.5983C76.3649 90.9828 76.1654 91.4833 76.1571 92.0051C76.1563 92.0862 76.1599 92.1673 76.1681 92.2481C76.1681 92.2741 76.1731 92.3001 76.1761 92.3241C76.2449 92.8277 76.4916 93.2901 76.8716 93.6277C77.2516 93.9653 77.7399 94.1559 78.2481 94.1651H78.2561C78.3363 94.1661 78.4165 94.1618 78.4961 94.1521C79.0158 94.1005 79.4984 93.8593 79.8517 93.4745C80.2049 93.0897 80.404 92.5883 80.411 92.0661C80.4117 91.9846 80.4081 91.9031 80.4001 91.8221C80.4001 91.8161 80.4001 91.8121 80.4001 91.8061C80.4001 91.8001 80.4001 91.7751 80.3951 91.7591C80.3285 91.253 80.0823 90.7878 79.7015 90.448C79.3206 90.1083 78.8304 89.9166 78.32 89.9081L78.3091 89.9111ZM83.4231 107.963C82.8759 107.963 82.3502 108.176 81.9579 108.558C81.5657 108.939 81.3379 109.459 81.323 110.006C81.3222 110.086 81.3259 110.165 81.3341 110.244C81.3846 110.748 81.6178 111.215 81.9896 111.558C82.3614 111.902 82.8461 112.097 83.352 112.107H83.3661C83.4442 112.108 83.5223 112.104 83.6001 112.097C84.1057 112.046 84.575 111.811 84.919 111.437C85.2629 111.063 85.4576 110.575 85.466 110.067C85.4669 109.987 85.4632 109.907 85.4551 109.827C85.4551 109.822 85.4551 109.818 85.4551 109.812C85.4501 109.779 85.4461 109.748 85.4421 109.712C85.3659 109.23 85.1222 108.789 84.7537 108.469C84.3852 108.148 83.9154 107.968 83.427 107.959L83.4231 107.963ZM75.6101 93.9481C75.5701 93.9481 75.5311 93.9481 75.4911 93.9481C75.2337 93.974 74.9949 94.0938 74.82 94.2844C74.6452 94.4751 74.5467 94.7234 74.5431 94.9821C74.5431 95.0211 74.5431 95.0611 74.5431 95.1041C74.569 95.3597 74.6874 95.597 74.876 95.7715C75.0645 95.9461 75.3102 96.0458 75.5671 96.0521H75.581C75.618 96.0521 75.6541 96.0521 75.6921 96.0521H75.6991C75.9577 96.0255 76.1974 95.9048 76.3726 95.7128C76.5478 95.5208 76.6463 95.271 76.6491 95.0111C76.6491 94.9723 76.647 94.9336 76.643 94.8951C76.6163 94.639 76.497 94.4014 76.3075 94.2271C76.1181 94.0527 75.8715 93.9535 75.6141 93.9481H75.6101ZM79.4941 110.323C79.4551 110.321 79.416 110.321 79.3771 110.323C79.1186 110.35 78.8793 110.472 78.7042 110.664C78.5291 110.856 78.4305 111.105 78.427 111.365C78.425 111.403 78.425 111.441 78.427 111.479C78.427 111.496 78.4271 111.513 78.4331 111.528V111.54C78.4724 111.784 78.5955 112.006 78.7812 112.168C78.9669 112.33 79.2035 112.423 79.4501 112.429H79.464C79.501 112.431 79.5381 112.431 79.5751 112.429H79.583C79.8414 112.403 80.0811 112.282 80.256 112.09C80.431 111.899 80.5289 111.649 80.531 111.389C80.5335 111.35 80.5335 111.312 80.531 111.273C80.5044 111.016 80.3845 110.777 80.194 110.603C80.0035 110.428 79.7555 110.329 79.497 110.325L79.4941 110.323ZM74.1731 86.3651C74.095 86.3644 74.0168 86.3678 73.9391 86.3751C73.4254 86.4264 72.9486 86.6651 72.5998 87.0457C72.251 87.4262 72.0546 87.9219 72.0481 88.4381C72.0468 88.5182 72.0504 88.5984 72.0591 88.6781V88.6921C72.0591 88.7141 72.0591 88.7331 72.0661 88.7531C72.1331 89.2503 72.376 89.7071 72.7508 90.0408C73.1255 90.3745 73.6074 90.5629 74.109 90.5721H74.122C74.6787 90.5777 75.2151 90.3629 75.6139 89.9745C76.0128 89.5861 76.2419 89.0557 76.2511 88.4991C76.2519 88.4179 76.2482 88.3368 76.24 88.2561C76.1875 87.7432 75.9487 87.2675 75.5688 86.919C75.189 86.5705 74.6945 86.3734 74.1791 86.3651H74.1731ZM73.073 77.0651C72.9795 77.0639 72.8861 77.0683 72.7931 77.0781C72.1874 77.1378 71.625 77.4186 71.2134 77.8669C70.8018 78.3152 70.5699 78.8995 70.562 79.5081C70.5611 79.6032 70.5651 79.6983 70.5741 79.7931C70.5741 79.8171 70.58 79.8411 70.583 79.8651C70.66 80.4546 70.9463 80.9969 71.3899 81.3929C71.8334 81.7889 72.4046 82.0122 72.9991 82.0221H73.0061C73.0932 82.0228 73.1803 82.0192 73.2671 82.0111H73.2901C73.8951 81.9502 74.4566 81.669 74.8677 81.2209C75.2787 80.7728 75.5106 80.1891 75.5191 79.5811C75.521 79.4859 75.517 79.3907 75.5071 79.2961C75.5071 79.2761 75.5071 79.2561 75.5011 79.2371C75.4263 78.6464 75.1416 78.1023 74.699 77.7041C74.2564 77.3059 73.6853 77.0801 73.0901 77.0681L73.073 77.0651ZM76.3501 81.8891C75.8664 81.8848 75.4004 82.0713 75.0533 82.4083C74.7063 82.7452 74.5061 83.2054 74.4961 83.6891C74.4961 83.7591 74.496 83.8301 74.505 83.8991C74.505 83.9211 74.5101 83.9431 74.5151 83.9641C74.5747 84.3942 74.7858 84.789 75.1104 85.0775C75.435 85.366 75.8519 85.5293 76.286 85.5381H76.297C76.368 85.5381 76.4371 85.5381 76.5091 85.5281C76.9543 85.4826 77.3674 85.2753 77.67 84.9456C77.9727 84.6159 78.1438 84.1866 78.151 83.7391C78.1516 83.6686 78.1486 83.5982 78.1421 83.5281V83.4911V83.4571V83.4501C78.1395 83.4399 78.1378 83.4295 78.1371 83.4191C78.0681 82.9964 77.8529 82.6113 77.529 82.3309C77.2052 82.0506 76.7933 81.8928 76.365 81.8851L76.3501 81.8891ZM72.0501 83.2571C71.7196 83.2912 71.4129 83.4453 71.1883 83.6902C70.9637 83.9351 70.8366 84.2538 70.831 84.5861C70.831 84.6381 70.8311 84.6861 70.8381 84.7421C70.872 85.0742 71.027 85.3822 71.2737 85.6073C71.5203 85.8323 71.8412 85.9586 72.1751 85.9621C72.2245 85.964 72.2739 85.962 72.323 85.9561C72.6543 85.9227 72.9618 85.7686 73.1868 85.5231C73.4118 85.2777 73.5386 84.958 73.5431 84.6251C73.5434 84.5729 73.5407 84.5209 73.5351 84.4691C73.5013 84.1383 73.3471 83.8315 73.1019 83.6069C72.8567 83.3823 72.5375 83.2557 72.2051 83.2511C72.1551 83.2511 72.1051 83.2511 72.0501 83.2571V83.2571ZM45.164 37.7571H45.151C44.9201 37.7571 44.6957 37.8331 44.5122 37.9733C44.3288 38.1136 44.1967 38.3102 44.1361 38.5331C44.1321 38.5438 44.1291 38.5548 44.1271 38.5661C44.1083 38.642 44.0983 38.7198 44.0971 38.7981C44.0936 39.0378 44.1721 39.2716 44.3196 39.4607C44.467 39.6499 44.6747 39.783 44.9081 39.8381H44.922C44.9935 39.8549 45.0666 39.864 45.1401 39.8651H45.146C45.3842 39.8662 45.6157 39.7868 45.8031 39.6398C45.9904 39.4927 46.1226 39.2867 46.1781 39.0551C46.1961 38.9793 46.2058 38.9019 46.2071 38.8241C46.2102 38.5845 46.1317 38.351 45.9845 38.162C45.8373 37.973 45.6301 37.8397 45.3971 37.7841H45.3811C45.3102 37.768 45.2378 37.7593 45.1651 37.7581L45.164 37.7571ZM89.187 47.7161C89.182 47.9219 89.238 48.1245 89.3481 48.2985C89.4582 48.4724 89.6175 48.6098 89.8056 48.6933C89.9938 48.7768 90.2025 48.8026 90.4054 48.7675C90.6082 48.7323 90.7961 48.6379 90.9452 48.496C91.0944 48.3541 91.1981 48.1712 91.2433 47.9703C91.2885 47.7695 91.2732 47.5598 91.1992 47.3676C91.1252 47.1755 90.996 47.0097 90.8277 46.891C90.6595 46.7724 90.4599 46.7063 90.2541 46.7011C90.1173 46.6973 89.9811 46.7207 89.8534 46.7697C89.7256 46.8188 89.6088 46.8926 89.5097 46.9869C89.4105 47.0812 89.331 47.1942 89.2756 47.3193C89.2202 47.4444 89.1902 47.5793 89.187 47.7161" fill="url(#paint1_linear)"/>
<defs>
<linearGradient id="paint0_linear" x1="7.59712" y1="68.6009" x2="7.59712" y2="73.5085" gradientUnits="userSpaceOnUse">
<stop stop-color="#85A8AA"/>
<stop offset="0.994" stop-color="#77A2AC"/>
</linearGradient>
<linearGradient id="paint1_linear" x1="70.1767" y1="47.776" x2="70.1767" y2="134.539" gradientUnits="userSpaceOnUse">
<stop stop-color="#FFC35D"/>
<stop offset="0.186" stop-color="#FDB447"/>
<stop offset="0.608" stop-color="#FB971B"/>
<stop offset="0.822" stop-color="#FB8C0B"/>
</linearGradient>
</defs>
</svg>
