<svg width="245" height="245" viewBox="0 0 245 245" fill="none" xmlns="http://www.w3.org/2000/svg">
<g clip-path="url(#clip0)">
<path d="M236.984 129.302V68.5687C236.984 39.7778 213.562 16.3545 184.77 16.3545C160.721 16.3545 140.421 32.6987 134.385 54.8616C125.474 53.5438 116.215 53.7213 107.391 55.4023C105.461 55.7698 104.194 57.6322 104.562 59.5625C104.921 61.5044 106.839 62.7648 108.722 62.3915C116.649 60.8823 124.97 60.7033 132.987 61.8489C132.703 64.0496 132.556 66.2924 132.556 68.5692V90.8431C132.212 90.8283 113.478 90.8168 113.478 90.8168C101.819 90.8168 92.0688 99.1415 89.8547 110.159C88.1158 109.413 86.3352 108.766 84.524 108.22V103.272C88.0134 99.3602 90.5931 94.6942 92.0363 89.575C95.5203 87.8165 99.0489 83.9678 101.138 79.5329C104.068 73.4988 103.107 67.3863 97.1061 64.5118C95.8563 63.9233 94.5906 63.5892 93.3464 63.5079V48.4375C93.3464 35.1506 82.5368 24.3409 69.2498 24.3409H51.2074C37.9204 24.3409 27.1108 35.1506 27.1108 48.4375V63.5079C25.8662 63.5888 24.6005 63.9228 23.3506 64.5118C17.3495 67.3882 16.3896 73.4969 19.3191 79.5329C21.4074 83.9673 24.935 87.8155 28.4205 89.5746C29.8642 94.6947 32.4438 99.3607 35.9332 103.272V108.221C14.6871 114.602 0 134.228 0 156.58C0 159.404 2.29783 161.702 5.12203 161.702H47.0204C51.8075 174.883 59.9398 186.541 70.6906 195.623C65.3399 203.694 62.2707 213.327 62.2707 223.523C62.2707 226.347 64.5685 228.644 67.3927 228.644H177.607C180.431 228.644 182.729 226.346 182.729 223.522C182.729 201.172 168.041 181.544 146.795 175.163V169.747C148.952 167.33 150.763 164.626 152.169 161.702H190.374C187.651 168.446 183.939 174.728 179.302 180.428C178.063 181.952 178.293 184.192 179.817 185.433C180.476 185.969 181.271 186.23 182.059 186.23C183.093 186.23 184.118 185.782 184.821 184.918C190.514 177.92 194.933 170.119 197.987 161.702H239.877C242.701 161.702 244.999 159.404 244.999 156.58C245 146.651 242.087 137.247 236.984 129.302ZM139.672 68.5687C139.672 43.7012 159.903 23.4695 184.771 23.4695C209.639 23.4695 229.87 43.7007 229.87 68.5687V120.553C224.157 114.932 217.079 110.633 209.066 108.225V101.445C214.689 95.134 217.889 86.9202 217.889 78.2534V61.3589C217.889 53.3667 211.386 46.8642 203.394 46.8642H165.978C157.985 46.8642 151.483 53.3667 151.483 61.3589V78.2534C151.483 87.0083 154.747 95.3014 160.476 101.637V108.217C158.666 108.762 156.885 109.411 155.145 110.158C153.474 101.843 147.51 95.0646 139.672 92.2385V68.5687H139.672ZM198.494 101.302L189.879 107.093C186.724 109.213 182.647 109.213 179.492 107.093L170.876 101.302C163.188 96.1336 158.597 87.5179 158.597 78.2534V61.3589C158.597 57.2896 161.908 53.9787 165.978 53.9787H203.394C207.463 53.9787 210.774 57.2891 210.774 61.3589V78.2534C210.774 87.5174 206.183 96.1336 198.494 101.302ZM167.591 107.665L175.523 112.997C178.306 114.868 181.496 115.803 184.685 115.803C187.874 115.803 191.065 114.868 193.847 112.997L201.951 107.55V113.154C201.951 122.628 194.244 130.335 184.77 130.335C175.297 130.335 167.59 122.628 167.59 113.154V107.665H167.591ZM150.629 149.902C149.177 150.398 148.092 151.593 147.726 153.101C146.095 159.849 142.024 165.698 136.264 169.57L127.673 175.344C124.531 177.455 120.47 177.455 117.327 175.344L108.736 169.57C102.977 165.698 98.9058 159.85 97.2731 153.099C96.9076 151.592 95.8218 150.397 94.3714 149.902C92.5655 149.285 89.6427 146.551 88.0268 142.976C86.072 138.653 89.3815 136.34 91.0309 137.407C92.1219 138.113 93.5154 138.148 94.6518 137.523C95.7897 136.898 96.497 135.703 96.497 134.405V125.443C96.497 120.866 100.221 117.142 104.798 117.142H140.202C144.779 117.142 148.503 120.866 148.503 125.443V134.404C148.503 135.702 149.209 136.897 150.348 137.522C151.485 138.148 152.873 138.103 153.969 137.407C156.129 136.5 159.521 137.807 156.973 142.976C155.301 146.526 152.434 149.285 150.629 149.902ZM105.32 175.846L113.358 181.249C116.135 183.115 119.318 184.048 122.5 184.048C125.683 184.048 128.866 183.115 131.642 181.249L139.681 175.846V180.097C139.681 189.57 131.974 197.277 122.5 197.277C113.027 197.277 105.32 189.57 105.32 180.097V175.846ZM113.479 97.9318H131.521C140.009 97.9318 147.063 104.192 148.307 112.338C145.951 110.875 143.174 110.027 140.202 110.027H104.798C101.826 110.027 99.0489 110.875 96.6922 112.338C97.9368 104.192 104.991 97.9318 113.479 97.9318ZM43.0492 109.372L51.0878 114.775C53.8646 116.641 57.0467 117.574 60.2293 117.574C63.4115 117.574 66.595 116.641 69.3709 114.775L77.41 109.371V113.622C77.41 123.096 69.7025 130.803 60.2293 130.803C50.7561 130.803 43.0492 123.096 43.0492 113.622V109.372ZM51.2084 31.4564H69.2508C77.7392 31.4564 84.7925 37.7169 86.0371 45.8626C83.6804 44.3993 80.9031 43.5519 77.9311 43.5519H42.5276C39.5555 43.5519 36.7787 44.3993 34.422 45.8626C35.6666 37.7169 42.7204 31.4564 51.2084 31.4564ZM32.1022 83.428C30.2958 82.8108 27.4285 80.0507 25.7571 76.502C24.9493 74.7865 24.656 73.3285 24.9307 72.3954C24.8302 71.4159 27.1117 69.4592 28.7607 70.9321C29.7292 71.7972 31.2442 71.6723 32.3821 71.0484C33.5195 70.4234 34.2273 69.2286 34.2273 67.9299V58.9677C34.2273 54.3907 37.9511 50.6669 42.5281 50.6669H77.9315C82.5085 50.6669 86.2323 54.3907 86.2323 58.9677V67.9299C86.2323 69.2281 86.9396 70.4234 88.0775 71.0484C89.2154 71.6723 90.8003 71.8695 91.6989 70.9321C92.9407 69.6367 95.2146 70.9708 95.5289 72.3954C95.7385 73.3452 95.5103 74.7865 94.7025 76.502C93.0311 80.0511 90.1638 82.8107 88.3608 83.4271C86.9071 83.9228 85.8218 85.1186 85.4562 86.6269C83.8249 93.3749 79.7537 99.2234 73.9933 103.096L65.4026 108.869C62.2606 110.981 58.1999 110.982 55.057 108.869L46.4667 103.096C40.7064 99.2234 36.6352 93.3745 35.0029 86.626C34.6383 85.1191 33.5535 83.9238 32.1022 83.428ZM36.027 115.668C37.0701 128.109 47.5228 137.918 60.2293 137.918C72.9358 137.918 83.388 128.111 84.4322 115.67C86.1237 116.269 87.7775 116.976 89.3819 117.781V129.983C88.1373 130.064 86.8712 130.398 85.6218 130.987C81.2276 133.057 77.8612 138.09 81.5903 146.009C83.2167 149.462 85.7175 152.555 88.3904 154.588H7.16051C7.96681 136.905 19.455 121.514 36.027 115.668ZM54.6383 161.702H92.8311C94.2374 164.626 96.0481 167.33 98.2048 169.747V175.166C89.0431 177.919 81.1012 183.139 75.0298 189.982C66.016 182.298 59.0483 172.617 54.6383 161.702ZM175.569 221.53H69.4312C70.2394 203.852 81.7491 188.436 98.333 182.598C99.5896 194.824 109.948 204.392 122.5 204.392C135.052 204.392 145.411 194.823 146.667 182.597C163.258 188.433 174.763 203.835 175.569 221.53ZM156.61 154.587C159.283 152.555 161.783 149.461 163.41 146.007C167.139 138.089 163.772 133.056 159.378 130.986C158.128 130.398 156.863 130.064 155.618 129.982V117.78C157.234 116.97 158.901 116.259 160.605 115.658C161.862 127.883 172.221 137.45 184.771 137.45C197.323 137.45 207.681 127.883 208.938 115.658C225.517 121.497 237.032 136.921 237.84 154.587H156.61Z" fill="#858EA1"/>
<path d="M48.045 74.7326C50.3291 74.7326 52.1808 72.8809 52.1808 70.5968C52.1808 68.3126 50.3291 66.4609 48.045 66.4609C45.7608 66.4609 43.9092 68.3126 43.9092 70.5968C43.9092 72.8809 45.7608 74.7326 48.045 74.7326Z" fill="#858EA1"/>
<path d="M72.0274 74.7326C74.3116 74.7326 76.1632 72.8809 76.1632 70.5968C76.1632 68.3126 74.3116 66.4609 72.0274 66.4609C69.7433 66.4609 67.8916 68.3126 67.8916 70.5968C67.8916 72.8809 69.7433 74.7326 72.0274 74.7326Z" fill="#858EA1"/>
<path d="M50.9402 91.2517C53.1639 93.4687 56.5498 94.7401 60.2296 94.7401C63.9099 94.7401 67.2959 93.4687 69.5195 91.2512C70.9106 89.864 70.9139 87.6112 69.5267 86.2201C68.1395 84.8281 65.8866 84.8257 64.4956 86.2129C63.8424 86.8642 62.3332 87.625 60.2296 87.625C58.1266 87.625 56.6168 86.8642 55.9637 86.2129C54.5721 84.8262 52.3198 84.8291 50.9326 86.2206C49.5453 87.6121 49.5492 89.8645 50.9402 91.2517Z" fill="#858EA1"/>
<path d="M110.316 141.207C112.6 141.207 114.451 139.356 114.451 137.071C114.451 134.787 112.6 132.936 110.316 132.936C108.031 132.936 106.18 134.787 106.18 137.071C106.18 139.356 108.031 141.207 110.316 141.207Z" fill="#858EA1"/>
<path d="M134.298 141.207C136.582 141.207 138.434 139.356 138.434 137.071C138.434 134.787 136.582 132.936 134.298 132.936C132.014 132.936 130.162 134.787 130.162 137.071C130.162 139.356 132.014 141.207 134.298 141.207Z" fill="#858EA1"/>
<path d="M126.766 152.688C126.112 153.339 124.603 154.1 122.5 154.1C120.397 154.1 118.887 153.34 118.234 152.688C116.843 151.301 114.591 151.304 113.203 152.696C111.816 154.087 111.82 156.34 113.211 157.727C115.434 159.943 118.82 161.215 122.5 161.215C126.18 161.215 129.565 159.943 131.789 157.727C133.181 156.34 133.184 154.087 131.797 152.696C130.41 151.304 128.158 151.3 126.766 152.688Z" fill="#858EA1"/>
<path d="M172.587 74.2648C174.871 74.2648 176.722 72.4131 176.722 70.129C176.722 67.8448 174.871 65.9932 172.587 65.9932C170.302 65.9932 168.451 67.8448 168.451 70.129C168.451 72.4131 170.302 74.2648 172.587 74.2648Z" fill="#858EA1"/>
<path d="M196.568 74.2648C198.853 74.2648 200.704 72.4131 200.704 70.129C200.704 67.8448 198.853 65.9932 196.568 65.9932C194.284 65.9932 192.433 67.8448 192.433 70.129C192.433 72.4131 194.284 74.2648 196.568 74.2648Z" fill="#858EA1"/>
<path d="M189.036 85.7454C188.383 86.3967 186.874 87.1575 184.77 87.1575C182.667 87.1575 181.157 86.3967 180.504 85.7449C179.113 84.3587 176.86 84.3611 175.473 85.7526C174.086 87.1441 174.09 89.3965 175.481 90.7837C177.704 93.0007 181.09 94.2721 184.77 94.2721C188.45 94.2721 191.836 93.0007 194.06 90.7832C195.451 89.396 195.454 87.1431 194.067 85.7521C192.68 84.3601 190.427 84.3582 189.036 85.7454Z" fill="#858EA1"/>
</g>
<defs>
<clipPath id="clip0">
<rect width="245" height="245" fill="white"/>
</clipPath>
</defs>
</svg>
