<svg width="548" height="362" viewBox="0 0 548 362" fill="none" xmlns="http://www.w3.org/2000/svg">
<path d="M131.655 76.343C131.655 76.343 125.046 71.8473 115.381 75.3108C105.716 78.7743 103.543 91.7912 105.928 102.355C108.312 112.92 95 148.986 95 148.986C95 148.986 101.917 158.714 126.091 154.991C126.091 154.991 144.116 122.235 142.777 98.7182C141.438 75.2018 131.655 76.343 131.655 76.343Z" fill="#0E3944"/>
<path d="M109.915 356.839H47.3442C46.2448 356.839 45.3535 357.731 45.3535 358.83V359.924C45.3535 361.023 46.2448 361.914 47.3442 361.914H109.915C111.014 361.914 111.906 361.023 111.906 359.924V358.83C111.906 357.731 111.014 356.839 109.915 356.839Z" fill="#ADBEC4"/>
<path d="M506.401 356.839H489.282C488.182 356.839 487.291 357.731 487.291 358.83V359.924C487.291 361.023 488.182 361.914 489.282 361.914H506.401C507.501 361.914 508.392 361.023 508.392 359.924V358.83C508.392 357.731 507.501 356.839 506.401 356.839Z" fill="#ADBEC4"/>
<path d="M227.667 356.839H165.097C163.997 356.839 163.106 357.731 163.106 358.83V359.924C163.106 361.023 163.997 361.914 165.097 361.914H227.667C228.767 361.914 229.658 361.023 229.658 359.924V358.83C229.658 357.731 228.767 356.839 227.667 356.839Z" fill="#ADBEC4"/>
<path d="M319.544 356.839H256.973C255.874 356.839 254.982 357.731 254.982 358.83V359.924C254.982 361.023 255.874 361.914 256.973 361.914H319.544C320.643 361.914 321.535 361.023 321.535 359.924V358.83C321.535 357.731 320.643 356.839 319.544 356.839Z" fill="#ADBEC4"/>
<path d="M432.066 356.839H346.769C345.67 356.839 344.778 357.731 344.778 358.83V359.924C344.778 361.023 345.67 361.914 346.769 361.914H432.066C433.165 361.914 434.057 361.023 434.057 359.924V358.83C434.057 357.731 433.165 356.839 432.066 356.839Z" fill="#ADBEC4"/>
<path d="M138.519 118.348C147.603 115.443 153.167 123.003 158.368 137.084C163.569 151.165 165.324 152.575 165.324 152.575L185.415 165.484L183.746 173.007C183.746 173.007 164.624 165.52 160.001 160.758C155.378 155.995 142.079 131.874 142.079 131.874L138.519 118.348Z" fill="#EF6E4B"/>
<path d="M94.2407 209.301C94.2407 209.301 90.2992 229.263 90.9476 259.312C90.9476 259.312 75.4153 282.216 88.2336 347.566H94.9573C94.9573 347.566 100.45 291.965 104.653 276.899C108.855 261.834 124.374 257.211 125.214 211.402L94.2407 209.301Z" fill="#FF8B66"/>
<path d="M63.5099 267.998C59.6035 255.122 49.5617 233.557 23.8003 204.325C23.2058 204.098 22.5641 204.022 21.9332 204.106C21.3023 204.189 20.7021 204.428 20.1869 204.802C17.9941 206.142 17.9941 207.716 17.9941 207.716C17.9941 207.716 30.9123 235.868 39.1497 256.494C40.5013 259.887 42.8391 262.797 45.8614 264.848C48.8836 266.899 52.4514 267.996 56.1037 267.998H63.5099Z" fill="#FF8B66"/>
<path d="M110.411 292.896C110.411 292.896 110.499 302.504 104.195 302.668C95.2946 302.907 94.9664 293.212 84.8803 293.528C74.7942 293.843 53.9929 296.366 47.3725 280.604C43.9556 272.459 48.633 262.008 37.6067 254.128C26.5803 246.248 31.9288 237.423 37.6067 232.695C43.2845 227.968 35.1618 222.816 41.0747 220.403C42.3826 219.88 43.8362 219.853 45.1627 220.327C45.9201 220.596 46.6401 220.96 47.3055 221.411C49.4239 222.957 51.2297 224.89 52.6268 227.109C69.331 181.356 99.0714 175.317 99.0714 175.317L137 186.5C137.701 257.683 110.411 292.896 110.411 292.896Z" fill="#164353"/>
<path d="M138.519 118.348C133.104 119.833 127.431 120.118 121.895 119.18C112.129 117.704 108.961 111.572 102.1 115.515C91.799 121.437 96.6195 141.82 99.2052 152.42C100.17 156.371 101.392 166.752 99.0655 175.32C99.0655 175.32 121.304 187.033 137 186.5L145.5 166.839C145.5 166.839 155.669 144.548 138.519 118.348Z" fill="#CFD8DC"/>
<path d="M121.815 101.496C122.48 107.692 121.518 113.937 119 119.775C119 119.775 124.91 127.238 130.551 122.327C131.316 115.759 133.649 109.396 137.405 103.631C141.648 96.9847 121.815 101.496 121.815 101.496Z" fill="#EF6E4B"/>
<path d="M113.285 101.579C113.285 101.579 108.989 98.8606 109.474 103.055C110.036 107.913 114.774 108.86 115.279 107.162C115.785 105.463 113.285 101.579 113.285 101.579Z" fill="#FF8B66"/>
<path d="M137.929 96.3201C137.929 96.3201 140.655 92.0299 142.006 96.0294C143.57 100.663 139.687 103.54 138.506 102.219C137.325 100.899 137.929 96.3201 137.929 96.3201Z" fill="#FF8B66"/>
<path d="M129.059 116.099C121.267 117.844 115.73 113.739 112.313 98.4755C110.55 90.6015 113.475 84.8748 122.202 82.9183C130.928 80.9617 135.685 84.9702 137.449 92.8442C141.121 109.249 137.108 114.297 129.059 116.099Z" fill="#FF8B66"/>
<path d="M136.087 98.8676C136.313 99.1879 136.434 99.5704 136.434 99.9624C136.433 100.354 136.31 100.736 136.083 101.056C135.855 101.375 135.535 101.616 135.164 101.745C134.794 101.874 134.393 101.885 134.017 101.776C133.64 101.667 133.306 101.444 133.062 101.137C132.818 100.831 132.675 100.456 132.653 100.065C132.631 99.6732 132.731 99.2846 132.939 98.9526C133.148 98.6206 133.454 98.3615 133.816 98.2112C134.206 98.0031 134.661 97.9552 135.085 98.0778C135.509 98.2004 135.869 98.4838 136.087 98.8676V98.8676Z" fill="#DB614D"/>
<path d="M120.156 102.883C120.301 103.247 120.33 103.647 120.238 104.028C120.145 104.409 119.937 104.752 119.642 105.009C119.346 105.266 118.978 105.426 118.588 105.465C118.198 105.503 117.805 105.42 117.465 105.226C117.124 105.032 116.852 104.737 116.686 104.382C116.521 104.027 116.47 103.629 116.54 103.244C116.61 102.858 116.799 102.504 117.079 102.23C117.36 101.956 117.718 101.777 118.105 101.716C118.532 101.604 118.985 101.664 119.368 101.882C119.752 102.1 120.034 102.459 120.156 102.883V102.883Z" fill="#DB614D"/>
<path d="M130.662 91.7556C130.583 91.7557 130.507 91.7324 130.441 91.6886C129.448 91.1576 128.295 91.0108 127.201 91.2764C127.1 91.297 126.995 91.2781 126.909 91.2237C126.822 91.1694 126.759 91.0836 126.733 90.9843C126.708 90.8849 126.721 90.7796 126.771 90.69C126.821 90.6005 126.904 90.5335 127.002 90.5031C128.315 90.1785 129.703 90.3648 130.884 91.0243C130.956 91.0723 131.01 91.1421 131.038 91.2231C131.067 91.3042 131.068 91.3924 131.043 91.4745C131.017 91.5566 130.966 91.6283 130.897 91.6789C130.827 91.7296 130.743 91.7565 130.657 91.7556H130.662Z" fill="#0E3944"/>
<path d="M115.991 95.0418C115.919 95.0413 115.848 95.0213 115.786 94.9838C115.741 94.9569 115.702 94.9213 115.671 94.8792C115.639 94.837 115.617 94.7891 115.604 94.7383C115.592 94.6874 115.589 94.6345 115.597 94.5828C115.605 94.531 115.623 94.4813 115.651 94.4365C116.439 93.3354 117.616 92.5751 118.944 92.3096C119.047 92.2918 119.154 92.3148 119.241 92.3739C119.327 92.433 119.388 92.5236 119.409 92.6264C119.429 92.7303 119.407 92.8377 119.347 92.9252C119.288 93.0127 119.196 93.073 119.093 93.0931C117.991 93.3223 117.011 93.9463 116.337 94.8476C116.301 94.9074 116.251 94.9568 116.19 94.9909C116.129 95.025 116.061 95.0425 115.991 95.0418V95.0418Z" fill="#0E3944"/>
<path d="M131.004 96.0317C131.219 96.9992 130.959 97.8816 130.422 98.0008C129.885 98.12 129.273 97.433 129.059 96.4678C128.846 95.5026 129.103 94.618 129.641 94.4976C130.179 94.3772 130.787 95.0631 131.004 96.0317Z" fill="#1A4850"/>
<path d="M120.178 98.3603C120.395 99.3278 120.134 100.21 119.597 100.331C119.06 100.451 118.448 99.7628 118.234 98.7964C118.021 97.83 118.278 96.9466 118.816 96.8262C119.353 96.7058 119.961 97.3928 120.178 98.3603Z" fill="#1A4850"/>
<path d="M123.678 107.525C123.678 107.525 128.682 107.117 130.887 105.254C130.887 105.254 130.281 109.164 127.558 109.435C126.796 109.525 126.024 109.393 125.335 109.054C124.647 108.715 124.071 108.184 123.678 107.525V107.525Z" fill="#1A4850"/>
<path d="M128.276 96.1371C128.276 96.1371 128.452 93.5946 129.426 93.556C130.4 93.5174 131.568 95.4001 131.568 95.4001L132.786 94.3577L131.444 94.8482C131.444 94.8482 130.247 92.8803 129.32 93.0836C128.002 93.372 128.276 96.1371 128.276 96.1371Z" fill="#1A4850"/>
<path d="M120.775 98.1236C120.775 98.1236 119.526 95.899 118.635 96.2794C117.743 96.6598 117.484 98.8605 117.484 98.8605L115.937 98.437L117.361 98.3075C117.361 98.3075 117.604 96.0171 118.529 95.8093C119.845 95.5049 120.775 98.1236 120.775 98.1236Z" fill="#1A4850"/>
<path d="M126.202 103.011L125.801 102.25C126.025 102.169 126.211 102.01 126.328 101.803C126.445 101.596 126.483 101.354 126.437 101.121C126.405 100.925 126.318 100.741 126.187 100.591C126.056 100.441 125.885 100.331 125.694 100.273C125.539 100.265 125.405 100.398 125.3 100.675L124.494 100.375C124.559 100.092 124.722 99.8408 124.953 99.6653C125.184 99.4897 125.47 99.4009 125.76 99.4144C126.139 99.4843 126.488 99.6683 126.76 99.9419C127.031 100.215 127.213 100.566 127.28 100.945C127.363 101.361 127.301 101.792 127.105 102.168C126.909 102.544 126.59 102.841 126.202 103.011Z" fill="#DB614D"/>
<path d="M113.904 104.328C113.904 104.328 111.501 95.4864 112.927 89.234C112.927 89.234 119.706 79.7952 132.788 84.4646C135.477 89.1355 137.434 94.1906 138.591 99.4541C138.591 99.4541 139.079 96.3131 137.778 89.318C136.477 82.323 130.27 77.9771 121.76 79.3762C113.25 80.7752 104.138 89.2397 113.904 104.328Z" fill="#0E3944"/>
<path d="M127.619 82.4986C127.619 82.4986 128.138 84.8072 125.893 90.7496C125.665 90.5162 125.392 90.3307 125.091 90.2041C124.79 90.0774 124.467 90.0122 124.141 90.0122C123.814 90.0122 123.491 90.0774 123.19 90.2041C122.889 90.3307 122.616 90.5162 122.388 90.7496C120.497 92.4371 116.657 91.8727 115.347 92.7857C114.932 93.1664 114.601 93.6296 114.376 94.1456C114.15 94.6617 114.034 95.2192 114.037 95.7825C113.359 93.9397 113.359 91.9156 114.037 90.0728C112.497 92.1673 111.716 94.7237 111.824 97.3212C111.824 97.3212 108.364 96.7625 108.52 91.054C108.677 85.3455 116.793 76.1099 125.894 76.7084C134.996 77.3068 137.164 91.7206 137.164 91.7206C136.854 91.5143 136.505 91.3754 136.138 91.313C135.771 91.2506 135.395 91.266 135.035 91.3583C134.739 88.9339 133.975 86.5899 132.786 84.4563C133.34 86.3397 133.34 88.3428 132.786 90.2261C131.393 89.495 129.82 89.1778 128.252 89.312C128.252 89.312 129.486 86.9012 127.619 82.4986Z" fill="#0E3944"/>
<path d="M99.789 117.337C104.218 113.845 107.669 118.287 108.515 124.431C109.361 130.574 101.349 166.823 95.1718 165.486C92.7871 164.971 91.814 155.476 91.814 155.476C93.6423 147.052 92.1811 138.082 93 129.5C93.7245 122.451 97.4793 119.158 99.789 117.337Z" fill="#FF8B66"/>
<path d="M87.8467 159.832C82.4658 153.593 73.6641 133.783 71.8969 123.957L76.579 122.591C76.579 122.591 88.2384 143.325 93.9451 148.825C99.6518 154.325 101.294 159.988 98.0691 164.383C94.8439 168.778 88.9798 161.147 87.8467 159.832Z" fill="#FF8B66"/>
<path d="M74.9794 111.625C74.067 117.731 78.9265 119.676 76.2451 124.168C76.0288 124.556 75.7351 124.894 75.3823 125.163C75.0295 125.432 74.6252 125.625 74.1945 125.73C73.49 125.882 72.7569 125.832 72.0797 125.586C71.4025 125.339 70.8089 124.906 70.3673 124.336C68.1694 121.773 65.6811 119.474 62.9525 117.485C60.8543 115.984 62.1486 115.758 62.1486 115.758C61.9427 115.635 61.7419 115.53 61.54 115.424C60.023 114.605 58.7739 114.229 59.9948 113.636C61.3677 112.958 65.7951 115.085 65.7951 115.085C60.2089 110.52 58.4921 111.331 59.6667 110.592C61.2686 109.581 66.6889 112.799 66.8508 112.894C63.9869 109.6 61.7635 108.7 63.061 108.371C64.3585 108.043 70.1776 113.177 72.2909 115.095C72.7667 115.527 73.0581 115.802 73.0581 115.802C73.4648 110.78 74.9794 111.625 74.9794 111.625Z" fill="#FF8B66"/>
<path d="M72.285 115.097C72.7608 115.528 73.0521 115.803 73.0521 115.803C72.6752 116.429 72.4686 117.142 72.4529 117.872C72.4371 118.602 72.6129 119.323 72.9626 119.964C72.2795 119.372 71.8343 118.553 71.7097 117.658C71.5851 116.763 71.7895 115.853 72.285 115.097V115.097Z" fill="#EF6E4B"/>
<path d="M66.6994 118.108C66.1989 117.765 63.3512 115.772 62.1378 115.755C61.9319 115.632 61.7311 115.527 61.5292 115.421C62.4448 114.439 66.1442 117.614 66.6994 118.108Z" fill="#EF6E4B"/>
<path d="M85.5888 212.398C85.5886 212.638 85.5173 212.872 85.3839 213.071C85.2505 213.271 85.0611 213.426 84.8395 213.517C84.618 213.609 84.3743 213.632 84.1393 213.585C83.9042 213.538 83.6885 213.422 83.5192 213.253C83.35 213.083 83.2349 212.867 83.1885 212.632C83.142 212.397 83.1664 212.153 83.2585 211.932C83.3506 211.71 83.5063 211.521 83.7058 211.389C83.9053 211.256 84.1398 211.185 84.3794 211.186C84.7006 211.186 85.0084 211.314 85.2351 211.542C85.4619 211.769 85.5891 212.077 85.5888 212.398Z" fill="#6097B2"/>
<path d="M107.204 220.739C107.204 220.979 107.133 221.214 107 221.413C106.867 221.613 106.677 221.768 106.456 221.86C106.234 221.952 105.99 221.976 105.755 221.93C105.519 221.883 105.303 221.767 105.134 221.598C104.964 221.428 104.848 221.212 104.802 220.976C104.755 220.741 104.779 220.497 104.871 220.275C104.963 220.054 105.118 219.864 105.318 219.731C105.518 219.598 105.752 219.527 105.992 219.527C106.314 219.528 106.622 219.655 106.849 219.883C107.076 220.11 107.204 220.418 107.204 220.739V220.739Z" fill="#6097B2"/>
<path d="M125.633 225.211C125.633 225.451 125.562 225.685 125.429 225.884C125.296 226.084 125.107 226.239 124.885 226.331C124.664 226.422 124.42 226.446 124.185 226.4C123.95 226.353 123.734 226.237 123.565 226.068C123.395 225.898 123.28 225.683 123.233 225.448C123.186 225.212 123.21 224.969 123.302 224.747C123.394 224.526 123.549 224.337 123.748 224.204C123.948 224.071 124.182 224 124.422 224C124.743 224 125.051 224.128 125.278 224.355C125.505 224.582 125.633 224.89 125.633 225.211V225.211Z" fill="#6097B2"/>
<path d="M97.3247 196.572C97.3247 196.812 97.2536 197.046 97.1205 197.246C96.9873 197.445 96.7981 197.6 96.5767 197.692C96.3553 197.784 96.1117 197.808 95.8766 197.761C95.6416 197.714 95.4257 197.599 95.2563 197.429C95.0868 197.26 94.9714 197.044 94.9247 196.809C94.8779 196.574 94.9019 196.33 94.9936 196.109C95.0853 195.887 95.2406 195.698 95.4399 195.565C95.6391 195.432 95.8734 195.361 96.113 195.361C96.4343 195.361 96.7423 195.489 96.9695 195.716C97.1966 195.943 97.3244 196.251 97.3247 196.572Z" fill="#6097B2"/>
<path d="M100.194 209.3C100.863 209.3 101.406 208.757 101.406 208.088C101.406 207.419 100.863 206.876 100.194 206.876C99.5249 206.876 98.9824 207.419 98.9824 208.088C98.9824 208.757 99.5249 209.3 100.194 209.3Z" fill="#6097B2"/>
<path d="M120.579 214.653C120.579 214.893 120.508 215.128 120.375 215.327C120.242 215.527 120.052 215.682 119.831 215.774C119.609 215.866 119.365 215.89 119.13 215.844C118.894 215.797 118.678 215.681 118.509 215.512C118.339 215.342 118.223 215.126 118.177 214.89C118.13 214.655 118.154 214.411 118.246 214.19C118.338 213.968 118.493 213.778 118.693 213.645C118.893 213.512 119.127 213.441 119.367 213.441C119.689 213.441 119.997 213.569 120.224 213.796C120.451 214.023 120.579 214.332 120.579 214.653V214.653Z" fill="#6097B2"/>
<path d="M123.216 194.787C123.216 195.027 123.145 195.262 123.012 195.461C122.879 195.661 122.689 195.817 122.468 195.909C122.246 196.001 122.002 196.025 121.767 195.978C121.532 195.931 121.315 195.816 121.146 195.646C120.976 195.477 120.86 195.261 120.813 195.025C120.767 194.79 120.79 194.546 120.882 194.325C120.974 194.103 121.129 193.913 121.329 193.78C121.528 193.647 121.763 193.576 122.003 193.576C122.324 193.576 122.633 193.703 122.86 193.931C123.087 194.158 123.215 194.466 123.216 194.787V194.787Z" fill="#6097B2"/>
<path d="M109.436 191.865C110.105 191.865 110.647 191.322 110.647 190.653C110.647 189.984 110.105 189.441 109.436 189.441C108.767 189.441 108.224 189.984 108.224 190.653C108.224 191.322 108.767 191.865 109.436 191.865Z" fill="#6097B2"/>
<path d="M74.8642 236.039C74.8642 236.278 74.7932 236.513 74.66 236.712C74.5269 236.911 74.3376 237.066 74.1162 237.158C73.8948 237.25 73.6512 237.274 73.4162 237.227C73.1811 237.18 72.9653 237.065 72.7958 236.896C72.6264 236.726 72.511 236.51 72.4642 236.275C72.4174 236.04 72.4414 235.797 72.5331 235.575C72.6249 235.354 72.7802 235.164 72.9794 235.031C73.1787 234.898 73.4129 234.827 73.6526 234.827C73.9738 234.827 74.2818 234.955 74.509 235.182C74.7362 235.41 74.8639 235.718 74.8642 236.039V236.039Z" fill="#6097B2"/>
<path d="M57.5922 230.885C57.5922 231.125 57.5212 231.359 57.3881 231.559C57.255 231.758 57.0659 231.913 56.8445 232.005C56.6232 232.097 56.3796 232.121 56.1446 232.074C55.9096 232.027 55.6937 231.912 55.5242 231.743C55.3547 231.573 55.2392 231.358 55.1924 231.123C55.1455 230.888 55.1693 230.644 55.2608 230.423C55.3524 230.201 55.5075 230.012 55.7066 229.879C55.9057 229.745 56.1399 229.674 56.3795 229.674C56.7009 229.674 57.0092 229.801 57.2366 230.029C57.464 230.256 57.5919 230.564 57.5922 230.885Z" fill="#6097B2"/>
<path d="M47.2961 221.411C47.1513 221.628 46.9407 221.792 46.6954 221.881C46.4501 221.969 46.183 221.976 45.9333 221.901C45.6837 221.826 45.4646 221.673 45.3082 221.465C45.1519 221.256 45.0665 221.003 45.0648 220.742C45.061 220.599 45.0914 220.456 45.1533 220.327C45.9107 220.596 46.6307 220.96 47.2961 221.411V221.411Z" fill="#6097B2"/>
<path d="M79.8406 253.057C80.5097 253.057 81.0522 252.514 81.0522 251.845C81.0522 251.176 80.5097 250.633 79.8406 250.633C79.1714 250.633 78.6289 251.176 78.6289 251.845C78.6289 252.514 79.1714 253.057 79.8406 253.057Z" fill="#6097B2"/>
<path d="M50.0532 269.024C50.053 269.263 49.9817 269.498 49.8484 269.697C49.7152 269.896 49.5258 270.051 49.3044 270.142C49.083 270.234 48.8394 270.258 48.6045 270.211C48.3695 270.164 48.1537 270.049 47.9844 269.879C47.815 269.71 47.6997 269.494 47.6531 269.259C47.6064 269.024 47.6305 268.78 47.7222 268.559C47.814 268.337 47.9693 268.148 48.1685 268.015C48.3677 267.882 48.6019 267.811 48.8415 267.811C49.0007 267.811 49.1584 267.842 49.3055 267.903C49.4525 267.964 49.5862 268.054 49.6987 268.166C49.8112 268.279 49.9004 268.413 49.9613 268.56C50.0221 268.707 50.0533 268.865 50.0532 269.024V269.024Z" fill="#6097B2"/>
<path d="M61.5056 259.822C62.1748 259.822 62.7172 259.28 62.7172 258.611C62.7172 257.941 62.1748 257.399 61.5056 257.399C60.8364 257.399 60.2939 257.941 60.2939 258.611C60.2939 259.28 60.8364 259.822 61.5056 259.822Z" fill="#6097B2"/>
<path d="M42.6438 250.61C43.313 250.61 43.8554 250.068 43.8554 249.399C43.8554 248.729 43.313 248.187 42.6438 248.187C41.9746 248.187 41.4321 248.729 41.4321 249.399C41.4321 250.068 41.9746 250.61 42.6438 250.61Z" fill="#6097B2"/>
<path d="M59.0813 285.678C59.0816 285.918 59.0106 286.153 58.8774 286.352C58.7442 286.552 58.5548 286.707 58.3332 286.799C58.1115 286.891 57.8676 286.915 57.6322 286.869C57.3969 286.822 57.1807 286.706 57.011 286.537C56.8413 286.367 56.7258 286.151 56.679 285.915C56.6323 285.68 56.6564 285.436 56.7483 285.214C56.8402 284.993 56.9959 284.803 57.1955 284.67C57.3951 284.537 57.6297 284.466 57.8697 284.466C58.1909 284.467 58.499 284.594 58.7261 284.822C58.9533 285.049 59.081 285.357 59.0813 285.678V285.678Z" fill="#6097B2"/>
<path d="M70.6206 221.951C70.6203 222.191 70.5491 222.425 70.4159 222.624C70.2827 222.823 70.0934 222.978 69.8721 223.07C69.6507 223.161 69.4072 223.185 69.1723 223.138C68.9373 223.091 68.7215 222.976 68.5522 222.807C68.3828 222.637 68.2674 222.422 68.2206 222.187C68.1738 221.952 68.1977 221.708 68.2893 221.487C68.3808 221.265 68.536 221.076 68.7351 220.943C68.9341 220.81 69.1682 220.739 69.4078 220.738C69.7294 220.738 70.0379 220.866 70.2654 221.093C70.4928 221.321 70.6206 221.629 70.6206 221.951Z" fill="#6097B2"/>
<path d="M82.2649 201.539C82.2652 201.779 82.1942 202.014 82.061 202.214C81.9278 202.413 81.7384 202.569 81.5168 202.661C81.2951 202.753 81.0512 202.777 80.8158 202.73C80.5805 202.683 80.3642 202.568 80.1946 202.398C80.0249 202.228 79.9094 202.012 79.8626 201.777C79.8158 201.541 79.84 201.297 79.9319 201.076C80.0238 200.854 80.1794 200.665 80.3791 200.532C80.5787 200.398 80.8133 200.327 81.0533 200.328C81.3745 200.328 81.6825 200.456 81.9097 200.683C82.1369 200.91 82.2646 201.218 82.2649 201.539Z" fill="#6097B2"/>
<path d="M95.4431 184.553C95.4431 184.793 95.372 185.027 95.2388 185.226C95.1055 185.426 94.9161 185.581 94.6945 185.673C94.4729 185.765 94.229 185.789 93.9938 185.742C93.7585 185.695 93.5424 185.58 93.3728 185.41C93.2032 185.241 93.0877 185.025 93.0409 184.789C92.9941 184.554 93.0181 184.31 93.1099 184.089C93.2017 183.867 93.3571 183.677 93.5566 183.544C93.756 183.411 93.9905 183.34 94.2304 183.34C94.3896 183.34 94.5473 183.371 94.6945 183.432C94.8416 183.493 94.9753 183.582 95.0879 183.695C95.2005 183.808 95.2899 183.941 95.3508 184.089C95.4118 184.236 95.4431 184.393 95.4431 184.553Z" fill="#6097B2"/>
<path d="M68.7368 209.301C68.7368 209.541 68.6657 209.775 68.5326 209.974C68.3994 210.173 68.2102 210.329 67.9888 210.42C67.7674 210.512 67.5238 210.536 67.2887 210.489C67.0537 210.443 66.8378 210.327 66.6684 210.158C66.4989 209.988 66.3835 209.772 66.3368 209.537C66.29 209.302 66.314 209.059 66.4057 208.837C66.4974 208.616 66.6527 208.427 66.852 208.294C67.0512 208.16 67.2855 208.089 67.5251 208.089C67.8465 208.089 68.1547 208.217 68.3819 208.444C68.6091 208.671 68.7368 208.98 68.7368 209.301V209.301Z" fill="#6097B2"/>
<path d="M83.4775 189.441C83.4775 189.68 83.4065 189.914 83.2734 190.114C83.1403 190.313 82.9511 190.468 82.7298 190.56C82.5085 190.652 82.2649 190.676 82.0299 190.629C81.7949 190.582 81.579 190.467 81.4095 190.298C81.24 190.128 81.1245 189.913 81.0776 189.678C81.0307 189.443 81.0546 189.199 81.1461 188.978C81.2376 188.756 81.3928 188.567 81.5919 188.434C81.791 188.3 82.0251 188.229 82.2647 188.229C82.5862 188.229 82.8945 188.357 83.1219 188.584C83.3493 188.811 83.4772 189.119 83.4775 189.441V189.441Z" fill="#6097B2"/>
<path d="M60.2939 244.014C60.2939 244.254 60.2229 244.488 60.0898 244.687C59.9567 244.887 59.7675 245.042 59.5462 245.134C59.3249 245.225 59.0813 245.25 58.8463 245.203C58.6113 245.156 58.3954 245.041 58.2259 244.872C58.0564 244.702 57.9409 244.486 57.894 244.251C57.8471 244.017 57.871 243.773 57.9625 243.551C58.054 243.33 58.2092 243.141 58.4083 243.008C58.6074 242.874 58.8415 242.803 59.0811 242.803C59.4026 242.803 59.7109 242.93 59.9383 243.158C60.1657 243.385 60.2936 243.693 60.2939 244.014Z" fill="#6097B2"/>
<path d="M45.0683 233.311C45.0683 233.55 44.9973 233.785 44.8641 233.984C44.731 234.183 44.5417 234.338 44.3203 234.43C44.0989 234.522 43.8553 234.546 43.6203 234.499C43.3853 234.452 43.1694 234.337 42.9999 234.168C42.8305 233.998 42.7151 233.782 42.6683 233.547C42.6215 233.312 42.6455 233.069 42.7373 232.847C42.829 232.626 42.9843 232.436 43.1835 232.303C43.3828 232.17 43.617 232.099 43.8567 232.099C44.178 232.099 44.4862 232.227 44.7134 232.454C44.9407 232.681 45.0683 232.989 45.0683 233.311V233.311Z" fill="#6097B2"/>
<path d="M88.0129 230.886C88.6821 230.886 89.2246 230.344 89.2246 229.675C89.2246 229.005 88.6821 228.463 88.0129 228.463C87.3437 228.463 86.8013 229.005 86.8013 229.675C86.8013 230.344 87.3437 230.886 88.0129 230.886Z" fill="#6097B2"/>
<path d="M113.072 237.25C113.741 237.25 114.283 236.708 114.283 236.039C114.283 235.37 113.741 234.827 113.072 234.827C112.402 234.827 111.86 235.37 111.86 236.039C111.86 236.708 112.402 237.25 113.072 237.25Z" fill="#6097B2"/>
<path d="M113.072 201.539C113.072 201.779 113.001 202.014 112.868 202.214C112.734 202.413 112.545 202.569 112.323 202.661C112.102 202.753 111.858 202.777 111.622 202.73C111.387 202.683 111.171 202.568 111.001 202.398C110.832 202.228 110.716 202.012 110.669 201.777C110.622 201.541 110.647 201.297 110.739 201.076C110.83 200.854 110.986 200.665 111.186 200.532C111.385 200.398 111.62 200.327 111.86 200.328C112.181 200.328 112.489 200.456 112.716 200.683C112.944 200.91 113.071 201.218 113.072 201.539Z" fill="#6097B2"/>
<path d="M127.644 204.081C127.645 204.321 127.574 204.556 127.44 204.755C127.307 204.955 127.118 205.111 126.896 205.203C126.675 205.295 126.431 205.319 126.195 205.272C125.96 205.225 125.744 205.11 125.574 204.94C125.404 204.77 125.289 204.554 125.242 204.319C125.195 204.083 125.219 203.839 125.311 203.618C125.403 203.396 125.559 203.207 125.758 203.074C125.958 202.94 126.193 202.869 126.433 202.87C126.754 202.87 127.062 202.997 127.289 203.224C127.517 203.452 127.644 203.76 127.644 204.081Z" fill="#6097B2"/>
<path d="M98.5376 245.226C98.5373 245.466 98.4661 245.7 98.3329 245.899C98.1997 246.098 98.0104 246.253 97.7891 246.345C97.5677 246.436 97.3242 246.46 97.0892 246.414C96.8543 246.367 96.6385 246.251 96.4691 246.082C96.2998 245.913 96.1844 245.697 96.1376 245.462C96.0908 245.227 96.1147 244.983 96.2063 244.762C96.2978 244.541 96.453 244.352 96.652 244.218C96.8511 244.085 97.0852 244.014 97.3248 244.014C97.4841 244.014 97.6419 244.045 97.7891 244.106C97.9363 244.167 98.07 244.256 98.1827 244.369C98.2953 244.481 98.3847 244.615 98.4455 244.762C98.5064 244.909 98.5377 245.067 98.5376 245.226V245.226Z" fill="#6097B2"/>
<path d="M86.8005 267.998C87.4697 267.998 88.0122 267.455 88.0122 266.786C88.0122 266.117 87.4697 265.574 86.8005 265.574C86.1313 265.574 85.5889 266.117 85.5889 266.786C85.5889 267.455 86.1313 267.998 86.8005 267.998Z" fill="#6097B2"/>
<path d="M68.196 271.447C68.8652 271.447 69.4077 270.905 69.4077 270.236C69.4077 269.566 68.8652 269.024 68.196 269.024C67.5268 269.024 66.9844 269.566 66.9844 270.236C66.9844 270.905 67.5268 271.447 68.196 271.447Z" fill="#6097B2"/>
<path d="M119.366 253.057C120.035 253.057 120.578 252.514 120.578 251.845C120.578 251.176 120.035 250.633 119.366 250.633C118.697 250.633 118.154 251.176 118.154 251.845C118.154 252.514 118.697 253.057 119.366 253.057Z" fill="#6097B2"/>
<path d="M103.831 261.036C103.831 261.276 103.76 261.51 103.627 261.71C103.494 261.909 103.304 262.065 103.082 262.157C102.861 262.248 102.617 262.272 102.382 262.225C102.146 262.179 101.93 262.063 101.761 261.893C101.591 261.723 101.476 261.507 101.429 261.272C101.382 261.037 101.406 260.793 101.498 260.571C101.59 260.35 101.746 260.16 101.946 260.027C102.145 259.894 102.38 259.823 102.62 259.823C102.779 259.823 102.937 259.855 103.084 259.916C103.231 259.977 103.364 260.066 103.477 260.179C103.589 260.291 103.679 260.425 103.739 260.572C103.8 260.719 103.831 260.877 103.831 261.036V261.036Z" fill="#6097B2"/>
<path d="M78.6287 288.1C78.6289 288.34 78.558 288.574 78.4248 288.774C78.2916 288.974 78.1022 289.129 77.8805 289.221C77.6589 289.313 77.415 289.337 77.1796 289.291C76.9442 289.244 76.728 289.128 76.5583 288.959C76.3887 288.789 76.2731 288.573 76.2264 288.337C76.1796 288.102 76.2037 287.858 76.2957 287.636C76.3876 287.415 76.5432 287.225 76.7428 287.092C76.9424 286.959 77.1771 286.888 77.417 286.888C77.7384 286.888 78.0466 287.016 78.2738 287.243C78.501 287.47 78.6287 287.779 78.6287 288.1Z" fill="#6097B2"/>
<path d="M96.113 283C96.7822 283 97.3247 282.458 97.3247 281.789C97.3247 281.12 96.7822 280.577 96.113 280.577C95.4438 280.577 94.9014 281.12 94.9014 281.789C94.9014 282.458 95.4438 283 96.113 283Z" fill="#6097B2"/>
<path d="M114.124 275.86C114.793 275.86 115.336 275.317 115.336 274.648C115.336 273.979 114.793 273.437 114.124 273.437C113.455 273.437 112.913 273.979 112.913 274.648C112.913 275.317 113.455 275.86 114.124 275.86Z" fill="#6097B2"/>
<path d="M107.204 295.5C107.204 295.74 107.133 295.974 107 296.174C106.867 296.374 106.677 296.529 106.456 296.621C106.234 296.713 105.99 296.737 105.755 296.69C105.519 296.644 105.303 296.528 105.134 296.358C104.964 296.189 104.848 295.973 104.802 295.737C104.755 295.502 104.779 295.258 104.871 295.036C104.963 294.815 105.118 294.625 105.318 294.492C105.518 294.359 105.752 294.288 105.992 294.288C106.314 294.288 106.622 294.416 106.849 294.643C107.076 294.87 107.204 295.178 107.204 295.5Z" fill="#6097B2"/>
<path d="M105.885 359.326H85.977C84.6779 355.619 87.0739 351.899 86.6708 348.634C85.977 343.112 89.1918 346.163 89.1918 346.163C89.7596 340.224 98.106 339.103 98.0174 341.751C97.8788 345.646 98.6351 348.054 99.7446 349.668C101.988 352.908 105.67 352.883 106.3 355.203C106.364 355.43 106.414 355.657 106.451 355.858C107.069 358.758 105.885 359.326 105.885 359.326Z" fill="#164353"/>
<path d="M106.451 355.855C102.329 356.814 92.8246 355.566 92.4454 353.171C92.0797 350.851 97.1977 349.764 99.7448 349.666C101.989 352.905 105.67 352.88 106.3 355.2C106.364 355.43 106.409 355.657 106.451 355.855Z" fill="#205260"/>
<path d="M24.0479 205.121C21.9301 203.191 18.4836 206.383 18.4836 206.383C18.4836 206.383 20.3368 209.131 19.1388 210.244C17.9408 211.357 16.5543 208.819 14.1968 209.928C13.9958 210.023 13.8019 210.133 13.6166 210.256C11.6214 211.726 9.83575 213.461 8.30894 215.413C7.99438 215.766 7.69119 216.094 7.41411 216.384C5.61083 218.275 0.958415 219.384 0.0885717 214.34C-0.781272 209.296 4.89202 203.384 11.1206 197.95C17.3492 192.517 21.3759 195.742 21.3759 195.742C22.0941 196.868 22.5745 198.129 22.7874 199.448C22.7874 200.861 24.0479 201.566 24.7542 202.915C24.9345 203.304 24.962 203.747 24.8312 204.156C24.7003 204.564 24.4208 204.909 24.0479 205.121Z" fill="#164353"/>
<path d="M13.6213 210.253C11.6261 211.723 9.84047 213.458 8.31366 215.41C5.98121 215.965 3.88495 215.801 3.56132 213.607C2.76642 208.312 13.3272 201.58 12.4869 205.299C12.3401 206.159 12.3648 207.039 12.5595 207.89C12.7542 208.74 13.115 209.543 13.6213 210.253V210.253Z" fill="#205260"/>
<path d="M393.718 350.717C392.556 349.952 391.624 348.887 391.018 347.635C390.608 344.752 390.608 341.826 391.018 338.944C391.719 334.49 389.779 330.853 383.476 329.488C377.344 328.159 373.71 331.113 375.126 343.432C374.194 348.552 374.001 354.395 376.126 359.321H394.992C394.992 359.321 397.968 352.949 393.718 350.717Z" fill="#CFD8DC"/>
<path d="M410.273 284.316C409.89 293.036 407.518 301.553 403.338 309.215C396.277 322.054 387.554 339.673 387.554 339.673C387.554 339.673 381.737 345.351 378.041 335.95C378.041 335.95 380.653 303.226 386.638 291.249C392.624 279.273 410.273 284.316 410.273 284.316Z" fill="#A8604F"/>
<path d="M500.728 244.281C500.728 244.281 511.963 291.532 519.11 303.996C519.11 303.996 517.466 309.21 509.727 310.786C509.727 310.786 485.283 274.855 483.707 259.726C482.13 244.596 500.728 244.281 500.728 244.281Z" fill="#A8604F"/>
<path d="M506.161 255.387C503.172 262.587 480.089 262.978 480.089 262.978L478.323 260.381L477.856 259.699L474.251 254.379C474.251 254.379 435.999 216.859 428.548 220.01H428.535C428.313 220.11 428.102 220.233 427.905 220.376C422.787 224.032 422.308 244.066 416.255 277.691C415.575 280.925 414.626 284.097 413.416 287.172C413.303 287.449 413.203 287.714 413.102 287.967C412.546 289.392 412.156 290.299 412.156 290.299C388.806 299.755 381.103 281.071 381.103 281.071C381.103 281.071 381.381 280.529 381.784 279.659C381.872 279.469 381.974 279.255 382.073 279.028C383.296 276.33 385.253 271.652 385.226 269.181C385.201 266.471 385.18 263.861 385.163 261.353C385.163 261.125 385.163 260.911 385.15 260.696C385.112 252.616 385.125 245.593 385.176 239.491V238.848C385.201 236.187 385.238 233.704 385.289 231.384V230.729C385.49 220.1 385.831 213.001 386.198 208.274C386.21 208.059 386.235 207.832 386.248 207.631C386.892 199.675 387.572 198.894 387.572 198.894L382.894 166.378H433.93C433.93 166.378 441.595 174.057 451.543 184.193C451.757 184.395 451.96 184.596 452.161 184.811C455.767 188.48 459.662 192.463 463.571 196.507C463.735 196.672 463.886 196.823 464.025 196.974L468.626 201.727C468.816 201.916 468.992 202.118 469.182 202.307C474.301 207.615 479.268 212.847 483.517 217.423C483.668 217.575 483.807 217.726 483.945 217.877C489.757 224.168 494.182 229.199 495.708 231.544C499.756 237.735 502.907 245.791 504.646 250.771V250.784C504.735 251.011 504.811 251.212 504.886 251.427C505.707 253.85 506.161 255.387 506.161 255.387Z" fill="#8B383E"/>
<path d="M395.213 203.759C392.884 206.345 389.665 207.958 386.199 208.273C386.211 208.058 386.236 207.831 386.249 207.63C389.514 207.315 392.543 205.785 394.734 203.343C396.882 200.559 397.924 197.078 397.659 193.572L398.289 193.497C398.588 197.182 397.49 200.846 395.213 203.759Z" fill="#662C33"/>
<path d="M452.161 184.81C451.96 184.822 451.771 184.835 451.57 184.835C445.892 184.835 439.97 178.632 439.668 178.317L440.122 177.876C440.197 177.963 446.098 184.142 451.544 184.192C451.758 184.394 451.96 184.595 452.161 184.81Z" fill="#662C33"/>
<path d="M413.418 287.172C413.305 287.449 413.205 287.714 413.104 287.967C409.776 289.23 406.249 289.892 402.69 289.921C392.604 289.921 385.619 284.085 381.786 279.659C381.875 279.47 381.976 279.255 382.076 279.028C386.98 284.776 397.458 293.261 413.418 287.172Z" fill="#662C33"/>
<path d="M427.124 208.298C428.028 212.138 428.502 216.066 428.535 220.011C428.313 220.111 428.102 220.234 427.905 220.376C427.88 201.34 416.86 186.488 416.734 186.323L417.239 185.945C421.774 192.525 425.068 199.879 426.959 207.643C428.245 206.818 429.152 205.517 429.481 204.024C431.071 197.343 423.845 186.423 423.783 186.309L424.3 185.956C424.602 186.423 431.737 197.215 430.099 204.163C429.912 205.019 429.552 205.828 429.04 206.539C428.528 207.25 427.876 207.849 427.124 208.298V208.298Z" fill="#662C33"/>
<path d="M483.946 217.884C482.068 219.928 480.302 221.667 480.139 221.818L479.798 222.159L479.634 221.704C477.163 215.232 461.278 201.218 461.113 201.078L460.925 200.902L463.572 196.514C463.736 196.679 463.888 196.83 464.026 196.981L461.807 200.662C463.971 201.529 466.302 201.896 468.627 201.734C468.817 201.923 468.993 202.125 469.183 202.313C468.637 202.407 468.084 202.453 467.53 202.453C465.87 202.41 464.226 202.125 462.647 201.608C466.253 204.861 477.461 215.25 480.033 221.037C481.029 220.053 482.29 218.754 483.513 217.43C483.669 217.578 483.808 217.729 483.946 217.884Z" fill="#662C33"/>
<path d="M396.777 261.238L396.525 261.288C394.421 261.719 392.28 261.939 390.132 261.944C388.458 261.969 386.787 261.77 385.165 261.352C385.165 261.124 385.165 260.91 385.152 260.695C389.313 261.893 394.872 260.973 396.134 260.734L395.074 234.496C394.341 236.422 392.935 238.017 391.116 238.985C390.026 239.52 388.824 239.788 387.61 239.767C386.792 239.763 385.976 239.67 385.178 239.49V238.847C387.052 239.38 389.054 239.228 390.826 238.418C391.82 237.851 392.691 237.092 393.388 236.185C394.086 235.278 394.595 234.241 394.886 233.135C392.779 233.451 388.527 232.379 385.292 231.383V230.728C388.783 231.786 393.511 233.009 395.213 232.416L395.617 232.278L396.777 261.238Z" fill="#662C33"/>
<path d="M504.887 251.429C501.885 254.375 498.33 256.7 494.427 258.271C490.524 259.841 486.35 260.627 482.143 260.582C480.867 260.581 479.592 260.514 478.323 260.381L477.856 259.699C491.915 261.313 500.728 254.72 504.648 250.786C504.736 251.013 504.813 251.214 504.887 251.429Z" fill="#662C33"/>
<path d="M443.362 28.1311C443.362 28.1311 441.959 24.9027 436.034 24.9004C431.468 24.9004 429.721 27.4225 429.721 27.4225C426.989 35.4078 424.053 65.9806 423.002 67.0685C422.469 67.6204 388.6 90.4316 388.6 90.4316C406.98 90.7723 418.448 113.433 418.448 113.433C419.042 105.988 439.797 76.4846 440.024 73.8546C440.443 68.8979 449.223 46.7339 443.362 28.1311Z" fill="#CE364C"/>
<path d="M384.563 187.996C384.563 187.996 384.392 194.375 386.456 194.795C399.208 198.025 412.679 196.826 424.66 191.396C443.992 182.608 447.355 176.093 441.681 171.261C436.008 166.429 384.563 187.996 384.563 187.996Z" fill="#CE364C"/>
<path d="M376.817 94.8513C376.817 94.8513 359.228 92.7676 349.142 97.1327C349.142 97.1327 346.329 109.615 360.185 137.549C374.041 165.482 370.828 183.076 386.455 189.698C400.309 195.569 441.156 178.097 442.439 172.303C445.668 157.715 420.69 132.113 419.114 117.279C417.538 102.445 403.039 80.1401 376.817 94.8513Z" fill="#F24052"/>
<path d="M349.142 97.1335C336.849 101.499 323.024 115.303 323 121.952C322.976 128.602 334.534 131.17 334.534 131.17L353.476 121.952C353.476 121.952 358.895 118.17 355.445 107.144C351.996 96.1172 349.142 97.1335 349.142 97.1335Z" fill="#CE364C"/>
<path d="M399.65 109.438C395.723 109.388 391.89 108.231 388.592 106.099C387.249 105.294 386.281 103.99 385.9 102.472C385.205 98.1055 389.457 95.8854 389.639 95.7935L390.212 96.9154C390.063 96.9926 386.597 98.8197 387.146 102.274C387.482 103.453 388.262 104.456 389.323 105.071C392.933 107.436 397.251 108.479 401.543 108.024C402.159 107.988 402.76 107.815 403.301 107.518C403.842 107.221 404.31 106.806 404.67 106.305C404.834 105.956 404.926 105.576 404.939 105.19C404.952 104.804 404.888 104.42 404.749 104.059L405.907 103.561C406.121 104.094 406.221 104.666 406.2 105.24C406.179 105.813 406.038 106.377 405.785 106.892C405.341 107.57 404.748 108.136 404.05 108.547C403.353 108.959 402.57 109.204 401.762 109.265C401.064 109.384 400.358 109.442 399.65 109.438V109.438Z" fill="#CFD8DC"/>
<path d="M384.062 122.736C381.336 122.736 376.826 121.601 376.192 117.137C375.958 115.196 375.981 113.233 376.26 111.298C376.531 108.836 376.743 106.891 375.309 104.56C372.94 100.714 369.715 100.455 369.579 100.446L369.655 99.188C369.816 99.1971 373.653 99.4685 376.382 103.899C378.043 106.599 377.785 108.948 377.517 111.435C377.247 113.265 377.223 115.123 377.445 116.96C378.126 121.777 384.269 121.476 384.529 121.462L384.604 122.72C384.431 122.731 384.25 122.736 384.062 122.736Z" fill="#CFD8DC"/>
<path d="M387.889 100.11C387.889 100.11 397.187 93.7767 394.981 86.9213C392.774 80.0659 362.83 80.5383 355.109 88.7382C347.387 96.9381 371.814 102.373 371.814 102.373C373.708 98.5575 385.787 98.1373 387.889 100.11Z" fill="#CE364C"/>
<path d="M371.171 99.0363C366.759 97.5385 364.144 94.3544 365.09 90.6774C366.036 87.0005 385.002 86.9017 388.596 89.8405C392.19 92.7794 387.129 104.454 371.171 99.0363Z" fill="#A02E44"/>
<path d="M369.071 88.7011C369.071 88.7011 372.974 95.3692 371.171 99.0348C371.171 99.0348 384.563 103.659 384.563 96.1652C384.563 96.1652 382.038 90.5498 382.99 86.9194L369.071 88.7011Z" fill="#874538"/>
<path d="M362.567 88C354.81 82.0737 352.293 68.4418 355.128 64.1367C357.963 59.8317 354.404 51.1498 358.485 51.1498C362.567 51.1498 359.183 47.4224 361.099 44.114C363.784 39.4765 367.069 43.741 371.05 44.9287C375.03 46.1163 379.01 44.114 379.01 44.114C379.01 44.114 384.317 41.9013 385.644 45.3436C386.971 48.7859 392.245 48.4707 394.268 51.1498C396.686 54.3514 394.591 57.42 396.258 60.4991C398.679 64.9694 401.001 65.7372 400.585 70.8105C400.42 72.8245 397.936 77.5 397.936 77.5C397.936 77.5 394.432 82.1504 393.277 82.622C391.128 83.5 386.65 87.5797 384.585 88.5C384.585 88.5 370.715 94.2255 362.567 88Z" fill="#1A4850"/>
<path d="M361.815 73.1484C361.815 73.1484 358.033 69.3749 357.568 73.7866C357.028 78.8966 361.67 80.9554 362.578 79.3304C363.486 77.7054 361.815 73.1484 361.815 73.1484Z" fill="#A8604F"/>
<path d="M388.295 73.413C388.295 73.413 392.077 69.6395 392.542 74.0512C393.082 79.1613 388.44 81.2212 387.532 79.5951C386.625 77.9689 388.295 73.413 388.295 73.413Z" fill="#A8604F"/>
<path d="M374.656 91.6609C366.266 91.6609 361.53 86.1795 361.53 69.7445C361.53 61.2663 365.845 56.0654 375.242 56.0654C384.639 56.0654 388.6 61.2652 388.6 69.7445C388.6 87.4082 383.325 91.6609 374.656 91.6609Z" fill="#A8604F"/>
<path d="M385.821 75.6044C385.979 75.9846 386.015 76.4045 385.925 76.8062C385.834 77.2079 385.621 77.5714 385.314 77.8467C385.008 78.1219 384.624 78.2952 384.215 78.3425C383.806 78.3899 383.392 78.3089 383.031 78.111C382.67 77.913 382.379 77.6077 382.199 77.2374C382.019 76.8671 381.958 76.4499 382.026 76.0437C382.093 75.6374 382.285 75.2621 382.575 74.9696C382.865 74.6771 383.238 74.4819 383.644 74.4109C384.091 74.2864 384.569 74.3415 384.975 74.5645C385.382 74.7875 385.685 75.1607 385.821 75.6044V75.6044Z" fill="#874538"/>
<path d="M368.561 76.0637C368.626 76.4705 368.562 76.8872 368.379 77.2563C368.196 77.6253 367.903 77.9285 367.541 78.1237C367.178 78.319 366.764 78.3967 366.355 78.3462C365.946 78.2957 365.563 78.1195 365.259 77.8418C364.955 77.5642 364.744 77.1989 364.657 76.7964C364.569 76.3939 364.609 75.9742 364.77 75.5953C364.932 75.2164 365.207 74.8969 365.558 74.6812C365.908 74.4654 366.318 74.364 366.729 74.391C367.192 74.3757 367.643 74.542 367.985 74.8545C368.328 75.167 368.534 75.6009 368.561 76.0637Z" fill="#874538"/>
<path d="M382.126 66.7905C382.07 66.7994 382.013 66.7967 381.958 66.7826C381.903 66.7686 381.852 66.7434 381.807 66.7088C380.803 66.0809 379.602 65.8464 378.435 66.0502C378.326 66.0687 378.213 66.0434 378.122 65.9797C378.03 65.916 377.968 65.8189 377.947 65.7095C377.937 65.6549 377.938 65.5989 377.949 65.5446C377.961 65.4903 377.983 65.4389 378.015 65.3933C378.047 65.3477 378.087 65.309 378.134 65.2792C378.181 65.2495 378.233 65.2293 378.288 65.2201C379.688 64.9707 381.13 65.2634 382.323 66.0388C382.387 66.0888 382.436 66.1567 382.463 66.2342C382.49 66.3117 382.493 66.3953 382.473 66.4747C382.453 66.5541 382.409 66.6258 382.349 66.6809C382.288 66.7361 382.213 66.7722 382.132 66.7849L382.126 66.7905Z" fill="#1A4850"/>
<path d="M366.066 66.8489C365.959 66.8366 365.862 66.7827 365.794 66.699C365.724 66.6128 365.69 66.5024 365.701 66.3918C365.712 66.2812 365.766 66.1794 365.852 66.1085C367.02 65.2975 368.452 64.961 369.859 65.1671C369.969 65.1845 370.067 65.2445 370.133 65.334C370.198 65.4236 370.226 65.5355 370.209 65.6452C370.19 65.7543 370.129 65.8518 370.04 65.9173C369.951 65.9827 369.839 66.0109 369.73 65.9961C368.559 65.8322 367.369 66.1033 366.384 66.758C366.34 66.7937 366.289 66.8201 366.235 66.8357C366.18 66.8513 366.123 66.8558 366.066 66.8489V66.8489Z" fill="#1A4850"/>
<path d="M381.258 71.5275C381.258 72.5688 380.789 73.4136 380.21 73.4136C379.631 73.4136 379.162 72.5688 379.162 71.5275C379.162 70.4861 379.631 69.6401 380.21 69.6401C380.789 69.6401 381.258 70.4884 381.258 71.5275Z" fill="#1A4850"/>
<path d="M370.052 71.5275C370.052 72.5688 369.583 73.4136 369.004 73.4136C368.425 73.4136 367.956 72.5688 367.956 71.5275C367.956 70.4861 368.425 69.6401 369.004 69.6401C369.583 69.6401 370.052 70.4884 370.052 71.5275Z" fill="#1A4850"/>
<path d="M364.104 57.8844C371.139 60.0628 378.529 60.8617 385.866 60.2373C385.866 60.2373 388.6 63.644 388.268 75.6662C388.268 75.6662 396.914 54 375 54C353.086 54 361.823 75.1859 361.823 75.1859C361.823 75.1859 360.028 61.9406 364.104 57.8844Z" fill="#1A4850"/>
<path d="M375.184 77.1309L374.556 76.4984L376.215 74.8496C374.606 72.5785 374.615 67.3083 374.616 67.0732L375.508 67.0789C375.508 67.1346 375.499 72.7999 377.142 74.5805L377.434 74.8961L375.184 77.1309Z" fill="#874538"/>
<path d="M369.62 79.8748C369.62 79.8748 377.877 80.2234 382.047 79.1196C382.16 79.9193 382.096 80.7339 381.861 81.5063C381.626 82.2788 381.224 82.9903 380.684 83.5911C380.145 84.1919 379.48 84.6673 378.737 84.984C377.994 85.3006 377.191 85.4509 376.384 85.4243C369.62 85.7388 369.62 79.8748 369.62 79.8748Z" fill="#1A4850"/>
<path d="M404.908 102.578C406.485 102.285 406.327 106.41 404.908 105.214C403.49 104.018 403.332 102.871 404.908 102.578Z" fill="#CFD8DC"/>
<path d="M385.904 122.564C385.663 124.148 381.816 122.648 383.414 121.699C385.011 120.751 386.144 120.978 385.904 122.564Z" fill="#CFD8DC"/>
<path d="M368.987 131.169C368.987 131.169 366.489 137.586 366.628 141.212C366.766 144.838 367.956 144.364 367.956 144.364C367.379 144.62 366.872 145.012 366.479 145.507C366.086 146.001 365.818 146.583 365.699 147.203C365.34 149.293 370.616 150.828 370.978 150.828C371.34 150.828 375.066 149.41 375.066 149.41L375.846 137.551L372.553 135.481L368.987 131.169Z" fill="#874538"/>
<path d="M370.982 130.333C373.201 131.696 375.314 133.224 377.303 134.904C379.067 136.638 378.06 150.033 377.303 150.663C376.545 151.293 370.737 152.594 369.623 151.864C368.509 151.135 370.057 147.196 370.057 147.196C370.057 147.196 372.974 146.566 372.555 147.669C372.306 148.327 372.306 149.054 372.555 149.713L373.753 149.239C373.426 147.521 373.426 145.757 373.753 144.039C374.34 141.833 369.646 139.505 369.077 135.468C368.508 131.431 370.982 130.333 370.982 130.333Z" fill="#A8604F"/>
<path d="M323.758 123.812C322.299 117.513 328.55 115.285 337.247 116.359C347.333 117.609 368.047 120.243 372.55 131.17C372.55 131.17 374.02 135.485 370.214 137.549C359.575 143.336 326.497 135.644 323.758 123.812Z" fill="#CE364C"/>
<path d="M355.311 119.639C355.311 119.639 343.29 114.643 337.302 114.14C331.315 113.636 345.581 118.863 355.311 119.639Z" fill="#A02E44"/>
<path d="M445.418 11.4169C444.442 13.0142 443.635 14.7085 443.009 16.4725C442.379 19.8508 442.013 21.7165 440.828 23.2677C439.642 24.8189 440.273 27.5545 440.273 27.5545C440.273 27.5545 435.683 29.9119 431.826 26.9992C431.826 26.9992 432.229 24.2886 431.826 23.5198C431.031 21.9822 428.485 21.1624 427.615 18.0611C426.8 15.7 425.626 13.4785 424.135 11.4749C424.135 11.4749 424.88 9.86122 426.241 10.8446C427.603 11.828 428.485 14.324 429.229 14.5761C429.376 14.6282 429.528 14.6621 429.683 14.6772C429.696 14.6787 429.709 14.6829 429.721 14.6896C429.984 14.7381 430.255 14.7282 430.514 14.6607C430.773 14.5932 431.014 14.4698 431.221 14.299C431.256 14.2818 431.286 14.256 431.309 14.2241C432.558 12.7739 432.847 8.51216 432.797 6.60782C432.721 3.96081 432.822 0.304295 434.435 0.922043C436.049 1.53979 434.574 3.01488 435.823 8.85283L436.427 8.92778C436.541 9.34453 437.65 5.38595 437.916 1.66584C438.104 -0.892593 439.782 0.0521995 440.147 0.859587C440.513 1.66697 439.958 4.21291 439.844 6.06616C439.757 7.28916 439.656 8.5644 439.592 9.31955L440.298 9.71019C442.845 5.27239 441.976 3.43164 443.463 3.34307C444.951 3.25449 444.408 6.99959 443.614 8.42359C443.18 9.43814 442.866 10.5004 442.681 11.5884C445.293 8.57462 445.001 6.99959 446.201 7.18809C447.434 7.39477 446.325 10.3824 445.418 11.4169Z" fill="#A8604F"/>
<path d="M434.146 18.3658C433.264 15.9323 430.111 14.8228 429.717 14.6968C429.981 14.7452 430.252 14.7354 430.511 14.6679C430.77 14.6004 431.011 14.4769 431.217 14.3062C432.058 14.6085 432.788 15.158 433.31 15.8825C433.833 16.607 434.124 17.4727 434.146 18.3658V18.3658Z" fill="#874538"/>
<path d="M379.378 340.833C379.378 340.833 377.633 337.273 379.189 335.744C380.745 334.214 382.575 337.051 385.232 336.425C387.888 335.799 388.504 333.906 389.195 336.478C389.885 339.051 389.044 347.137 379.378 340.833Z" fill="#CFD8DC"/>
<path d="M389.379 340.675C389.379 340.675 382.243 343.203 378.543 340.675L379.483 343.764C379.483 343.764 387.239 344.585 388.309 342.628L389.379 340.675Z" fill="#ADBEC4"/>
<path d="M389.282 344.512C389.282 344.512 382.749 343.604 379.597 345.229V346.76C379.597 346.76 388.113 344.772 390.868 346.76L389.282 344.512Z" fill="#ADBEC4"/>
<path d="M379.284 349.94C379.769 348.96 380.516 348.133 381.44 347.55C382.365 346.966 383.432 346.648 384.525 346.631C386.904 346.502 389.255 347.197 391.182 348.598C391.182 348.598 384.879 346.001 379.284 349.94Z" fill="#ADBEC4"/>
<path d="M547.449 307.041C540.183 316.92 529.717 323.973 517.834 327C512.878 323.04 512.752 318.35 512.752 318.35C512.752 318.35 507.974 314.09 507.343 312.047C506.713 310.004 511.442 303.851 514.278 304.483C515.049 304.69 515.768 305.056 516.389 305.557C517.01 306.058 517.519 306.684 517.884 307.394C515.539 302.112 517.417 300.271 520.745 300.725C524.213 301.192 520.935 302.011 523.418 304.797C523.595 304.993 523.793 305.166 524.011 305.314C524.497 305.642 525.047 305.861 525.625 305.958C526.212 306.058 526.809 306.088 527.403 306.045C527.741 306.03 528.077 305.996 528.411 305.944C529.082 305.834 529.744 305.674 530.391 305.465C531.496 305.112 532.565 304.652 533.581 304.091C537.917 301.721 539.746 300.911 543.049 301.758C546.352 302.606 546.289 305.088 546.289 305.088L547.449 307.041Z" fill="#CFD8DC"/>
<path d="M547.449 307.041C540.183 316.92 529.717 323.973 517.833 327C526.546 323.253 534.551 318.351 540.022 312.312C545.494 306.273 547.449 307.041 547.449 307.041Z" fill="#ADBEC4"/>
<path d="M524.013 305.314C524.499 305.642 525.049 305.862 525.627 305.958C524.722 306.099 523.886 306.529 523.245 307.184C522.604 307.839 522.192 308.684 522.072 309.592L520.66 309.138C520.962 305.579 523.774 305.324 524.013 305.314Z" fill="#ADBEC4"/>
<path d="M526.245 309.943L524.769 309.993C524.521 309.307 524.469 308.566 524.621 307.853C524.772 307.14 525.121 306.484 525.626 305.959C526.213 306.059 526.81 306.089 527.404 306.046C526.897 306.545 526.525 307.164 526.322 307.845C526.119 308.526 526.093 309.248 526.245 309.943V309.943Z" fill="#ADBEC4"/>
<path d="M529.889 309.134L528.426 309.324C528.182 308.794 528.055 308.219 528.053 307.636C528.051 307.053 528.174 306.476 528.414 305.945C529.085 305.835 529.746 305.675 530.393 305.465C530.04 306 529.811 306.608 529.724 307.243C529.637 307.878 529.693 308.524 529.889 309.134V309.134Z" fill="#ADBEC4"/>
<path d="M389.508 153.664C389.508 153.664 392.745 171.136 386.199 178.098C379.652 185.06 383.982 179.339 385.935 170.362C387.889 161.386 386.401 151.93 389.508 153.664Z" fill="#CE364C"/>
<path d="M419.723 145.866C419.723 145.866 430.043 149.257 435.442 158.788C435.442 158.788 428.233 143.269 419.723 145.866Z" fill="#CE364C"/>
<path d="M140.218 16.0567C142.057 16.4063 143.854 16.9455 145.582 17.6658C148.509 19.4668 150.138 20.449 152.083 20.6114C154.028 20.7738 154.808 24.1112 154.808 24.1112C154.808 24.1112 162.445 25.7817 162.871 20.9669C162.871 20.9669 158.601 14.9245 158.302 14.1092C157.695 12.4876 158.797 10.0507 157.083 7.32303C155.882 5.13466 155.025 2.77463 154.541 0.325681C154.541 0.325681 152.846 -0.205764 152.661 1.46125C152.477 3.1487 153.733 5.46071 153.421 6.18066C153.361 6.32408 153.285 6.45982 153.193 6.58492C153.185 6.59561 153.179 6.60803 153.176 6.62126C153.035 6.84889 152.846 7.04288 152.622 7.18962C152.398 7.33636 152.145 7.43229 151.88 7.47066C151.844 7.48496 151.805 7.49004 151.766 7.48543C149.854 7.43773 146.5 4.79186 145.123 3.47574C143.212 1.64294 140.434 -0.737206 139.809 0.873027C139.183 2.48326 141.267 2.38105 144.755 7.22538L144.405 7.72503C144.632 8.08841 140.958 6.24879 138.023 3.95154C136 2.37424 135.575 4.25133 135.927 5.06439C136.279 5.87746 138.539 7.17542 139.99 8.33596C140.955 9.09112 141.967 9.87124 142.57 10.3323L142.385 11.1181C137.389 10.0257 136.606 8.14519 135.542 9.18764C134.478 10.2301 137.617 12.3434 139.207 12.7079C140.25 13.0672 141.248 13.5483 142.178 14.141C138.193 14.0524 137.219 12.7783 136.555 13.7935C135.884 14.8518 138.843 16.0351 140.218 16.0567Z" fill="#FF8B66"/>
<path d="M152.934 12.3677C151.723 10.0795 153.017 6.99876 153.185 6.62402C153.044 6.85166 152.855 7.04565 152.631 7.19239C152.407 7.33912 152.154 7.43505 151.889 7.47343C151.549 8.29954 151.467 9.20902 151.654 10.0825C151.841 10.9559 152.287 11.7525 152.934 12.3677V12.3677Z" fill="#EF6E4B"/>
<path d="M364.897 16.0567C363.058 16.4063 361.261 16.9455 359.533 17.6658C356.605 19.4668 354.977 20.449 353.033 20.6114C351.089 20.7738 350.307 24.1112 350.307 24.1112C350.307 24.1112 342.671 25.7817 342.239 20.9669C342.239 20.9669 346.509 14.9245 346.808 14.1092C347.414 12.4876 346.313 10.0507 348.027 7.32303C349.228 5.13466 350.085 2.77463 350.569 0.325681C350.569 0.325681 352.264 -0.205764 352.449 1.46125C352.633 3.1487 351.377 5.46071 351.689 6.18066C351.749 6.32408 351.825 6.45982 351.917 6.58492C351.925 6.59557 351.93 6.60804 351.932 6.62126C352.074 6.84879 352.263 7.0427 352.487 7.18942C352.711 7.33615 352.964 7.43214 353.229 7.47066C353.265 7.48473 353.304 7.4898 353.343 7.48543C355.255 7.43773 358.608 4.79186 359.986 3.47574C361.897 1.64294 364.675 -0.737206 365.3 0.873027C365.926 2.48326 363.842 2.38105 360.354 7.22538L360.704 7.72503C360.476 8.08841 364.15 6.24879 367.084 3.95154C369.109 2.37424 369.534 4.25133 369.181 5.06439C368.827 5.87746 366.569 7.17542 365.119 8.33596C364.153 9.09112 363.142 9.87124 362.539 10.3323L362.723 11.1181C367.719 10.0257 368.503 8.14519 369.567 9.18764C370.631 10.2301 367.491 12.3434 365.902 12.7079C364.859 13.067 363.861 13.548 362.93 14.141C366.916 14.0524 367.889 12.7783 368.553 13.7935C369.232 14.8518 366.272 16.0351 364.897 16.0567Z" fill="#FF8B66"/>
<path d="M352.181 12.3677C353.391 10.0795 352.098 6.99876 351.929 6.62402C352.07 6.85155 352.259 7.04547 352.483 7.1922C352.707 7.33892 352.961 7.4349 353.226 7.47343C353.565 8.29943 353.647 9.20884 353.461 10.0823C353.274 10.9557 352.828 11.7524 352.181 12.3677V12.3677Z" fill="#EF6E4B"/>
<path d="M297.787 247.538L283.117 156.703L253.741 159.983L224.366 156.703L209.696 247.538L202.649 335.636C202.649 335.636 204.89 342.935 219.544 337.892C219.544 337.892 230.415 256.179 232.097 254.381C233.779 252.582 251.042 199.208 251.042 199.208H256.441C256.441 199.208 273.702 252.58 275.386 254.381C277.07 256.182 287.938 337.892 287.938 337.892C302.587 342.935 304.832 335.636 304.832 335.636L297.787 247.538Z" fill="#0E3944"/>
<path d="M244.487 68.7383C246.343 70.5438 255.472 73.8018 260.292 68.7383L263.561 71.9497C263.561 71.9497 259.834 80.714 253.294 81.0206C246.753 81.3272 242.025 73.2226 242.025 73.2226L244.487 68.7383Z" fill="#0C476B"/>
<path d="M270.341 67.749C281.267 63.0455 316.569 50.5407 316.569 50.5407C316.569 50.5407 340.302 20.8093 345.139 16.3965C345.139 16.3965 350.393 17.3424 351.929 23.8821C351.929 23.8821 336.649 56.6023 328.342 65.9696C320.035 75.3369 277.966 95.5965 277.966 95.5965L270.341 67.749Z" fill="#0C476B"/>
<path d="M232.097 67.0746C235.347 65.0192 251.667 75.932 251.667 75.932C251.667 75.932 272.884 64.6649 277.864 66.8475C277.864 66.8475 282.35 72.8524 284.154 88.2892C285.957 103.726 286.076 167.252 286.076 167.252C275.215 170.648 263.896 172.35 252.517 172.298C230.521 172.298 218.687 165.99 218.687 165.99C218.687 165.99 214.761 78.0385 232.097 67.0746Z" fill="#FFB878"/>
<path d="M245.349 65.4238C245.349 65.4238 247.699 72.8152 245.349 75.6632C245.349 75.6632 247.789 80.7835 252.176 81.0106C257.243 81.2718 259.002 75.6632 259.002 75.6632C259.002 75.6632 256.322 68.5239 259.002 66.0109L245.349 65.4238Z" fill="#EF6E4B"/>
<path d="M239.49 58.1484C239.49 58.1484 234.545 48.6301 235.525 38.4588C236.505 28.2876 251.829 25.954 262.159 30.9516C262.159 30.9516 259.093 27.9537 260.292 27.1202C261.491 26.2867 263.561 31.6182 263.561 31.6182C263.561 31.6182 266.824 30.6189 267.323 31.6182C267.823 32.6175 263.98 33.1648 263.98 33.1648C263.98 33.1648 270.646 36.8611 264.418 56.5325L239.49 58.1484Z" fill="#8B383E"/>
<path d="M238.747 52.1211C238.747 52.1211 235.06 48.4419 234.605 52.7434C234.08 57.7262 238.606 59.7339 239.488 58.1487C240.371 56.5634 238.747 52.1211 238.747 52.1211Z" fill="#FF8B66"/>
<path d="M264.567 52.3816C264.567 52.3816 268.255 48.7013 268.709 53.0028C269.234 57.9868 264.708 59.9945 263.826 58.4092C262.943 56.824 264.567 52.3816 264.567 52.3816Z" fill="#FF8B66"/>
<path d="M251.269 70.1719C243.087 70.1719 238.47 64.828 238.47 48.7995C238.47 40.5314 242.671 35.46 251.84 35.46C261.008 35.46 264.865 40.5314 264.865 48.7995C264.865 66.0226 259.721 70.1719 251.269 70.1719Z" fill="#FF8B66"/>
<path d="M262.154 54.5168C262.308 54.8875 262.343 55.2969 262.254 55.6884C262.166 56.08 261.957 56.4342 261.659 56.7023C261.36 56.9704 260.985 57.139 260.586 57.1849C260.187 57.2307 259.784 57.1515 259.432 56.9583C259.081 56.765 258.797 56.4672 258.622 56.106C258.447 55.7449 258.388 55.3382 258.454 54.9422C258.52 54.5462 258.707 54.1804 258.99 53.8955C259.273 53.6106 259.637 53.4206 260.033 53.3517C260.468 53.2308 260.934 53.2849 261.33 53.5026C261.727 53.7203 262.022 54.0842 262.154 54.5168V54.5168Z" fill="#DB614D"/>
<path d="M245.327 54.9645C245.389 55.361 245.327 55.7671 245.148 56.1267C244.97 56.4863 244.684 56.7816 244.331 56.9718C243.977 57.162 243.574 57.2378 243.175 57.1885C242.777 57.1393 242.404 56.9676 242.107 56.697C241.811 56.4265 241.605 56.0705 241.52 55.6783C241.435 55.2861 241.473 54.877 241.63 54.5077C241.787 54.1383 242.055 53.8268 242.397 53.6163C242.739 53.4059 243.137 53.3067 243.538 53.3327C243.99 53.3177 244.43 53.4799 244.764 53.7848C245.098 54.0896 245.3 54.5129 245.327 54.9645V54.9645Z" fill="#DB614D"/>
<path d="M258.413 46.1993C258.357 46.1995 258.303 46.1884 258.252 46.1667C258.201 46.145 258.155 46.1132 258.117 46.0732C257.244 45.3191 256.122 44.9146 254.968 44.9376C254.861 44.9392 254.756 44.8988 254.678 44.8248C254.599 44.7508 254.552 44.6492 254.547 44.5413C254.545 44.4877 254.554 44.4341 254.573 44.3838C254.592 44.3335 254.62 44.2875 254.657 44.2483C254.694 44.2091 254.738 44.1776 254.787 44.1556C254.836 44.1336 254.889 44.1215 254.942 44.12C256.329 44.0888 257.675 44.5862 258.708 45.5111C258.763 45.5688 258.801 45.6416 258.815 45.7204C258.83 45.7992 258.821 45.8805 258.789 45.9542C258.758 46.0278 258.705 46.0906 258.638 46.1345C258.571 46.1785 258.493 46.2018 258.413 46.2015V46.1993Z" fill="#8B383E"/>
<path d="M243.008 46.1992C242.902 46.1994 242.801 46.1587 242.726 46.0857C242.648 46.0108 242.602 45.908 242.599 45.7997C242.596 45.6914 242.637 45.5864 242.711 45.5077C243.744 44.5827 245.09 44.0854 246.477 44.1166C246.53 44.1182 246.583 44.1304 246.632 44.1525C246.681 44.1746 246.725 44.206 246.762 44.2452C246.798 44.2843 246.827 44.3303 246.846 44.3806C246.865 44.4308 246.874 44.4843 246.872 44.5379C246.866 44.6456 246.819 44.7469 246.741 44.8207C246.662 44.8946 246.558 44.9352 246.451 44.9342C245.298 44.9152 244.179 45.3192 243.304 46.0698C243.266 46.1103 243.22 46.1426 243.169 46.1649C243.118 46.1871 243.063 46.1988 243.008 46.1992V46.1992Z" fill="#8B383E"/>
<path d="M257.705 49.5403C257.705 50.5623 257.251 51.381 256.683 51.381C256.115 51.381 255.661 50.5566 255.661 49.5403C255.661 48.524 256.115 47.7007 256.683 47.7007C257.251 47.7007 257.705 48.524 257.705 49.5403Z" fill="#1A4850"/>
<path d="M246.78 49.5403C246.78 50.5623 246.326 51.381 245.758 51.381C245.19 51.381 244.736 50.5566 244.736 49.5403C244.736 48.524 245.19 47.7007 245.758 47.7007C246.326 47.7007 246.78 48.524 246.78 49.5403Z" fill="#1A4850"/>
<path d="M246.78 61.4103C246.78 61.4103 253.994 62.3392 257.705 60.5586C257.705 60.5586 255.608 65.471 251.666 65.0293C250.59 64.9603 249.556 64.5821 248.689 63.9401C247.823 63.2982 247.16 62.4198 246.78 61.4103V61.4103Z" fill="#1A4850"/>
<path d="M264.012 54.1962C264.012 54.1962 263.757 45.2979 260.292 38.4583C260.292 38.4583 254.185 41.2802 252.842 40.6159C251.498 39.9516 254.123 38.4583 254.123 38.4583C254.123 38.4583 244.046 41.7799 243.44 41.1133C242.835 40.4467 246.78 38.4583 246.78 38.4583L240.503 40.6159C240.503 40.6159 238.572 48.6228 239.367 54.1984C239.367 54.1984 236.669 49.5426 236.336 46.3289C236.003 43.1153 237.415 33.9513 246.871 33.2858C256.327 32.6204 261.633 34.7621 263.979 39.1068C266.325 43.4514 266.032 48.7863 264.012 54.1962Z" fill="#8B383E"/>
<path d="M252.695 58.8413C252.07 58.8266 251.45 58.7347 250.848 58.5676L251.08 57.7307C251.939 57.9669 253.285 58.1088 253.579 57.7625C253.68 57.641 253.64 57.3616 253.465 56.996C252.283 54.4807 252.037 48.1136 252.026 47.8444L252.896 47.8115C252.896 47.8763 253.145 54.2706 254.252 56.6247C254.421 56.876 254.51 57.1723 254.508 57.4751C254.506 57.7778 254.414 58.073 254.242 58.3223C254.035 58.513 253.791 58.6578 253.524 58.7472C253.257 58.8366 252.975 58.8687 252.695 58.8413V58.8413Z" fill="#DB614D"/>
<path d="M261.748 71.0805C261.748 71.0805 276.556 117.048 277.966 154.45C277.966 154.45 283.31 155.921 289.329 147.727C295.347 139.532 291.767 74.62 280.237 63.8083C280.237 63.8117 275.007 62.6194 261.748 71.0805Z" fill="#105E99"/>
<path d="M264.161 79.1182C264.161 79.1182 266.811 72.96 265.637 68.7368C264.463 64.5137 260.3 68.7368 260.3 68.7368C260.3 68.7368 261.975 75.6524 264.161 79.1182Z" fill="#0C476B"/>
<path d="M234.439 67.7488C223.513 63.0453 188.211 50.5404 188.211 50.5404C188.211 50.5404 164.421 19.9426 159.581 15.5298C157.778 16.6452 156.261 18.1665 155.151 19.9723C154.04 21.778 153.367 23.8184 153.186 25.9304C153.186 25.9304 168.132 56.6021 176.437 65.9693C184.743 75.3366 226.815 95.5963 226.815 95.5963L234.439 67.7488Z" fill="#0C476B"/>
<path d="M243.032 71.0805C243.032 71.0805 228.225 117.048 226.814 154.45C226.814 154.45 221.469 155.921 215.452 147.727C209.434 139.532 213.014 74.62 224.536 63.8083C224.542 63.8117 229.772 62.6194 243.032 71.0805Z" fill="#105E99"/>
<path d="M240.618 79.1182C240.618 79.1182 237.968 72.96 239.142 68.7368C240.316 64.5137 244.479 68.7368 244.479 68.7368C244.479 68.7368 242.805 75.6524 240.618 79.1182Z" fill="#0C476B"/>
<path d="M317.895 359.326H288.494C286.439 347.639 289.717 335.933 289.717 335.933L303.157 333.626C304.379 341.014 305.855 343.927 307.897 345.427H307.91C309.397 346.511 311.175 346.863 313.394 347.633C314.423 347.944 315.367 348.487 316.155 349.219C316.942 349.951 317.551 350.853 317.937 351.856C318.685 354.292 318.67 356.899 317.895 359.326V359.326Z" fill="#662C33"/>
<path d="M317.933 351.863C310.684 352.771 294.76 354.321 295.73 350.123C296.538 346.617 303.257 345.673 307.897 345.433H307.909C309.397 346.518 311.175 346.87 313.394 347.64C314.422 347.951 315.366 348.494 316.153 349.226C316.939 349.958 317.548 350.86 317.933 351.863Z" fill="#8B383E"/>
<path d="M219.429 359.326H190.028C189.464 357.495 189.292 355.566 189.523 353.665C189.677 352.281 190.233 350.973 191.123 349.902C192.013 348.83 193.197 348.044 194.529 347.639C197.076 346.755 199.03 346.428 200.632 344.927C202.371 343.288 203.669 340.263 204.766 333.631L218.207 335.939C218.207 335.939 221.471 347.639 219.429 359.326Z" fill="#662C33"/>
<path d="M189.523 353.665C189.677 352.282 190.233 350.973 191.123 349.902C192.013 348.831 193.197 348.044 194.529 347.639C197.076 346.756 199.03 346.428 200.632 344.927C204.351 346.075 209.557 348.181 211.171 351.37C213.416 355.742 196.232 355.052 189.523 353.665Z" fill="#8B383E"/>
<path d="M430.508 357.218C430.511 357.921 430.469 358.625 430.381 359.323H394.664C394.664 358.617 394.676 357.91 394.714 357.218C395.035 351.276 396.164 345.406 398.068 339.769L406.994 335.936C407.432 339.651 409.311 343.046 412.226 345.391C412.864 345.892 413.549 346.332 414.27 346.702C414.598 346.879 414.927 347.043 415.266 347.194C416.006 347.529 416.769 347.811 417.549 348.039C420.363 348.761 423.23 349.263 426.122 349.539C429.932 350.134 430.508 354.534 430.508 357.218Z" fill="#164353"/>
<path d="M430.508 357.219C430.511 357.923 430.469 358.626 430.381 359.324H394.664C394.664 358.618 394.676 357.911 394.714 357.219H430.508Z" fill="#225866"/>
<path d="M414.268 346.706L409.313 348.295L408.268 346.479L412.226 345.394C412.863 345.895 413.547 346.335 414.268 346.706V346.706Z" fill="#225866"/>
<path d="M417.547 348.042L414.206 350.261L412.15 349.454L415.264 347.197C416.004 347.532 416.767 347.815 417.547 348.042V348.042Z" fill="#225866"/>
<path d="M294.041 357.218C293.992 357.934 293.856 358.64 293.638 359.323H269.848C269.553 358.647 269.329 357.941 269.179 357.218C266.834 345.833 282.645 331.902 282.645 331.902L287.663 338.602C287.663 338.602 287.083 349.318 291.331 351.547C292.314 352.095 293.104 352.935 293.589 353.951C294.075 354.967 294.233 356.109 294.041 357.218V357.218Z" fill="#164353"/>
<path d="M269.179 357.219H294.041C293.992 357.935 293.857 358.641 293.638 359.325H269.848C269.553 358.648 269.329 357.942 269.179 357.219V357.219Z" fill="#225866"/>
<path d="M290.244 350.694C290.244 350.694 280.22 348.408 275.651 351.368V349.713C275.651 349.713 284.081 345.616 290.244 350.694Z" fill="#225866"/>
<path d="M288.258 348.152C288.258 348.152 281.858 345.226 275.653 348.152L276.361 346.483C276.361 346.483 283.773 343.679 288.258 348.152Z" fill="#225866"/>
<path d="M419.728 256.005C419.74 265.575 411.243 343.592 411.243 343.592C406.127 344.1 400.964 343.811 395.937 342.734C393.604 303.196 393.377 269.194 393.377 269.194L352.655 238.665L352.554 238.59C352.554 238.59 352.403 239.283 352.125 240.521C350.108 249.473 341.573 286.966 338.017 295.554C333.97 305.338 289.72 346.479 289.72 346.479C281.5 345.344 274.525 339.391 274.525 339.391C290.411 313.046 312.071 286.615 312.071 286.615C313.76 277.121 314.971 256.003 315.69 240.219C315.702 239.979 315.715 239.727 315.727 239.488C316.206 228.796 316.446 220.727 316.446 220.727L308.982 205.422L356.4 187.998L367.027 201.602C367.027 201.602 369.461 203.858 373.294 207.463L373.823 207.955C388.057 221.385 419.728 251.724 419.728 256.005Z" fill="#8BBDDB"/>
<path d="M315.694 240.222C315.707 239.983 315.719 239.73 315.732 239.491C325.717 234.07 324.04 225.42 324.015 225.333L324.632 225.207C324.653 225.294 326.444 234.586 315.694 240.222Z" fill="#6097B2"/>
<path d="M351.919 232.555C352.279 234.578 352.523 236.62 352.65 238.67L352.549 238.596C352.549 238.596 352.398 239.288 352.121 240.526C351.679 225.7 345.565 216.937 345.489 216.837L346.006 216.471C346.07 216.546 349.927 222.12 351.797 231.84C359.009 225.434 351.948 212.308 351.873 212.185L352.428 211.881C352.504 212.018 359.981 225.911 351.919 232.555Z" fill="#6097B2"/>
<path d="M373.823 207.958C373.81 207.971 373.785 207.971 373.773 207.984C373.458 208.099 373.125 208.154 372.79 208.148C369.298 208.148 363.435 203.256 363.158 203.016L363.573 202.537C365.478 204.151 370.785 208.022 373.294 207.467L373.823 207.958Z" fill="#6097B2"/>
<path d="M312.302 123.813C312.302 123.813 326.724 121.492 333.953 126.1C341.182 130.708 350.668 142.732 350.668 142.732C350.668 142.732 339.403 144.219 338.127 151.871C338.127 151.871 329.944 132.378 312.302 123.813Z" fill="#ADBEC4"/>
<path d="M290.598 131.336C284.497 134.629 274.297 147.018 273.837 154.634C273.383 162.062 278.889 168.893 282.599 174.701C294.174 192.823 306.361 208.836 311.539 230.091C311.572 230.226 338.015 240.719 369.048 203.416C369.048 203.416 351.513 179.822 345.455 159.735C342.988 151.559 340.48 142.873 335.743 135.661C333.257 131.764 329.769 128.608 325.643 126.522C321.518 124.437 316.908 123.499 312.296 123.807C304.437 124.451 296.616 128.086 290.598 131.336Z" fill="#CFD8DC"/>
<path d="M288.043 123.734C288.043 123.734 291.946 130.402 290.143 134.067C290.143 134.067 303.533 138.69 303.533 131.198C303.533 131.198 301.01 125.582 301.96 121.951L288.043 123.734Z" fill="#FFAB90"/>
<path d="M317.8 169.396C317.8 169.396 310.352 171.513 308.471 174.149C306.591 176.786 304.919 182.7 304.919 182.7H317.8L320.222 178.244L323.061 172.305L317.8 169.396Z" fill="#FFA386"/>
<path d="M305.485 116.298C305.485 116.298 310.716 114.105 307.332 98.3756C305.09 87.9534 301.862 86.3999 299.775 86.3079C299.775 86.3079 297.222 82.4618 288.368 84.3025C285.307 84.8321 282.458 86.2175 280.152 88.2984C277.846 90.3793 276.175 93.0708 275.335 96.0613C273.112 103.175 277.558 118.423 283.414 119.94L305.485 116.298Z" fill="#164353"/>
<path d="M306.723 105.669C306.723 105.669 310.016 101.081 311.265 105.603C312.708 110.841 308.219 113.788 306.993 112.248C305.768 110.709 306.723 105.669 306.723 105.669Z" fill="#FFAB91"/>
<path d="M279.146 110.502C279.146 110.502 274.552 107.217 274.831 111.899C275.148 117.323 280.345 118.672 281.012 116.82C281.679 114.967 279.146 110.502 279.146 110.502Z" fill="#FFAB91"/>
<path d="M296.513 127.188C305.265 125.745 309.262 119.213 306.433 102.065C304.974 93.2203 299.579 88.5383 289.776 90.1554C279.972 91.7724 276.737 97.8772 278.193 106.724C281.236 125.149 287.471 128.681 296.513 127.188Z" fill="#FFAB91"/>
<path d="M282.104 112.362C282.004 112.786 282.038 113.231 282.202 113.635C282.366 114.038 282.651 114.381 283.018 114.616C283.385 114.85 283.816 114.965 284.251 114.944C284.686 114.923 285.104 114.767 285.447 114.498C285.79 114.23 286.041 113.861 286.165 113.443C286.289 113.026 286.28 112.58 286.14 112.167C285.999 111.755 285.734 111.396 285.381 111.141C285.028 110.886 284.604 110.747 284.168 110.743C283.681 110.69 283.193 110.83 282.807 111.133C282.421 111.435 282.169 111.876 282.104 112.362V112.362Z" fill="#DB614D" fill-opacity="0.48"/>
<path d="M300.187 109.872C300.19 110.307 300.328 110.731 300.583 111.084C300.837 111.437 301.195 111.703 301.607 111.844C302.019 111.985 302.464 111.995 302.882 111.872C303.299 111.749 303.668 111.499 303.938 111.157C304.207 110.815 304.364 110.398 304.386 109.963C304.408 109.528 304.294 109.097 304.06 108.73C303.827 108.362 303.485 108.076 303.082 107.912C302.679 107.747 302.235 107.712 301.811 107.811C301.325 107.874 300.883 108.126 300.579 108.511C300.276 108.896 300.135 109.384 300.187 109.872Z" fill="#DB614D" fill-opacity="0.48"/>
<path d="M284.568 102.811C284.488 102.811 284.409 102.789 284.34 102.747C284.271 102.706 284.215 102.646 284.177 102.575C284.139 102.504 284.122 102.424 284.126 102.343C284.13 102.263 284.157 102.185 284.202 102.118C285.144 100.945 286.497 100.174 287.987 99.9608C288.044 99.9527 288.103 99.9562 288.16 99.971C288.216 99.9859 288.269 100.012 288.315 100.047C288.361 100.083 288.4 100.127 288.429 100.178C288.458 100.229 288.477 100.284 288.484 100.342C288.499 100.459 288.467 100.576 288.396 100.67C288.325 100.763 288.22 100.825 288.103 100.841C286.866 101.023 285.738 101.654 284.935 102.614C284.895 102.674 284.841 102.724 284.777 102.758C284.713 102.793 284.641 102.811 284.568 102.811V102.811Z" fill="#1A4850"/>
<path d="M301.045 100.093C300.949 100.093 300.855 100.061 300.779 100.003C299.711 99.3516 298.442 99.116 297.212 99.3409C297.155 99.3531 297.095 99.3537 297.038 99.3427C296.981 99.3317 296.926 99.3092 296.877 99.2767C296.829 99.2442 296.787 99.2023 296.755 99.1534C296.723 99.1046 296.701 99.0498 296.691 98.9923C296.668 98.8769 296.692 98.7573 296.757 98.6596C296.822 98.5619 296.924 98.4941 297.039 98.471C298.516 98.1942 300.044 98.4889 301.312 99.2955C301.386 99.3516 301.44 99.4293 301.467 99.5177C301.494 99.6061 301.493 99.7008 301.463 99.7884C301.434 99.8761 301.378 99.9524 301.303 100.007C301.228 100.061 301.138 100.09 301.045 100.09V100.093Z" fill="#1A4850"/>
<path d="M286.163 107.323C286.342 108.411 286.977 109.212 287.58 109.112C288.183 109.012 288.528 108.05 288.349 106.962C288.169 105.874 287.534 105.076 286.931 105.175C286.328 105.274 285.983 106.237 286.163 107.323Z" fill="#1A4850"/>
<path d="M297.851 105.396C298.03 106.482 298.665 107.283 299.269 107.184C299.873 107.085 300.217 106.122 300.038 105.036C299.858 103.949 299.224 103.147 298.62 103.247C298.015 103.347 297.671 104.309 297.851 105.396Z" fill="#1A4850"/>
<path d="M301.133 115.265C301.133 115.265 293.539 117.302 289.329 116.492C289.329 116.492 292.239 120.159 296.394 119.104C300.549 118.049 301.133 115.265 301.133 115.265Z" fill="#1A4850"/>
<path d="M301.492 94.1074C301.492 94.1074 291.612 101.261 279.211 101.805L279.563 112.844C279.563 112.844 268 91.549 290.864 87.7766C313.727 84.0043 307.064 107.792 307.064 107.792C307.064 107.792 306.361 97.5334 301.492 94.1074Z" fill="#0E3944"/>
<path d="M293.411 112.298L293.347 111.344C293.361 111.344 294.679 111.241 295.022 110.424C295.164 110.084 294.602 109.016 294.106 108.071C293.247 106.582 292.604 104.978 292.198 103.308L293.136 103.119C293.526 104.7 294.138 106.218 294.953 107.627C295.688 109.03 296.219 110.043 295.904 110.794C295.647 111.233 295.284 111.6 294.848 111.863C294.413 112.126 293.919 112.275 293.411 112.298V112.298Z" fill="#DB614D" fill-opacity="0.48"/>
<path d="M306.852 94.1345C290.234 86.9237 274.55 101.876 274.55 101.876C274.55 101.876 272.722 89.7603 275.924 86.9237C276.752 86.188 277.642 85.5257 278.585 84.9444C285.922 80.317 295.681 80.4021 300.161 81.9919C300.911 82.2199 301.604 82.6073 302.191 83.1275C304.834 85.8767 306.852 94.1345 306.852 94.1345Z" fill="#CE364C"/>
<path d="M304.834 91.4381C295.433 90.064 285.853 92.142 277.866 97.2874C277.866 97.2874 277.034 89.4713 278.585 84.9449C285.922 80.3175 295.681 80.4026 300.161 81.9924C302.766 84.9699 304.834 91.4381 304.834 91.4381Z" fill="#CFD8DC"/>
<path d="M275.924 100.452C275.924 100.452 278.136 91.0552 281.117 88.4082C286.076 84.0056 300.009 82.4931 307.332 85.1401C314.655 87.7871 307.332 95.7883 307.332 95.7883C307.332 95.7883 295.66 87.4282 275.924 100.452Z" fill="#A02E44"/>
<path d="M297.475 162.893C301.486 168.677 306.758 173.475 312.893 176.926C312.893 176.926 325.043 166.378 340.8 167.327C340.8 167.327 327.741 190.888 316.528 193.498C310.636 194.868 289.329 180.759 289.329 180.759C289.329 180.759 293.582 165.763 297.475 162.893Z" fill="#FFAB90"/>
<path d="M276.47 146.876C281.694 138.378 293.731 150.941 297.83 159.912C301.93 168.883 304.918 170.786 304.918 170.786C304.918 170.786 292.881 175.812 292.972 184.83C292.972 184.83 265.079 165.421 276.47 146.876Z" fill="#ADBEC4"/>
<path d="M312.893 173.045C312.893 173.045 320.222 165.854 344.321 156.465L341.208 146.677C343.973 143.043 349.056 143.043 349.056 143.043C349.056 143.043 361.403 160.478 359.276 165.686C357.95 168.942 332.196 172.349 312.893 173.045Z" fill="#FFA386"/>
<path d="M339.284 158.818C339.49 157.992 339.857 157.215 340.365 156.531C341.256 155.274 341.015 152.986 341.334 152.276C341.653 151.567 343.549 148.669 344.808 148.106C346.066 147.542 347.717 146.619 348.068 148.219C348.419 149.819 345.814 149.364 344.644 151.661C346.127 151.195 347.697 151.076 349.233 151.314C351.263 151.794 351.839 153.651 349.331 153.585C347.724 153.71 346.163 154.18 344.753 154.961C344.753 154.961 347.365 155.353 346.939 156.551C346.354 158.219 343.175 157.196 339.284 158.818Z" fill="#FFAB90"/>
<path d="M161.052 191.643C163.209 197.159 172.03 206.615 172.03 206.615C172.03 206.615 193.588 193.692 203.533 199.129C213.479 204.566 221.382 207.883 227.834 205.515C234.287 203.148 206.627 152.848 206.627 152.848L170.767 139.163C170.767 139.163 169.984 148.233 165.884 149.844C161.783 151.456 157.418 166.423 157.708 169.262C157.997 172.101 161.052 191.643 161.052 191.643Z" fill="#3E6575"/>
<path d="M201.399 206.944C201.399 206.944 192.153 225.069 173.062 248.278C173.062 248.278 171.105 275.883 120.622 319.315L115.337 315.157C115.337 315.157 145.402 268.064 151.414 253.626C157.427 239.187 148.091 225.957 175.755 189.437L201.399 206.944Z" fill="#A66550"/>
<path d="M171.968 174.869C164.007 190.116 161.337 209.61 161.337 209.61L157.712 218.754C166.445 223.222 175.777 226.407 185.42 228.21L191.375 212.45L171.968 174.869Z" fill="#662C33"/>
<path d="M213.483 205.516C213.483 205.516 217.425 225.478 216.776 255.526C216.776 255.526 232.308 278.431 219.49 343.78H212.766C212.766 343.78 207.274 288.181 203.071 273.114C198.868 258.047 183.35 253.426 182.509 207.617L213.483 205.516Z" fill="#BF745C"/>
<path d="M217.425 226.945C217.425 226.945 204.779 229.216 182.501 228.168L182.148 225.658L182.061 225.015L179.753 208.777C178.088 206.599 176.632 204.268 175.403 201.817C175.138 201.313 174.886 200.795 174.634 200.254C171.634 193.862 168.973 184.57 171.961 174.875L176.665 175.089L177.32 175.127L193.053 175.845L193.721 175.884L198.89 176.122L199.697 176.161L203.051 176.312C203.051 176.312 220.097 191.656 217.058 220.023L217.272 223.97L217.297 224.612L217.425 226.945Z" fill="#8B383E"/>
<path d="M177.32 175.126C176.878 176.425 173.903 186.057 175.403 201.812C175.138 201.308 174.886 200.79 174.634 200.249C173.512 185.839 176.097 176.849 176.665 175.084C176.739 174.869 176.778 174.769 176.778 174.756L177.37 174.97C177.37 174.988 177.345 175.039 177.32 175.126Z" fill="#662C33"/>
<path d="M217.299 224.612C212.824 225.759 205.233 226.075 198.021 226.075C191.549 226.075 185.417 225.81 182.148 225.658L182.061 225.016C187.722 225.293 202.624 225.873 212.231 224.827L211.613 214.677C211.624 204.626 209.266 194.713 204.729 185.743C195.98 184.153 193.571 177.674 193.054 175.846C192.978 175.556 192.941 175.379 192.941 175.366L193.559 175.266C193.559 175.278 193.609 175.505 193.722 175.884C194.483 178.239 195.879 180.339 197.757 181.951C199.634 183.564 201.921 184.627 204.364 185.024C202.791 181.91 200.96 178.932 198.891 176.123C198.614 175.744 198.437 175.531 198.426 175.517L198.905 175.114C198.93 175.139 199.219 175.492 199.7 176.161C202.625 180.136 212.496 195.073 212.244 214.657L212.862 224.756C214.349 224.594 215.823 224.333 217.275 223.974L217.299 224.612Z" fill="#662C33"/>
<path d="M185.086 106.468C180.068 103.704 143.908 117.885 143.908 117.885C143.908 117.885 138.558 127.424 141.892 131.171C145.226 134.919 157.059 133.263 160.684 131.171C164.308 129.08 173.91 127.497 173.91 127.497L185.086 106.468Z" fill="#8BBDDB"/>
<path d="M217.063 76.3655C219.473 77.4593 221.626 79.0472 223.384 81.0262C225.141 83.0053 226.463 85.3315 227.265 87.854C229.997 96.4593 221.829 118.245 224.653 128.26C227.477 138.274 227.037 157.186 218.221 161.179C209.404 165.171 191.324 158.026 187.447 147.098C183.57 136.169 185.241 94.7764 192.702 80.6977C200.164 66.6189 215.266 73.7117 217.063 76.3655Z" fill="#8B383E"/>
<path d="M208.479 113.494C210.449 115.618 215.52 111.833 215.52 111.833C215.52 111.833 215.416 130.61 209.955 132.046C204.494 133.481 190.586 117.258 191.158 112.844C191.731 108.431 204.111 108.784 208.479 113.494Z" fill="#8BBDDB"/>
<path d="M187.44 108.797C191.922 112.178 197.089 114.539 202.578 115.714C212.197 117.944 217.409 113.422 222.328 119.623C229.709 128.935 217.7 146.091 211.379 154.983C209.024 158.298 204.051 167.493 203.047 176.314C203.047 176.314 186.355 181.162 171.968 174.869L170.894 154.396C170.894 154.396 161.825 126.805 187.44 108.797Z" fill="#0E3944"/>
<path d="M204.694 128.715C204.694 128.715 212.319 110.546 214.527 109.383C216.734 108.22 222.335 111.008 223.46 113.494C224.586 115.98 223.46 121.402 223.46 121.402C223.46 121.402 217.446 114.537 204.694 128.715Z" fill="#8BBDDB"/>
<path d="M241.216 205.512C237.749 212.609 229.238 214.652 229.238 214.652C229.238 214.652 228.595 213.669 227.511 211.903C227.397 211.727 227.271 211.525 227.158 211.324C220.458 200.468 200.001 165.734 200.405 147.668C200.488 141.408 201.818 135.227 204.316 129.486C206.814 123.745 210.43 118.56 214.954 114.232C222.102 115.935 224.36 117.888 224.36 117.888C225.816 126.843 225.883 135.969 224.561 144.944C222.354 159.707 218.346 163.617 220.359 164.726C222.372 165.835 220.359 168.029 220.359 168.029C220.359 168.029 232.223 184.558 234.44 189.702C235.877 193.055 238.323 198.753 239.849 202.306C239.949 202.56 240.05 202.812 240.151 203.038C240.799 204.541 241.216 205.512 241.216 205.512Z" fill="#6097B2"/>
<path d="M220.609 117.885C220.609 117.885 212.114 124.181 217.063 133.802L240.608 158.177C227.685 171.947 226.404 177.595 217.063 183.949L220.609 189.44C220.609 189.44 253.325 164.296 253.374 158.177C253.394 155.557 233.39 123.866 220.609 117.885Z" fill="#BF745C"/>
<path d="M216.547 183.951C214.089 184.223 211.648 184.625 209.233 185.155C206.406 185.862 202.638 186.568 202.52 187.157C202.402 187.745 208.766 187.157 208.766 187.157C208.766 187.157 203.585 189.286 203.467 190.109C203.349 190.932 210.061 189.515 210.061 189.515C210.061 189.515 205.822 192.105 206.057 192.808C206.293 193.511 211.515 191.748 211.515 191.748C211.012 193.043 210.348 194.27 209.537 195.399C209.537 195.399 210.549 195.954 212.603 193.675C214.657 191.396 217.933 192.127 220.527 190.105C223.12 188.082 218.909 183.647 216.547 183.951Z" fill="#BF745C"/>
<path d="M192.486 111.822C192.486 111.822 186.023 115.998 181.942 126.084C177.861 136.17 164.982 155.155 161.965 160.054C158.948 164.954 161.05 191.645 161.05 191.645C161.05 191.645 157.267 175.464 155.586 169.161C153.906 162.857 161.014 147.28 162.083 146.449C163.152 145.618 168.614 147.131 167.563 140.81C166.513 134.489 181.172 107.232 185.084 106.465C185.086 106.468 191.35 107.646 192.486 111.822Z" fill="#6097B2"/>
<path d="M172.499 113.185C172.386 113.405 172.255 113.616 172.109 113.816C170.943 115.31 169.527 116.589 167.923 117.598C167.923 117.598 162.992 124.508 162.943 125.301C162.893 125.983 154.381 132.16 150.6 132.034H150.588C150.133 132.048 149.689 131.895 149.338 131.605C147.095 129.487 156.98 111.71 159.16 107.877C159.298 107.625 159.412 107.437 159.488 107.309C159.538 107.208 159.577 107.145 159.577 107.145C159.577 107.145 157.836 100.665 165.099 101.875C171.138 102.87 172.335 107.675 172.966 110.89C173.084 111.686 172.919 112.498 172.499 113.185V113.185Z" fill="#6097B2"/>
<path d="M147.147 119.903C152.136 113.346 169.689 100.628 178.935 96.8623L181.247 101.159C181.247 101.159 163.38 116.866 159.183 123.586C154.986 130.305 149.786 133.085 144.819 130.846C139.852 128.608 146.098 121.283 147.147 119.903Z" fill="#BF745C"/>
<path d="M170.764 111.838L169.818 112.921L169.339 113.476L167.775 115.266C167.775 115.266 163.842 120.035 163.994 121.949C164.108 123.323 156.53 129.475 150.605 132.035C148.196 133.081 146.053 133.535 144.804 132.816C140.518 130.345 141.476 122.92 143.909 117.889C146.027 113.501 155.395 107.841 157.803 106.454C157.982 106.335 158.168 106.226 158.358 106.126L158.371 106.113L159.265 102.634C159.265 102.634 162.531 100.667 165.103 101.877C165.103 101.877 159.426 102.116 160.362 104.323C161.321 106.541 169.188 111.762 170.764 111.838Z" fill="#8BBDDB"/>
<path d="M191.365 93.6426C185.654 95.9887 186.473 101.158 181.241 101.158C178 101.158 177.572 97.4501 177.572 97.4501C178.967 93.8843 179.842 90.1364 180.169 86.3216C180.384 83.7495 181.241 84.7454 181.241 84.7454C181.241 84.5058 181.229 84.2787 181.216 84.0516C181.14 82.3244 180.825 81.0639 181.96 81.8077C183.246 82.6401 183.687 87.5321 183.687 87.5321C184.746 80.3962 183.171 79.3367 184.406 79.967C186.095 80.8243 186.109 87.1278 186.109 87.3175C187.472 83.1692 187.106 80.7993 188.051 81.7452C188.996 82.6912 187.572 90.3176 187.005 93.1168C186.879 93.747 186.791 94.1388 186.791 94.1388C191.315 91.9154 191.365 93.6426 191.365 93.6426Z" fill="#BF745C"/>
<path d="M187.003 93.1142C186.877 93.7444 186.788 94.1362 186.788 94.1362C186.058 94.1329 185.34 94.3209 184.705 94.6815C184.071 95.0422 183.541 95.5628 183.17 96.1915C183.328 95.3015 183.804 94.4989 184.509 93.933C185.214 93.367 186.1 93.0761 187.003 93.1142V93.1142Z" fill="#874538"/>
<path d="M181.556 89.8613C181.594 89.256 181.847 85.7892 181.241 84.7422C181.241 84.5026 181.229 84.2755 181.216 84.0483C182.527 84.3266 181.698 89.13 181.556 89.8613Z" fill="#874538"/>
<path d="M185.104 119.94C185.104 119.94 188.965 109.479 190.192 107.143C191.418 104.807 197.815 105.212 202.655 106.111C207.494 107.009 208.484 113.492 208.484 113.492C208.484 113.492 193.755 106.546 185.104 119.94Z" fill="#8BBDDB"/>
<path d="M209.953 99.3511C207.114 104.94 205.559 111.092 205.403 117.358C205.403 117.358 197.892 122.462 195.204 116.069C197.038 109.678 197.541 102.979 196.68 96.3862C195.755 88.8142 209.953 99.3511 209.953 99.3511Z" fill="#A66550"/>
<path d="M195.204 87.5047C195.204 87.5047 193.83 82.6104 191.384 86.0512C188.55 90.037 191.438 93.9116 192.95 92.9872C194.461 92.0629 195.204 87.5047 195.204 87.5047Z" fill="#BF745C"/>
<path d="M217.036 100.089C217.036 100.089 221.933 98.7265 220.26 102.602C218.321 107.091 213.51 106.631 213.517 104.86C213.524 103.088 217.036 100.089 217.036 100.089Z" fill="#BF745C"/>
<path d="M197.208 108.851C190.251 104.933 188.883 98.1768 196.559 84.55C200.517 77.5197 206.523 75.2214 214.315 79.6092C222.108 83.997 222.962 90.1575 219.002 97.1889C210.755 111.832 204.395 112.898 197.208 108.851Z" fill="#BF745C"/>
<path d="M213.961 100.751C213.915 101.14 213.75 101.505 213.487 101.796C213.224 102.088 212.878 102.29 212.495 102.375C212.112 102.461 211.713 102.425 211.351 102.274C210.989 102.122 210.684 101.862 210.476 101.529C210.269 101.197 210.17 100.808 210.194 100.416C210.217 100.025 210.362 99.6503 210.607 99.3446C210.853 99.0389 211.187 98.817 211.564 98.7096C211.941 98.6022 212.342 98.6146 212.712 98.7451C213.141 98.8504 213.511 99.119 213.745 99.4937C213.978 99.8683 214.056 100.319 213.961 100.751V100.751Z" fill="#874538"/>
<path d="M199.436 93.0727C199.299 93.44 199.052 93.7558 198.728 93.9763C198.404 94.1969 198.02 94.3114 197.628 94.304C197.236 94.2967 196.857 94.1678 196.541 93.9351C196.226 93.7025 195.991 93.3777 195.868 93.0056C195.745 92.6334 195.741 92.2324 195.856 91.8579C195.972 91.4833 196.2 91.1539 196.511 90.915C196.822 90.6761 197.199 90.5396 197.59 90.5244C197.982 90.5092 198.368 90.616 198.697 90.83C199.088 91.0333 199.385 91.3817 199.523 91.8008C199.661 92.2199 199.63 92.6764 199.436 93.0727Z" fill="#874538"/>
<path d="M214.957 91.9383C214.868 91.9385 214.782 91.909 214.712 91.8545C214.642 91.8 214.592 91.7236 214.57 91.6374C214.188 90.5782 213.429 89.6968 212.439 89.1619C212.345 89.1129 212.274 89.0287 212.242 88.9278C212.211 88.8269 212.22 88.7174 212.269 88.6236C212.318 88.5298 212.403 88.4593 212.503 88.4275C212.604 88.3958 212.714 88.4055 212.808 88.4544C214.001 89.0925 214.907 90.16 215.343 91.441C215.356 91.4917 215.359 91.5446 215.352 91.5964C215.344 91.6483 215.326 91.6982 215.3 91.7432C215.273 91.7883 215.237 91.8276 215.195 91.8589C215.153 91.8902 215.106 91.913 215.055 91.9259C215.023 91.9344 214.99 91.9386 214.957 91.9383V91.9383Z" fill="#1A4850"/>
<path d="M205.403 85.1374C205.33 85.1375 205.258 85.1179 205.196 85.0806C204.224 84.5113 203.077 84.3193 201.973 84.5412C201.874 84.5655 201.769 84.5506 201.68 84.4997C201.591 84.4488 201.526 84.3657 201.497 84.2677C201.467 84.1697 201.477 84.0642 201.523 83.9731C201.57 83.8819 201.65 83.8121 201.746 83.7781C203.067 83.4849 204.45 83.7067 205.614 84.3982C205.688 84.4433 205.746 84.5115 205.778 84.5924C205.809 84.6733 205.814 84.7624 205.791 84.8461C205.767 84.9299 205.717 85.0037 205.648 85.0563C205.579 85.1089 205.494 85.1374 205.407 85.1374H205.403Z" fill="#1A4850"/>
<path d="M212.082 95.2438C211.595 96.1068 210.811 96.5883 210.332 96.318C209.853 96.0478 209.857 95.1279 210.343 94.2638C210.829 93.3996 211.614 92.9193 212.093 93.1895C212.572 93.4598 212.569 94.3751 212.082 95.2438Z" fill="#1A4850"/>
<path d="M202.327 90.0077C201.84 90.8719 201.056 91.3534 200.577 91.0831C200.098 90.8128 200.102 89.893 200.588 89.0289C201.074 88.1647 201.859 87.6832 202.339 87.9546C202.82 88.226 202.819 89.1436 202.327 90.0077Z" fill="#1A4850"/>
<path d="M198.948 98.8774C198.948 98.8774 202.939 101.923 205.824 102.016C205.824 102.016 202.758 104.514 200.551 102.894C199.925 102.451 199.44 101.836 199.155 101.123C198.871 100.41 198.799 99.6303 198.948 98.8774Z" fill="#1A4850"/>
<path d="M209.984 93.4942C209.984 93.4942 211.817 91.7227 212.567 92.3461C213.316 92.9695 212.924 95.1498 212.924 95.1498L214.527 95.1907L213.201 94.657C213.201 94.657 213.628 92.3927 212.804 91.9237C211.631 91.256 209.984 93.4942 209.984 93.4942Z" fill="#1A4850"/>
<path d="M203.083 89.9497C203.083 89.9497 203.65 87.4651 202.725 87.1471C201.799 86.8292 200.144 88.2952 200.144 88.2952L199.277 86.945L200.421 87.8024C200.421 87.8024 202.136 86.2625 202.963 86.7247C204.143 87.3822 203.083 89.9497 203.083 89.9497Z" fill="#1A4850"/>
<path d="M216.163 82.5252C215.842 82.0593 215.426 81.6669 214.942 81.3743C214.459 81.0817 213.918 80.8954 213.357 80.828C212.795 80.7605 212.226 80.8134 211.686 80.983C211.147 81.1527 210.65 81.4353 210.228 81.812C206.786 84.5624 199.023 88.9661 195.204 87.5092C191.385 86.0522 203.559 69.783 214.13 74.5478C224.701 79.3126 223.749 94.8256 219.354 99.7574C214.958 104.689 217.037 100.098 217.037 100.098C217.209 96.1685 217.8 92.2685 218.8 88.4642C220.268 83.8186 216.163 82.5252 216.163 82.5252Z" fill="#A74047"/>
<path d="M204.446 97.2879C204.243 97.2866 204.04 97.2603 203.843 97.2095L204.054 96.3749C204.275 96.4645 204.52 96.472 204.746 96.3962C204.971 96.3203 205.162 96.1661 205.283 95.9616C205.391 95.794 205.449 95.5997 205.452 95.4006C205.455 95.2015 205.402 95.0056 205.299 94.8351C205.185 94.7215 205.002 94.7329 204.738 94.8703L204.338 94.1072C204.576 93.9399 204.865 93.8617 205.155 93.8862C205.444 93.9107 205.716 94.0364 205.922 94.2412C206.158 94.5472 206.294 94.9179 206.313 95.3036C206.331 95.6892 206.232 96.0714 206.027 96.3987C205.868 96.676 205.638 96.905 205.359 97.0616C205.081 97.2182 204.765 97.2964 204.446 97.2879V97.2879Z" fill="#874538"/>
<path d="M255.396 157.213C254.98 163.327 239.851 183.234 237.329 183.941C236.629 184.155 235.969 184.483 235.374 184.911C235.11 185.101 234.845 185.302 234.593 185.504C233.677 186.257 232.832 187.093 232.071 188.002C227.658 187.713 215.265 181.976 219.249 180.716C219.534 180.617 219.801 180.476 220.044 180.299C220.226 180.177 220.399 180.042 220.561 179.896C225.251 175.962 234.379 160.001 234.442 158.79C234.492 157.467 236.068 157.215 236.068 157.215C236.068 157.215 227.457 144.569 222.464 143.043C217.471 141.517 214.95 135.479 214.95 135.479C210.021 114.613 224.356 117.892 224.356 117.892C234.925 124.18 255.815 151.085 255.396 157.213Z" fill="#8BBDDB"/>
<path d="M235.378 184.911C235.113 185.1 234.849 185.301 234.597 185.503C229.39 185 224.391 183.211 220.048 180.296C220.229 180.174 220.402 180.039 220.565 179.893C224.986 182.817 230.089 184.546 235.378 184.911V184.911Z" fill="#3E6575"/>
<path d="M172.5 113.185C172.386 113.406 172.255 113.617 172.109 113.817C171.176 113.783 170.248 113.669 169.335 113.476C165.481 112.611 161.953 110.67 159.16 107.878C158.643 107.373 158.189 106.894 157.797 106.454C157.977 106.335 158.162 106.225 158.353 106.125C158.68 106.491 159.058 106.894 159.488 107.311C162.293 110.169 165.889 112.123 169.814 112.921C170.7 113.088 171.598 113.176 172.5 113.185V113.185Z" fill="#3E6575"/>
<path d="M240.157 203.041C238.851 205.373 237.036 207.381 234.846 208.915C232.657 210.448 230.149 211.468 227.511 211.898C227.397 211.722 227.271 211.52 227.158 211.319C229.831 210.913 232.372 209.885 234.577 208.32C236.782 206.754 238.59 204.694 239.854 202.304C239.952 202.563 240.055 202.815 240.157 203.041Z" fill="#3E6575"/>
<path d="M125.414 317.758C124.166 319.087 123.086 320.565 122.2 322.158C120.56 325.007 122.363 327.63 114.432 334.237C114.432 334.237 98.4333 324.868 91.21 312.828C91.2732 311.824 91.6598 310.868 92.312 310.102C92.9642 309.336 93.8468 308.802 94.8279 308.58C96.7061 308.151 101.875 310.572 106.843 311.505C107.54 311.638 108.242 311.735 108.949 311.795C109.795 311.879 110.649 311.875 111.495 311.782C112.231 311.716 112.953 311.542 113.639 311.265H113.651C114.582 310.869 115.405 310.255 116.052 309.477C116.699 308.698 117.15 307.777 117.37 306.789C117.37 306.789 121.619 309.21 118.783 313.307C118.787 313.307 123.826 311.101 125.414 317.758Z" fill="#CFD8DC"/>
<path d="M114.432 334.236C114.432 334.236 98.4333 324.868 91.21 312.827C91.21 312.827 93.8944 312.259 96.1133 316.244C98.3322 320.229 115.731 329.307 114.432 334.236Z" fill="#ADBEC4"/>
<path d="M114.496 315.3C113.197 317.354 113.223 313.559 111.495 311.78C112.231 311.714 112.953 311.54 113.639 311.263H113.651C114.42 312.097 115.517 313.698 114.496 315.3Z" fill="#ADBEC4"/>
<path d="M109.465 315.412C108.091 316.711 107.648 313.321 106.843 311.505C107.54 311.638 108.242 311.735 108.949 311.794C109.755 312.891 110.512 314.416 109.465 315.412Z" fill="#ADBEC4"/>
<path d="M223.842 359.326H201.211C200.654 357.155 200.654 354.878 201.211 352.707C201.615 351.207 203.96 349.806 206.14 347.852C206.757 347.31 207.334 346.724 207.868 346.1C208.304 345.589 208.688 345.036 209.016 344.449C209.446 343.716 209.761 342.92 209.948 342.09C210.33 340.011 210.066 337.864 209.192 335.939C209.192 335.939 216.895 334.324 219.639 338.524C219.639 338.524 219.903 336.582 222.349 337.88C222.153 340.265 222.195 342.664 222.476 345.041C222.959 348.294 225.998 349.24 223.842 359.326Z" fill="#CFD8DC"/>
<path d="M217.954 345.696C217.859 345.804 217.743 345.889 217.612 345.948C217.482 346.007 217.34 346.037 217.197 346.037C216.956 346.037 216.721 345.957 216.53 345.81C215.479 344.995 214.248 344.445 212.94 344.208C211.631 343.971 210.285 344.053 209.016 344.447C209.446 343.714 209.761 342.918 209.948 342.089C211.462 341.534 214.311 341.206 217.828 344.208C217.936 344.295 218.026 344.404 218.091 344.527C218.157 344.651 218.197 344.786 218.208 344.925C218.22 345.064 218.204 345.204 218.16 345.337C218.116 345.469 218.046 345.591 217.954 345.696V345.696Z" fill="#ADBEC4"/>
<path d="M216.051 349.453L215.924 349.643C215.782 349.867 215.558 350.028 215.3 350.091C215.041 350.155 214.768 350.116 214.538 349.983C212.999 349.075 209.541 347.36 206.135 347.852C206.751 347.309 207.328 346.724 207.862 346.1C209.25 345.776 210.695 345.787 212.078 346.131C213.461 346.475 214.743 347.143 215.818 348.079C216.017 348.241 216.15 348.469 216.193 348.722C216.236 348.975 216.185 349.235 216.051 349.453V349.453Z" fill="#ADBEC4"/>
<path d="M257.5 53C259.433 53 261 51.433 261 49.5C261 47.567 259.433 46 257.5 46C255.567 46 254 47.567 254 49.5C254 51.433 255.567 53 257.5 53Z" stroke="#1A4850" stroke-width="0.5" stroke-miterlimit="10"/>
<path d="M246.5 53C248.433 53 250 51.433 250 49.5C250 47.567 248.433 46 246.5 46C244.567 46 243 47.567 243 49.5C243 51.433 244.567 53 246.5 53Z" stroke="#1A4850" stroke-width="0.5" stroke-miterlimit="10"/>
<path d="M261 49C261 49 265.23 49 266 49" stroke="#1A4850" stroke-width="0.5" stroke-miterlimit="10" stroke-linecap="round"/>
<path d="M237 50C237 50 242.076 50 243 50" stroke="#1A4850" stroke-width="0.5" stroke-miterlimit="10" stroke-linecap="round"/>
<path d="M254 49.9997C254 49.9997 252.5 47.9997 250 49.9999" stroke="#1A4850" stroke-width="0.5" stroke-miterlimit="10" stroke-linecap="round"/>
</svg>
