<svg width="462" height="130" viewBox="0 0 462 130" fill="none" xmlns="http://www.w3.org/2000/svg">
<path d="M61.8298 90.4197C61.9898 90.7397 62.4798 91.0697 62.8798 91.0697H63.5198C63.9198 91.0697 64.6398 91.0697 65.0398 91.0697H65.6798C66.0798 91.0697 66.5698 90.7497 66.7298 90.4197L78.2098 61.1897C78.9298 59.6697 79.4998 59.7497 79.4998 61.4397V79.3497C79.4998 81.1197 78.5398 82.4897 77.4198 82.4897C76.2898 82.4897 75.4098 83.8497 75.4098 85.6197V93.0097H94.9198V87.7097L94.9998 85.6197C94.9998 83.8597 94.0398 82.4897 92.9098 82.4897C91.9498 82.4897 91.2298 81.5997 90.8998 80.3997V50.5897C90.8998 48.8997 91.7098 47.5397 92.9098 47.5397C94.0398 47.5397 94.9998 46.0997 94.9998 44.4097V36.2197H77.2498L63.9998 68.0197L50.7498 36.2197H32.8398V44.4097C32.8398 46.0997 33.7198 47.5397 34.8498 47.5397C36.0498 47.5397 36.9298 48.9097 36.9298 50.5897V79.3397C36.9298 81.1097 36.0498 82.4797 34.8498 82.4797C33.7198 82.4797 32.8398 83.8397 32.8398 85.6097L32.7598 92.9997H52.3598V85.6097C52.3598 83.8497 51.4698 82.4797 50.3498 82.4797C49.2298 82.4797 48.2598 81.1097 48.2598 79.3397V61.4297C48.2598 59.7397 48.8198 59.6697 49.5498 61.1797L61.8298 90.4197Z" fill="#EB002B"/>
<path d="M64.16 0C99.49 0 128.33 28.83 128.33 64.16C128.33 99.5 99.5 128.32 64.16 128.32C28.83 128.32 2.60067e-06 99.5 2.60067e-06 64.16C-0.0099974 28.83 28.82 0 64.16 0ZM64.16 12.77C35.89 12.77 12.77 35.82 12.77 64.16C12.77 92.43 35.9 115.55 64.16 115.55C92.51 115.55 115.56 92.42 115.56 64.16C115.55 35.82 92.51 12.77 64.16 12.77Z" fill="#EB002B"/>
<path d="M167.32 0.410156H165.9V129.18H167.32V0.410156Z" fill="#EB002B"/>
<path d="M363.26 12.9702C355.51 5.22016 344.81 0.410156 333.04 0.410156C321.26 0.410156 310.57 5.21016 302.82 12.9602C295.07 20.7102 290.271 31.4002 290.271 43.1802C290.271 66.7402 309.49 85.9602 333.05 85.9602C356.6 85.9602 375.831 66.7402 375.831 43.1802C375.821 31.4102 371.01 20.7102 363.26 12.9702ZM333.04 77.4501C314.19 77.4501 298.781 62.0302 298.781 43.1902C298.781 24.2902 314.2 8.93016 333.04 8.93016C351.94 8.93016 367.31 24.2902 367.31 43.1902C367.31 62.0302 351.94 77.4501 333.04 77.4501Z" fill="#EB002B"/>
<path d="M234.941 0.410156V85.9602H226.421V9.99016C220.391 11.5402 214.991 14.6902 210.721 18.9702L204.721 12.9702C210.551 7.14016 218.051 2.97016 226.421 1.27016C229.171 0.710157 232.021 0.410156 234.941 0.410156Z" fill="#EB002B"/>
<path d="M290.271 85.9599C290.271 109.52 271.051 128.73 247.491 128.74V120.23C266.391 120.23 281.761 104.81 281.761 85.9699C281.761 67.0699 266.391 51.7099 247.491 51.7099V10.4599C250.431 10.4599 253.281 10.0899 256.011 9.38992C262.041 7.84992 267.431 4.68992 271.711 0.419922L277.711 6.41992C271.881 12.2499 264.381 16.4099 256.011 18.1199V44.0399C264.381 45.7499 271.881 49.9099 277.711 55.7399C285.471 63.4899 290.271 74.1799 290.271 85.9599Z" fill="#EB002B"/>
<path d="M247.501 10.46H247.491V18.97H247.501V10.46Z" fill="#EB002B"/>
<path d="M381.961 73.0202C382.031 71.8202 382.331 70.8202 382.861 70.0202C383.391 69.2202 384.061 68.5903 384.881 68.1003C385.701 67.6203 386.621 67.2703 387.641 67.0703C388.661 66.8703 389.691 66.7603 390.731 66.7603C391.671 66.7603 392.621 66.8303 393.591 66.9603C394.551 67.0903 395.431 67.3502 396.231 67.7402C397.031 68.1302 397.681 68.6603 398.181 69.3503C398.691 70.0403 398.941 70.9503 398.941 72.0803V81.8003C398.941 82.6403 398.991 83.4503 399.081 84.2203C399.181 84.9903 399.341 85.5702 399.591 85.9502H394.391C394.291 85.6602 394.211 85.3702 394.161 85.0602C394.101 84.7603 394.061 84.4503 394.031 84.1403C393.211 84.9803 392.251 85.5703 391.141 85.9103C390.031 86.2503 388.901 86.4202 387.741 86.4202C386.851 86.4202 386.021 86.3102 385.251 86.0902C384.481 85.8702 383.801 85.5403 383.231 85.0803C382.651 84.6203 382.201 84.0403 381.871 83.3503C381.541 82.6503 381.381 81.8203 381.381 80.8603C381.381 79.8003 381.571 78.9302 381.941 78.2402C382.311 77.5503 382.801 77.0103 383.391 76.6003C383.981 76.1903 384.661 75.8803 385.411 75.6803C386.171 75.4803 386.931 75.3103 387.711 75.1903C388.481 75.0703 389.241 74.9703 389.991 74.9003C390.741 74.8303 391.401 74.7203 391.981 74.5703C392.561 74.4303 393.021 74.2103 393.351 73.9403C393.691 73.6603 393.841 73.2603 393.821 72.7303C393.821 72.1803 393.731 71.7403 393.551 71.4103C393.371 71.0803 393.131 70.8303 392.831 70.6503C392.531 70.4703 392.181 70.3503 391.781 70.2903C391.381 70.2303 390.951 70.2002 390.501 70.2002C389.491 70.2002 388.691 70.4203 388.111 70.8503C387.531 71.2803 387.191 72.0102 387.101 73.0202H381.961ZM393.821 76.8203C393.601 77.0103 393.331 77.1602 393.011 77.2702C392.681 77.3802 392.341 77.4703 391.961 77.5403C391.591 77.6103 391.191 77.6703 390.791 77.7203C390.381 77.7703 389.971 77.8303 389.561 77.9003C389.171 77.9703 388.791 78.0703 388.421 78.1903C388.051 78.3103 387.721 78.4703 387.441 78.6803C387.161 78.8903 386.941 79.1403 386.771 79.4603C386.601 79.7703 386.521 80.1703 386.521 80.6503C386.521 81.1103 386.601 81.4902 386.771 81.8102C386.941 82.1202 387.171 82.3703 387.461 82.5503C387.751 82.7303 388.091 82.8603 388.471 82.9303C388.861 83.0003 389.251 83.0403 389.661 83.0403C390.671 83.0403 391.451 82.8703 392.011 82.5303C392.561 82.1903 392.971 81.7903 393.241 81.3203C393.501 80.8503 393.671 80.3703 393.731 79.8903C393.791 79.4103 393.821 79.0203 393.821 78.7303V76.8203Z" fill="#EB002B"/>
<path d="M407.481 67.2702V69.8703H407.591C408.241 68.7903 409.081 68.0003 410.121 67.5003C411.161 67.0103 412.221 66.7603 413.301 66.7603C414.671 66.7603 415.801 66.9503 416.681 67.3203C417.561 67.6903 418.251 68.2103 418.761 68.8703C419.271 69.5303 419.621 70.3403 419.831 71.2903C420.031 72.2403 420.141 73.3002 420.141 74.4502V85.9403H415.011V75.3903C415.011 73.8503 414.771 72.7003 414.291 71.9403C413.811 71.1803 412.951 70.8003 411.721 70.8003C410.321 70.8003 409.311 71.2203 408.681 72.0503C408.051 72.8803 407.741 74.2503 407.741 76.1503V85.9502H402.611V67.2702H407.481Z" fill="#EB002B"/>
<path d="M423.591 72.5705C424.051 71.3505 424.701 70.3205 425.541 69.4605C426.381 68.6005 427.401 67.9405 428.581 67.4705C429.761 67.0005 431.091 66.7705 432.561 66.7705C434.031 66.7705 435.361 67.0005 436.551 67.4705C437.741 67.9405 438.761 68.6005 439.601 69.4605C440.441 70.3205 441.091 71.3505 441.551 72.5705C442.011 73.7905 442.241 75.1405 442.241 76.6405C442.241 78.1305 442.011 79.4805 441.551 80.6905C441.091 81.9005 440.441 82.9305 439.601 83.7805C438.761 84.6405 437.741 85.2905 436.551 85.7505C435.361 86.2105 434.031 86.4405 432.561 86.4405C431.091 86.4405 429.761 86.2105 428.581 85.7505C427.401 85.2905 426.391 84.6405 425.541 83.7805C424.701 82.9205 424.051 81.8905 423.591 80.6905C423.131 79.4905 422.901 78.1405 422.901 76.6405C422.911 75.1405 423.131 73.7905 423.591 72.5705ZM428.251 78.8205C428.391 79.5305 428.641 80.1705 428.991 80.7405C429.341 81.3105 429.801 81.7605 430.381 82.1005C430.961 82.4405 431.681 82.6105 432.551 82.6105C433.421 82.6105 434.151 82.4405 434.741 82.1005C435.331 81.7605 435.801 81.3105 436.151 80.7405C436.501 80.1705 436.751 79.5405 436.891 78.8205C437.031 78.1105 437.111 77.3805 437.111 76.6305C437.111 75.8805 437.041 75.1505 436.891 74.4305C436.751 73.7105 436.501 73.0705 436.151 72.5105C435.801 71.9605 435.331 71.5005 434.741 71.1505C434.151 70.8005 433.421 70.6305 432.551 70.6305C431.681 70.6305 430.961 70.8105 430.381 71.1505C429.801 71.5005 429.341 71.9505 428.991 72.5105C428.641 73.0605 428.391 73.7005 428.251 74.4305C428.111 75.1505 428.031 75.8905 428.031 76.6305C428.041 77.3805 428.111 78.1105 428.251 78.8205Z" fill="#EB002B"/>
<path d="M449.271 81.3203C449.501 81.7203 449.791 82.0403 450.161 82.3003C450.521 82.5503 450.941 82.7403 451.411 82.8603C451.881 82.9803 452.371 83.0403 452.871 83.0403C453.231 83.0403 453.611 83.0003 454.011 82.9103C454.411 82.8303 454.771 82.6903 455.091 82.5103C455.421 82.3303 455.691 82.0903 455.901 81.7903C456.121 81.4903 456.231 81.1103 456.231 80.6503C456.231 79.8803 455.721 79.3003 454.691 78.9103C453.671 78.5203 452.241 78.1403 450.411 77.7503C449.661 77.5803 448.931 77.3803 448.221 77.1503C447.511 76.9203 446.881 76.6203 446.321 76.2503C445.771 75.8803 445.321 75.4102 444.981 74.8402C444.641 74.2702 444.471 73.5803 444.471 72.7603C444.471 71.5603 444.701 70.5703 445.171 69.8003C445.641 69.0303 446.261 68.4203 447.031 67.9703C447.801 67.5203 448.671 67.2103 449.631 67.0303C450.591 66.8503 451.581 66.7603 452.591 66.7603C453.601 66.7603 454.581 66.8603 455.541 67.0503C456.491 67.2403 457.341 67.5703 458.091 68.0303C458.841 68.4903 459.461 69.1003 459.951 69.8603C460.441 70.6203 460.741 71.5803 460.841 72.7303H455.961C455.891 71.7403 455.511 71.0703 454.841 70.7203C454.171 70.3703 453.371 70.2002 452.451 70.2002C452.161 70.2002 451.851 70.2203 451.511 70.2503C451.171 70.2903 450.871 70.3603 450.591 70.4803C450.311 70.6003 450.081 70.7803 449.891 71.0003C449.701 71.2303 449.601 71.5402 449.601 71.9202C449.601 72.3802 449.771 72.7503 450.111 73.0403C450.451 73.3303 450.891 73.5602 451.431 73.7402C451.971 73.9202 452.591 74.0803 453.291 74.2303C453.991 74.3703 454.701 74.5302 455.421 74.7002C456.171 74.8702 456.901 75.0702 457.611 75.3102C458.321 75.5502 458.951 75.8702 459.511 76.2702C460.061 76.6702 460.511 77.1603 460.851 77.7503C461.191 78.3403 461.361 79.0703 461.361 79.9403C461.361 81.1703 461.111 82.2003 460.621 83.0303C460.131 83.8603 459.481 84.5303 458.691 85.0403C457.891 85.5503 456.981 85.9003 455.961 86.1103C454.941 86.3103 453.891 86.4202 452.831 86.4202C451.751 86.4202 450.691 86.3102 449.651 86.0902C448.611 85.8702 447.691 85.5103 446.891 85.0103C446.081 84.5003 445.421 83.8403 444.901 83.0003C444.381 82.1703 444.101 81.1303 444.051 79.8703H448.931C448.931 80.4403 449.041 80.9203 449.271 81.3203Z" fill="#EB002B"/>
<path d="M333.041 99.5902V97.8702C334.661 97.7102 335.791 97.4502 336.431 97.0802C337.071 96.7102 337.551 95.8302 337.861 94.4502H339.631V112.24H337.241V99.5902H333.041Z" fill="#EB002B"/>
<path d="M345.38 101.79C344.72 101.12 344.391 100.26 344.391 99.2003C344.391 97.8703 344.871 96.7303 345.841 95.7703C346.801 94.8103 348.17 94.3403 349.94 94.3403C351.65 94.3403 352.991 94.7903 353.961 95.6903C354.931 96.5903 355.42 97.6503 355.42 98.8503C355.42 99.9603 355.14 100.87 354.57 101.56C354.25 101.95 353.76 102.33 353.1 102.71C353.84 103.05 354.43 103.44 354.85 103.88C355.64 104.71 356.04 105.79 356.04 107.12C356.04 108.69 355.511 110.02 354.461 111.12C353.401 112.21 351.91 112.76 349.98 112.76C348.24 112.76 346.77 112.29 345.57 111.34C344.37 110.4 343.771 109.03 343.771 107.23C343.771 106.17 344.03 105.26 344.54 104.49C345.06 103.72 345.821 103.13 346.831 102.73C346.211 102.46 345.73 102.15 345.38 101.79ZM352.62 109.86C353.31 109.3 353.651 108.46 353.651 107.35C353.651 106.19 353.301 105.32 352.591 104.72C351.881 104.12 350.98 103.82 349.87 103.82C348.8 103.82 347.92 104.13 347.24 104.74C346.56 105.35 346.22 106.2 346.22 107.28C346.22 108.21 346.531 109.02 347.151 109.69C347.771 110.37 348.731 110.71 350.021 110.71C351.071 110.71 351.93 110.43 352.62 109.86ZM352.201 101.03C352.761 100.48 353.031 99.8203 353.031 99.0503C353.031 98.3803 352.76 97.7703 352.23 97.2103C351.7 96.6503 350.89 96.3703 349.8 96.3703C348.72 96.3703 347.941 96.6503 347.461 97.2103C346.981 97.7703 346.74 98.4203 346.74 99.1703C346.74 100.01 347.05 100.67 347.67 101.15C348.29 101.63 349.03 101.86 349.87 101.86C350.88 101.86 351.651 101.59 352.201 101.03Z" fill="#EB002B"/>
<path d="M369.76 94.6802V96.6402C369.19 97.2002 368.42 98.1702 367.47 99.5502C366.52 100.93 365.68 102.42 364.94 104.02C364.22 105.58 363.67 106.99 363.29 108.27C363.05 109.09 362.74 110.42 362.35 112.25H359.87C360.44 108.84 361.68 105.45 363.61 102.07C364.75 100.09 365.95 98.3802 367.2 96.9402H357.32V94.6802H369.76Z" fill="#EB002B"/>
<path d="M381.721 97.2404C382.521 98.7104 382.921 100.73 382.921 103.29C382.921 105.72 382.561 107.73 381.831 109.31C380.781 111.59 379.071 112.73 376.691 112.73C374.541 112.73 372.951 111.8 371.901 109.94C371.031 108.39 370.591 106.3 370.591 103.68C370.591 101.65 370.851 99.9104 371.381 98.4504C372.361 95.7404 374.141 94.3804 376.711 94.3804C379.021 94.3804 380.691 95.3304 381.721 97.2404ZM379.461 109.13C380.151 108.1 380.501 106.18 380.501 103.37C380.501 101.34 380.251 99.6704 379.751 98.3604C379.251 97.0504 378.281 96.4004 376.841 96.4004C375.521 96.4004 374.551 97.0204 373.941 98.2604C373.331 99.5004 373.021 101.33 373.021 103.75C373.021 105.57 373.221 107.03 373.611 108.14C374.211 109.83 375.231 110.67 376.681 110.67C377.841 110.68 378.771 110.17 379.461 109.13Z" fill="#EB002B"/>
<path d="M392.161 103.97H398.421V106.28H392.161V103.97Z" fill="#EB002B"/>
<path d="M408.461 108.22C409.011 107.08 410.091 106.05 411.701 105.11L414.091 103.73C415.161 103.11 415.92 102.57 416.35 102.13C417.03 101.44 417.37 100.65 417.37 99.7603C417.37 98.7203 417.06 97.8903 416.43 97.2803C415.81 96.6703 414.97 96.3603 413.94 96.3603C412.4 96.3603 411.34 96.9403 410.75 98.1103C410.43 98.7403 410.26 99.6003 410.23 100.71H407.951C407.971 99.1503 408.26 97.8903 408.81 96.9103C409.78 95.1803 411.501 94.3203 413.961 94.3203C416.011 94.3203 417.5 94.8703 418.44 95.9803C419.38 97.0903 419.86 98.3203 419.86 99.6703C419.86 101.1 419.36 102.32 418.35 103.34C417.77 103.93 416.72 104.65 415.22 105.49L413.51 106.44C412.7 106.89 412.051 107.32 411.591 107.72C410.761 108.44 410.231 109.25 410.021 110.13H419.771V112.25H407.5C407.59 110.7 407.901 109.36 408.461 108.22Z" fill="#EB002B"/>
<path d="M432.51 97.2404C433.31 98.7104 433.71 100.73 433.71 103.29C433.71 105.72 433.35 107.73 432.62 109.31C431.57 111.59 429.86 112.73 427.48 112.73C425.33 112.73 423.74 111.8 422.69 109.94C421.82 108.39 421.38 106.3 421.38 103.68C421.38 101.65 421.64 99.9104 422.17 98.4504C423.15 95.7404 424.93 94.3804 427.5 94.3804C429.81 94.3804 431.48 95.3304 432.51 97.2404ZM430.25 109.13C430.94 108.1 431.29 106.18 431.29 103.37C431.29 101.34 431.04 99.6704 430.54 98.3604C430.04 97.0504 429.07 96.4004 427.63 96.4004C426.31 96.4004 425.34 97.0204 424.73 98.2604C424.12 99.5004 423.81 101.33 423.81 103.75C423.81 105.57 424.01 107.03 424.4 108.14C425 109.83 426.02 110.67 427.47 110.67C428.63 110.68 429.56 110.17 430.25 109.13Z" fill="#EB002B"/>
<path d="M436.111 108.22C436.661 107.08 437.741 106.05 439.351 105.11L441.741 103.73C442.811 103.11 443.571 102.57 444.001 102.13C444.681 101.44 445.021 100.65 445.021 99.7603C445.021 98.7203 444.711 97.8903 444.081 97.2803C443.451 96.6703 442.621 96.3603 441.591 96.3603C440.051 96.3603 438.991 96.9403 438.401 98.1103C438.081 98.7403 437.911 99.6003 437.881 100.71H435.601C435.621 99.1503 435.911 97.8903 436.461 96.9103C437.431 95.1803 439.151 94.3203 441.611 94.3203C443.661 94.3203 445.151 94.8703 446.091 95.9803C447.031 97.0903 447.511 98.3203 447.511 99.6703C447.511 101.1 447.011 102.32 446.001 103.34C445.421 103.93 444.371 104.65 442.871 105.49L441.161 106.44C440.341 106.89 439.701 107.32 439.241 107.72C438.411 108.44 437.881 109.25 437.671 110.13H447.421V112.25H435.161C435.241 110.7 435.561 109.36 436.111 108.22Z" fill="#EB002B"/>
<path d="M460.161 97.2404C460.961 98.7104 461.361 100.73 461.361 103.29C461.361 105.72 461.001 107.73 460.271 109.31C459.221 111.59 457.511 112.73 455.131 112.73C452.981 112.73 451.391 111.8 450.341 109.94C449.471 108.39 449.031 106.3 449.031 103.68C449.031 101.65 449.291 99.9104 449.821 98.4504C450.801 95.7404 452.581 94.3804 455.151 94.3804C457.461 94.3804 459.131 95.3304 460.161 97.2404ZM457.911 109.13C458.601 108.1 458.951 106.18 458.951 103.37C458.951 101.34 458.701 99.6704 458.201 98.3604C457.701 97.0504 456.731 96.4004 455.291 96.4004C453.971 96.4004 453.001 97.0204 452.391 98.2604C451.781 99.5004 451.471 101.33 451.471 103.75C451.471 105.57 451.671 107.03 452.061 108.14C452.661 109.83 453.681 110.67 455.131 110.67C456.291 110.68 457.211 110.17 457.911 109.13Z" fill="#EB002B"/>
</svg>
