<svg width="245" height="245" viewBox="0 0 245 245" fill="none" xmlns="http://www.w3.org/2000/svg">
<g clip-path="url(#clip0)">
<path d="M95.896 103.321V107.157C95.896 109.139 97.5029 110.745 99.4849 110.745C101.467 110.745 103.074 109.139 103.074 107.157V103.321C103.074 101.339 101.467 99.7319 99.4849 99.7319C97.5029 99.7319 95.896 101.339 95.896 103.321Z" fill="#858EA1"/>
<path d="M141.926 103.321V107.157C141.926 109.139 143.533 110.745 145.515 110.745C147.497 110.745 149.104 109.139 149.104 107.157V103.321C149.104 101.339 147.497 99.7319 145.515 99.7319C143.533 99.7319 141.926 101.339 141.926 103.321Z" fill="#858EA1"/>
<path d="M106.802 87.1072C106.322 85.184 104.372 84.0145 102.45 84.4959L87.107 88.3317C85.1839 88.8121 84.0149 90.7611 84.4958 92.6838C84.9035 94.3146 86.3668 95.4032 87.9746 95.4032C88.2627 95.4032 88.5555 95.3683 88.8479 95.2951L104.191 91.4593C106.114 90.9784 107.283 89.0299 106.802 87.1072Z" fill="#858EA1"/>
<path d="M157.026 95.4031C158.633 95.4031 160.097 94.3144 160.504 92.6837C160.985 90.761 159.816 88.8125 157.893 88.3316L142.55 84.4958C140.629 84.0149 138.679 85.1839 138.198 87.107C137.717 89.0297 138.886 90.9782 140.809 91.4591L156.152 95.2949C156.445 95.3681 156.737 95.4031 157.026 95.4031Z" fill="#858EA1"/>
<path d="M208.7 215.442L168.859 202.992C163.926 201.45 160.611 196.941 160.611 191.772V183.873C160.611 181.891 159.004 180.285 157.022 180.285C155.04 180.285 153.434 181.891 153.434 183.873V191.772C153.434 197.738 156.176 203.158 160.654 206.664C150.565 216.753 136.85 222.479 122.5 222.479C108.178 222.479 94.4293 216.749 84.3426 206.667C88.823 203.161 91.5663 197.74 91.5663 191.773V171.38C100.861 176.858 111.491 179.791 122.5 179.791C138.11 179.791 152.962 173.901 164.32 163.207C174.797 153.342 181.393 140.265 183.112 126.089H187.71C191.832 126.089 195.823 124.374 198.661 121.384C201.539 118.351 203.004 114.374 202.785 110.186C202.513 104.986 199.506 100.52 195.134 98.023V41.9472C195.134 18.8176 176.317 0 153.187 0H103.321C95.6806 0 88.8943 4.61241 85.9595 11.5073H80.3054C63.5205 11.5073 49.8656 25.1627 49.8656 41.9472V85.7141C49.8656 87.6961 51.4725 89.303 53.4545 89.303C55.4365 89.303 57.0433 87.6961 57.0433 85.7141V41.9472C57.0433 29.1205 67.4788 18.6851 80.3054 18.6851H88.5196C90.1552 18.6851 91.5835 17.5792 91.9936 15.9958C93.3387 10.8039 97.9966 7.17773 103.321 7.17773H153.186C172.358 7.17773 187.956 22.7754 187.956 41.9472V95.9223C187.658 95.9065 187.359 95.896 187.058 95.896H183.873C179.507 95.896 175.954 92.3439 175.954 87.9775V68.7981C175.954 58.3588 167.461 49.8656 157.022 49.8656C155.04 49.8656 153.434 51.4725 153.434 53.4545C153.434 55.4365 155.04 57.0434 157.022 57.0434C163.504 57.0434 168.777 62.3166 168.777 68.7981V87.9775C168.777 93.6039 171.873 98.5173 176.448 101.114V110.992C176.448 115.359 172.896 118.911 168.53 118.911H76.4701C72.1037 118.911 68.5516 115.359 68.5516 110.992V101.114C73.1272 98.5173 76.2232 93.6034 76.2232 87.9775V68.7981C76.2232 62.3166 81.4964 57.0434 87.9775 57.0434H141.678C143.66 57.0434 145.267 55.4365 145.267 53.4545C145.267 51.4725 143.66 49.8656 141.678 49.8656H87.9775C77.5382 49.8656 69.0455 58.3588 69.0455 68.7981V87.9775C69.0455 92.3439 65.493 95.896 61.1265 95.896H57.942C49.5431 95.896 42.6352 102.173 42.2156 110.186C41.9964 114.373 43.4611 118.35 46.3394 121.383C49.1775 124.374 53.1688 126.089 57.2907 126.089H61.8888C63.6076 140.264 70.2035 153.341 80.6806 163.206C81.8783 164.334 83.1167 165.405 84.3891 166.424V191.772C84.3891 196.941 81.0744 201.45 76.1409 202.992L36.3002 215.442C28.3539 217.925 23.0146 225.187 23.0146 233.512V241.411C23.0146 243.393 24.6215 245 26.6035 245C28.5855 245 30.1924 243.393 30.1924 241.411V233.512C30.1924 228.343 33.5071 223.835 38.441 222.293L61.7725 215.002C68.5842 223.884 77.3649 231.269 87.2731 236.42C98.0698 242.033 110.251 245 122.5 245C134.682 245 146.805 242.063 157.556 236.508C167.532 231.354 176.376 223.933 183.225 215.001L206.558 222.293C211.492 223.835 214.807 228.343 214.807 233.512V241.411C214.807 243.393 216.413 245 218.395 245C220.377 245 221.984 243.393 221.984 241.411V233.512C221.985 225.187 216.646 217.925 208.7 215.442ZM183.626 103.068C183.632 103.067 183.631 103.068 183.626 103.068V103.068ZM183.626 110.993V103.074H187.058C191.561 103.074 195.4 106.433 195.617 110.562C195.732 112.763 194.964 114.852 193.454 116.442C191.943 118.034 189.903 118.912 187.709 118.912H181.376C182.801 116.608 183.626 113.895 183.626 110.993ZM57.2907 118.911C55.0972 118.911 53.0568 118.034 51.5457 116.442C50.0359 114.851 49.2684 112.763 49.3832 110.561C49.5995 106.432 53.4387 103.074 57.9415 103.074H61.3734V110.992C61.3734 113.894 62.1989 116.607 63.6239 118.911H57.2907V118.911ZM69.1278 126.089H175.872C175.486 128.887 174.882 131.613 174.083 134.254H107.157C105.175 134.254 103.568 135.861 103.568 137.843C103.568 139.825 105.175 141.432 107.157 141.432H164.959C154.76 148.933 139.154 153.434 122.5 153.434C105.845 153.434 90.2404 148.933 80.0413 141.432H91.8142C93.7962 141.432 95.4031 139.825 95.4031 137.843C95.4031 135.861 93.7962 134.254 91.8142 134.254H70.916C70.1178 131.613 69.5144 128.887 69.1278 126.089ZM77.6736 148.554C89.0618 156.209 105.087 160.611 122.5 160.611C139.912 160.611 155.938 156.209 167.326 148.554C157.614 163.085 141.062 172.613 122.5 172.613C103.938 172.613 87.386 163.085 77.6736 148.554ZM154.261 230.131C144.385 235.234 133.699 237.822 122.5 237.822C101.874 237.822 82.2266 228.506 69.1182 212.706L77.6396 210.043C89.1905 222.516 105.486 229.657 122.5 229.657C139.548 229.657 155.808 222.528 167.366 210.045L175.884 212.707C169.93 219.883 162.521 225.864 154.261 230.131Z" fill="#858EA1"/>
</g>
<defs>
<clipPath id="clip0">
<rect width="245" height="245" fill="white"/>
</clipPath>
</defs>
</svg>
